<svg id="Group_5816" data-name="Group 5816" xmlns="http://www.w3.org/2000/svg" width="311.595" height="275.748" viewBox="0 0 311.595 275.748">
  <g id="Group_5781" data-name="Group 5781" transform="translate(255.744 147.583)">
    <g id="Group_5780" data-name="Group 5780">
      <path id="Path_10244" data-name="Path 10244" d="M392.339,263.437l-.095-1.356s.6-.041,1.618-.039,2.468.036,4.2.166a63.655,63.655,0,0,1,12.511,2.234,58.8,58.8,0,0,1,11.787,4.761,39.914,39.914,0,0,1,3.625,2.118l1.331.876-.762,1.125-1.3-.855a38.592,38.592,0,0,0-3.537-2.066A57.42,57.42,0,0,0,410.2,265.75a62.282,62.282,0,0,0-12.243-2.186c-1.693-.128-3.107-.174-4.091-.162S392.339,263.437,392.339,263.437Z" transform="translate(-392.244 -262.041)" fill="#108f6e"/>
    </g>
    <path id="Path_10245" data-name="Path 10245" d="M443.632,283.529a5.116,5.116,0,0,1-1.878-3.072,4.268,4.268,0,0,1,.57-3.313,3.725,3.725,0,0,1,3.025-1.585,6.159,6.159,0,0,1,3.828,1.406,5.926,5.926,0,0,1,2.008,3.556,3.638,3.638,0,0,1-1.017,3.209,4.371,4.371,0,0,1-3.21,1.155A5.323,5.323,0,0,1,443.632,283.529Z" transform="translate(-407.179 -266.126)" fill="#fce300"/>
    <path id="Path_10246" data-name="Path 10246" d="M443.554,280.133a9.677,9.677,0,0,0,1.316.512,6.755,6.755,0,0,0,2.584.447,5.168,5.168,0,0,0-.777-2.594,9.843,9.843,0,0,0-.862-1.2,8.355,8.355,0,0,0,3.058-1.5,6.324,6.324,0,0,0,1.062-1.018,10.836,10.836,0,0,0-4.131-1.256,6.9,6.9,0,0,0-3.02.484,6.414,6.414,0,0,0-2.414,1.6,7.992,7.992,0,0,0-.569,2.812,9.936,9.936,0,0,0,.35,2.812,8.8,8.8,0,0,0,1.6,3.241,7.19,7.19,0,0,0,.839-1.193A7.082,7.082,0,0,0,443.554,280.133Z" transform="translate(-406.617 -265.506)" fill="#108f6e"/>
  </g>
  <ellipse id="Ellipse_122" data-name="Ellipse 122" cx="139.633" cy="11.715" rx="139.633" ry="11.715" transform="translate(18.903 252.317)" fill="#ededed"/>
  <g id="Group_5783" data-name="Group 5783" transform="translate(12.923 136.233)">
    <g id="Group_5782" data-name="Group 5782" transform="translate(11.477 4.722)">
      <path id="Path_10247" data-name="Path 10247" d="M99.846,257.547l-.5,1.375s-.557-.2-1.579-.516-2.481-.748-4.257-1.2a105.409,105.409,0,0,0-13.2-2.492,97.477,97.477,0,0,0-13.4-.7c-1.827.093-3.355.1-4.415.22l-1.668.165-.146-1.453,1.7-.169c1.081-.119,2.635-.13,4.5-.223a98.82,98.82,0,0,1,13.613.709,107.011,107.011,0,0,1,13.387,2.526c1.8.458,3.292.894,4.331,1.22S99.846,257.547,99.846,257.547Z" transform="translate(-60.68 -252.542)" fill="#108f6e"/>
    </g>
    <path id="Path_10248" data-name="Path 10248" d="M48.895,248.829a6.47,6.47,0,0,1,4.278.671A4.174,4.174,0,0,1,55.2,252.58a4.365,4.365,0,0,1-1.186,3.4,5.659,5.659,0,0,1-3.417,1.931,7.706,7.706,0,0,1-2.03.057,5.448,5.448,0,0,1-1.832-.582,4.638,4.638,0,0,1-2.366-2.794,3.955,3.955,0,0,1,.777-3.542,5.912,5.912,0,0,1,1.578-1.393A5.692,5.692,0,0,1,48.895,248.829Z" transform="translate(-44.231 -246.667)" fill="#fce300"/>
    <path id="Path_10249" data-name="Path 10249" d="M52.39,250.3a10.584,10.584,0,0,0-1.43.68,5.4,5.4,0,0,0-2.108,1.986,7.538,7.538,0,0,0,2.66.98,10.288,10.288,0,0,0,1.508.2,7.787,7.787,0,0,0-.77,3.473,7.653,7.653,0,0,0,.15,1.564,9.853,9.853,0,0,0,3.267-2.239,8.971,8.971,0,0,0,1.817-2.464,8.409,8.409,0,0,0,.9-2.964,6.985,6.985,0,0,0-1.466-2.73,8.342,8.342,0,0,0-2.568-2.03,11.35,11.35,0,0,0-4.461-.976,6.856,6.856,0,0,0,.451,1.514A8.8,8.8,0,0,0,52.39,250.3Z" transform="translate(-45.628 -245.774)" fill="#108f6e"/>
  </g>
  <path id="Path_10250" data-name="Path 10250" d="M246.285,114.991s-11.311-5.6-13.29-17.9,17.654-16.965,25.792,3.393c0,0-1.475-22.055,11.956-24.458s11.263,24.431,7.187,28.687c0,0,5.642-4.087,11.174-.694s3.747,16.683-14.093,20.218S246.285,114.991,246.285,114.991Z" transform="translate(-88.323 -58.186)" fill="#ffd200"/>
  <path id="Path_10251" data-name="Path 10251" d="M265.917,130.477a87.377,87.377,0,0,0-8.888-14.417l.311-.239a87.864,87.864,0,0,1,8.933,14.5Z" transform="translate(-95.629 -70.26)" fill="#fff"/>
  <rect id="Rectangle_767" data-name="Rectangle 767" width="27.526" height="0.392" transform="matrix(0.17, -0.985, 0.985, 0.17, 179.618, 59.022)" fill="#fff"/>
  <path id="Path_10252" data-name="Path 10252" d="M132.38,162.322s-4.66-10.22-14.27-10.217-11,10.151-5.382,17.684A39.878,39.878,0,0,0,90.241,163.9c-13.262.512-23.064,10.314-20.181,21.269s17.682,13.454,21.91,12.3c0,0-14.607,10.379-8.841,19.8s23.832,0,23.832,0Z" transform="translate(-38.962 -81.228)" fill="#bce13e"/>
  <path id="Path_10253" data-name="Path 10253" d="M121.025,201.241c-.165-.068-16.519-6.811-24.879-7.642l.077-.78c8.475.842,24.936,7.629,25.1,7.7Z" transform="translate(-47 -93.534)" fill="#fff"/>
  <path id="Path_10254" data-name="Path 10254" d="M96.333,202.42l-.464-.633c3.282-2.407,9.758-4.816,10.033-4.917l.271.735C106.108,197.629,99.526,200.078,96.333,202.42Z" transform="translate(-46.916 -94.759)" fill="#fff"/>
  <path id="Path_10255" data-name="Path 10255" d="M119.949,196.762c-.092-.253-2.253-6.221-2.443-8.648l.781-.061c.182,2.321,2.376,8.38,2.4,8.441Z" transform="translate(-53.456 -92.093)" fill="#fff"/>
  <path id="Path_10256" data-name="Path 10256" d="M100.832,236.372l-.4-.677a45.349,45.349,0,0,1,14.666-5.722l.111.777A44.554,44.554,0,0,0,100.832,236.372Z" transform="translate(-48.296 -104.765)" fill="#fff"/>
  <path id="Path_10257" data-name="Path 10257" d="M147.736,176.636c-.258-.279-6.335-6.91-7.994-12.3l.75-.23c1.605,5.221,7.758,11.934,7.82,12Z" transform="translate(-60.177 -84.854)" fill="#fff"/>
  <g id="Group_5784" data-name="Group 5784" transform="translate(0 148.302)">
    <path id="Path_10258" data-name="Path 10258" d="M72.417,268.419l-.644-4.779a61.512,61.512,0,0,0-30.25,3.465l-.287,3.387-1.629-2.553q-1.618.745-3.106,1.606l1.026,6.259-3.741-4.512a20.936,20.936,0,0,0-6.6,7.282A13.108,13.108,0,0,0,26,287.358a14.318,14.318,0,0,0,3.5,6.852,16.987,16.987,0,0,0,2.919,2.531,21.518,21.518,0,0,0,3.6,1.984c5.2,2.276,11.968,3.111,19.274,2.576l1.732-5.494,2.41,5.055c1.652-.238,3.328-.536,5-.908l-.465-3.29,2.734,2.749q.968-.247,1.934-.525c11.568-3.344,18.872-8.831,23.277-13.517a29.945,29.945,0,0,0,5.915-8.549s-6.646-9.385-22.986-12.662Z" transform="translate(-25.709 -263.072)" fill="#ffd200"/>
  </g>
  <rect id="Rectangle_768" data-name="Rectangle 768" width="54.745" height="0.784" transform="translate(12.993 171.871) rotate(-10.695)" fill="#fff"/>
  <path id="Path_10259" data-name="Path 10259" d="M65.269,291.151c-3.834-.223-11.432-3.537-11.753-3.678l.315-.719c.078.034,7.79,3.4,11.483,3.614Z" transform="translate(-34.114 -121.928)" fill="#fff"/>
  <path id="Path_10260" data-name="Path 10260" d="M74.453,298.218l-.761-.19c.82-3.278,5.061-7.656,5.241-7.841l.561.547C79.452,290.778,75.221,295.146,74.453,298.218Z" transform="translate(-40.213 -122.965)" fill="#fff"/>
  <path id="Path_10261" data-name="Path 10261" d="M96.613,284.551c-4.4-1.008-9-5.665-9.191-5.863l.561-.548c.045.047,4.631,4.69,8.8,5.647Z" transform="translate(-44.363 -119.324)" fill="#fff"/>
  <g id="Group_5785" data-name="Group 5785" transform="translate(242.14 173.213)">
    <path id="Path_10262" data-name="Path 10262" d="M393.147,325.54l-1.03,4.59a59.976,59.976,0,0,0,28.85,7.08l1.41-3L423,337.1q1.733-.133,3.385-.417l1.182-6.075,1.894,5.4a20.427,20.427,0,0,0,8.507-4.425,12.783,12.783,0,0,0,4.064-7.635,13.958,13.958,0,0,0-.881-7.455,16.519,16.519,0,0,0-1.813-3.305,20.994,20.994,0,0,0-2.622-3.035c-3.983-3.844-9.9-6.9-16.762-8.888l-3.446,4.44-.492-5.442c-1.592-.342-3.226-.637-4.881-.862l-.689,3.167-1.57-3.442q-.97-.1-1.948-.175c-11.717-.86-20.259,1.686-25.876,4.48a29.216,29.216,0,0,0-8.309,5.818s2.9,10.839,16.741,19.372Z" transform="translate(-372.747 -298.773)" fill="#ffd200"/>
  </g>
  <rect id="Rectangle_769" data-name="Rectangle 769" width="0.785" height="53.412" transform="translate(246.901 185.798) rotate(-80.349)" fill="#fff"/>
  <path id="Path_10263" data-name="Path 10263" d="M438.777,332.167c-.059-.057-5.975-5.748-9.278-7.194l.313-.719c3.434,1.5,9.264,7.111,9.51,7.349Z" transform="translate(-147.761 -133.263)" fill="#fff"/>
  <path id="Path_10264" data-name="Path 10264" d="M418.91,320.7l-.337-.708c.054-.026,5.4-2.587,7.145-5.136l.648.442C424.5,318.02,419.137,320.59,418.91,320.7Z" transform="translate(-144.459 -130.421)" fill="#fff"/>
  <path id="Path_10265" data-name="Path 10265" d="M405.871,328.053c-.027-.058-2.646-5.857-6.14-8.146l.43-.656c3.686,2.415,6.315,8.235,6.425,8.482Z" transform="translate(-138.764 -131.75)" fill="#fff"/>
  <g id="Group_5786" data-name="Group 5786" transform="translate(214.303 235.409)">
    <rect id="Rectangle_770" data-name="Rectangle 770" width="28.782" height="1.652" transform="translate(0 26.861) rotate(-68.946)" fill="#bce13e"/>
  </g>
  <g id="Group_5787" data-name="Group 5787" transform="translate(224.643 235.409)">
    <rect id="Rectangle_771" data-name="Rectangle 771" width="1.652" height="28.782" transform="translate(0 0.593) rotate(-21.054)" fill="#bce13e"/>
  </g>
  <g id="Group_5788" data-name="Group 5788" transform="translate(221.102 246.079)">
    <rect id="Rectangle_772" data-name="Rectangle 772" width="8.935" height="1.651" fill="#bce13e"/>
  </g>
  <g id="Group_5789" data-name="Group 5789" transform="translate(219.049 251.983)">
    <rect id="Rectangle_773" data-name="Rectangle 773" width="12.948" height="1.651" fill="#bce13e"/>
  </g>
  <path id="Path_10266" data-name="Path 10266" d="M87.607,426.073a6.279,6.279,0,0,0,.932,1.917,16.122,16.122,0,0,1,1.838,2.594c.126.5-.479.957-1.058.755a42.913,42.913,0,0,1-5.74-2.845c-.982-.756-1.259-1.033-1.234-1.209a30.6,30.6,0,0,1,1.568-2.8C84.258,423.961,86.877,423.979,87.607,426.073Z" transform="translate(-42.827 -163.472)" fill="#91b31e"/>
  <path id="Path_10267" data-name="Path 10267" d="M103.72,418.576a6.276,6.276,0,0,0,1.735,1.239,16.105,16.105,0,0,1,2.854,1.4c.351.382.037,1.069-.568,1.169a42.985,42.985,0,0,1-6.4.245c-1.224-.194-1.6-.3-1.661-.472a30.4,30.4,0,0,1,.038-3.211C99.769,418.323,102.077,417.086,103.72,418.576Z" transform="translate(-48.058 -161.56)" fill="#91b31e"/>
  <path id="Path_10268" data-name="Path 10268" d="M103.911,366.073s2.019,13.513,2.1,17.051-2.1,19.907-2.1,19.907H99.647s.416-7.976.416-9.225-.416-12.138-.416-12.138l.416-15.16S102.556,364.977,103.911,366.073Z" transform="translate(-48.058 -145.783)" fill="#0e1a34"/>
  <path id="Path_10269" data-name="Path 10269" d="M89.207,366.593s-1.334,3.466-.918,10.61a83.259,83.259,0,0,0,.758,8.809s-4.782,18.59-5.406,20.809a10.173,10.173,0,0,0,4.648,1.734s5.063-12.485,6.867-16.924a27.972,27.972,0,0,0,2.34-11.445c.018-3.884.434-14.358.434-14.358Z" transform="translate(-43.22 -145.829)" fill="#0e1a34"/>
  <path id="Path_10270" data-name="Path 10270" d="M100.826,394.824l-.375-.114a52.079,52.079,0,0,0,2.03-15.11l.392,0A52.455,52.455,0,0,1,100.826,394.824Z" transform="translate(-48.301 -149.992)" fill="#fff"/>
  <path id="Path_10271" data-name="Path 10271" d="M104.21,358.574s-8.789-1.518-11.973-3.281-2.792-3.33-2.351-4.456S91.7,347.31,91.7,347.31l3.115,2.229-.079.694-.532,1.213s1.017.645,2.55,1.5,7.778,3.715,7.778,3.715S106.049,357.909,104.21,358.574Z" transform="translate(-45.019 -140.232)" fill="#ff9a5c"/>
  <path id="Path_10272" data-name="Path 10272" d="M109.932,362.572a5.643,5.643,0,0,0,1.654,1.188c.068.594.412.845.6.823s.2-.914.2-.914c.171.411.845.822.936.571a1.49,1.49,0,0,0,0-.662s.274.365.48.365.456-.182.365-.639a4.407,4.407,0,0,0-.639-1.508c-.274-.365-.434-.731-1.028-.868a9.829,9.829,0,0,0-1.485-.114,13.024,13.024,0,0,0-1.713,0Z" transform="translate(-50.977 -144.304)" fill="#ff9a5c"/>
  <path id="Path_10273" data-name="Path 10273" d="M93.72,322.648s-1.169-2.546-4.472-1.582-2.27,4.059-4.4,5.367-5.3,1.995-6.123,5.641,1.72,3.922,0,6.124-2.34,3.784-.482,6.054,5.129,1.583,7.175.482,10.989-5.3,10.989-5.3a3.325,3.325,0,0,0,0-4.542c-2.074-2.343-1.513-5.917-1.513-5.917s.756-.137,1.032-2.2S95.539,322.024,93.72,322.648Z" transform="translate(-41.245 -132.233)" fill="#753519"/>
  <path id="Path_10274" data-name="Path 10274" d="M332.024,75.319l1.152-.834a35.278,35.278,0,0,0,10.421,8.09c6.468,3.261,8.687,4.5,9.275,4.612s3.368.587,4.33,1.817,1.069,1.925.855,1.978-1.282-1.5-1.282-1.5,1.07,1.379.962,1.894-.708-.365-.922-.579-.751-.837-.751-.837a8.48,8.48,0,0,1,1.179,1.93c.043.451-.708-.128-1.287-.772s-1.222-.944-1.372-.751-.214.987-.45.837-.279-.751-.387-1.18c-.381-.008-2.125-.636-5.263-1.264s-15.691-6.137-18.551-9.694S332.024,75.319,332.024,75.319Z" transform="translate(-117.398 -57.766)" fill="#ff9a5c"/>
  <g id="Group_5790" data-name="Group 5790" transform="translate(262.327 119.942)">
    <path id="Path_10275" data-name="Path 10275" d="M433.5,248.843h0a8.245,8.245,0,0,0,1.986-4.227,7.559,7.559,0,0,0-1-4.425l.918.978c.543.593,1.3,1.353,2,2.164l2.665,3.363a9.644,9.644,0,0,0-2.143,4.281,7.948,7.948,0,0,0,.35,4.547h0a7.893,7.893,0,0,0,2.429-3.9,7.332,7.332,0,0,0,.2-2.249,6.264,6.264,0,0,0-.552-2.321l.464.586c.264.362.582.869.915,1.365L443.045,251a9.016,9.016,0,0,0,.358,2.416,8.23,8.23,0,0,0,.819,2.165,8.555,8.555,0,0,0,3.469,3.286h0a8.33,8.33,0,0,0-.9-4.737,7.436,7.436,0,0,0-1.421-1.9,9.08,9.08,0,0,0-2.134-1.35l-.825-1.247-.846-1.28-.477-.721-.552-.7-2.974-3.754a8.937,8.937,0,0,0,9.039,1.051h0a8.6,8.6,0,0,0-4.606-2.321,7.387,7.387,0,0,0-4.729.923l-2.947-3.137a27.223,27.223,0,0,0-2.138-2.044l-1-.9a9.424,9.424,0,0,0,2.268.845,11.994,11.994,0,0,0,2.3.267,8.885,8.885,0,0,0,4.541-1.275h0a10.182,10.182,0,0,0-2.381-1.317,6.921,6.921,0,0,0-2.471-.419,7.626,7.626,0,0,0-4.6,1.592l-1-.9-2.341-1.811a29.531,29.531,0,0,0-2.388-1.746l-1.124-.739a9.518,9.518,0,0,0,2.378.495,8.736,8.736,0,0,0,2.291-.023,9.122,9.122,0,0,0,4.348-1.926h0a8.475,8.475,0,0,0-5.062-1.045,7.684,7.684,0,0,0-4.336,2.25l-1.124-.74c-.678-.438-1.635-.934-2.568-1.471L418.538,228l-1.244-.6-1.214-.581a10.128,10.128,0,0,0,4.689-.211,9.131,9.131,0,0,0,4.026-2.532h0a10.4,10.4,0,0,0-2.693-.562,7.943,7.943,0,0,0-1.264.014,7.821,7.821,0,0,0-1.22.258,7.566,7.566,0,0,0-3.95,2.836l-.567-.271-1.536-.624c-1.259-.547-2.988-1.146-4.728-1.709-1.753-.523-3.525-.983-4.875-1.236-1.344-.278-2.263-.367-2.263-.367l-.021.223s.636.068,1.586.239,2.207.451,3.455.768c1.238.354,2.481.693,3.388,1.031l1.523.521a9.708,9.708,0,0,0,.474,4.781,8.758,8.758,0,0,0,2.639,3.634h0a7.928,7.928,0,0,0,.048-4.611,7.1,7.1,0,0,0-2.737-3.645l1.242.5c.742.308,1.749.681,2.706,1.169.964.469,1.942.912,2.653,1.287l1.169.656a9.3,9.3,0,0,0-.222,4.763,8.133,8.133,0,0,0,2.082,4h0a7.835,7.835,0,0,0,.708-4.535,7.276,7.276,0,0,0-.7-2.148,7.961,7.961,0,0,0-1.467-1.857l1.169.657c.719.366,1.59,1,2.492,1.574a38.5,38.5,0,0,1,3.5,2.477,9.255,9.255,0,0,0-.906,4.681,8.527,8.527,0,0,0,1.486,4.276h0a7.943,7.943,0,0,0,1.357-4.407,6.884,6.884,0,0,0-.387-2.229,8.314,8.314,0,0,0-1.189-2.044l1.062.818a26.748,26.748,0,0,1,2.241,1.914l2.189,1.977a9.208,9.208,0,0,1,.682.691l.253.269a9.437,9.437,0,0,0-1.582,4.543,7.544,7.544,0,0,0,.184,2.219A9.762,9.762,0,0,0,433.5,248.843Z" transform="translate(-401.679 -222.425)" fill="#bce13e"/>
  </g>
  <g id="Group_5791" data-name="Group 5791" transform="translate(32.698 35.133)">
    <path id="Path_10276" data-name="Path 10276" d="M88.955,114.112h0a9.769,9.769,0,0,0-2.783,4.782,8.879,8.879,0,0,0,.5,5.446l-.941-1.292c-.578-.765-1.3-1.82-2.007-2.886l-1.962-2.917c-.274-.394-.481-.735-.625-.975l-.229-.375a10.689,10.689,0,0,0,2.94-4.924,9.133,9.133,0,0,0,.283-2.7,10.455,10.455,0,0,0-.407-2.809h0a9.806,9.806,0,0,0-3.207,4.527,9.2,9.2,0,0,0,.107,5.447s-.742-1.215-1.486-2.43c-.366-.61-.754-1.209-1.011-1.677l-.425-.781a10.308,10.308,0,0,0-1.123-5.525,10.1,10.1,0,0,0-3.875-4.144h0a10,10,0,0,0,.735,5.714,9.6,9.6,0,0,0,4.031,4.086l.234.431c.146.276.359.666.645,1.118l2.044,3.343c.721,1.229,1.532,2.4,2.129,3.288l.994,1.477a10.718,10.718,0,0,0-4.958-2.514,10.386,10.386,0,0,0-5.585.412h0a11.683,11.683,0,0,0,2.4,2.032,8.953,8.953,0,0,0,2.7,1.081,9.494,9.494,0,0,0,5.742-.56l.9,1.326,2.073,2.847c1.48,2.09,3.083,4.089,3.083,4.089a10.916,10.916,0,0,0-2.478-1.451,9.509,9.509,0,0,0-2.612-.741,10.415,10.415,0,0,0-5.548.838h0a10.1,10.1,0,0,0,5.267,2.72,9.684,9.684,0,0,0,5.705-.938l.983,1.263c.579.766,1.4,1.75,2.214,2.737l2.241,2.715,1.048,1.209a10.03,10.03,0,0,0-10.682-.758h0a10.286,10.286,0,0,0,5.4,2.393,9.652,9.652,0,0,0,5.641-1.225l1.048,1.208c.624.731,1.469,1.692,2.336,2.634l2.366,2.607,1.1,1.165a9.99,9.99,0,0,0-10.691-.266h0a9.438,9.438,0,0,0,11.063.661l1.867,1.975c1.143,1.164,2.645,2.737,4.2,4.26,1.536,1.539,3.108,3.044,4.3,4.161s2,1.846,2,1.846l.178-.2s-2.277-2.06-4.471-4.212c-1.107-1.064-2.184-2.16-3.005-2.968l-1.345-1.371a10.259,10.259,0,0,0,1.782-5.446,9.943,9.943,0,0,0-1.494-5.45h0a9.26,9.26,0,0,0-.666,10.508s-1.792-1.825-3.534-3.7c-.883-.924-1.746-1.869-2.386-2.583l-1.073-1.185a9.875,9.875,0,0,0,.762-10.863h0a9.238,9.238,0,0,0-1.125,10.462l-1.068-1.19-2.3-2.657c-.847-.958-1.661-1.944-2.268-2.686l-1.017-1.234a10.365,10.365,0,0,0,2.259-5.257,9.774,9.774,0,0,0-.961-5.532h0a9.768,9.768,0,0,0-2.453,4.952,9.135,9.135,0,0,0,.81,5.42l-1.017-1.233-2.164-2.772c-1.6-2-3.078-4.083-3.078-4.083a10.383,10.383,0,0,0,2.554-5.116A10.216,10.216,0,0,0,88.955,114.112Z" transform="translate(-72.572 -100.875)" fill="#91b31e"/>
  </g>
  <path id="Path_10277" data-name="Path 10277" d="M282.028,84.1a4.077,4.077,0,0,1-.991-.8,2.749,2.749,0,0,0-.615-.814,2.17,2.17,0,0,0-.973-.418,4.479,4.479,0,0,0,.793,1.6.394.394,0,0,0,.546-.056,5.3,5.3,0,0,0,.745,1.259S282.673,84.483,282.028,84.1Z" transform="translate(-102.406 -60.058)" fill="#ff9a5c"/>
  <ellipse id="Ellipse_123" data-name="Ellipse 123" cx="99.736" cy="99.736" rx="99.736" ry="99.736" transform="translate(59.122 56.625)" fill="#1a6652"/>
  <path id="Path_10278" data-name="Path 10278" d="M230.242,302.512a89.163,89.163,0,0,1-44.129-166.634,99.746,99.746,0,1,0,119.92,124.44A89.092,89.092,0,0,1,230.242,302.512Z" transform="translate(-51.321 -76.323)" fill="#19614f"/>
  <path id="Path_10279" data-name="Path 10279" d="M295.112,84.992s-2.381,2.143-3.178,2.143-8.729-2.376-10.226-2.69S280.29,84.6,279.7,85s1.266,1.587,1.266,1.587,7.083,3.612,10.746,4.478,6.59-2.1,6.59-2.1A3.066,3.066,0,0,0,295.112,84.992Z" transform="translate(-102.447 -60.745)" fill="#ff9a5c"/>
  <path id="Path_10280" data-name="Path 10280" d="M260.954,88.231s5.57.608,9.416-.37c0,0,2.383,4,3.284,5.477l-.391,1.908a12.9,12.9,0,0,1-8.985,4.37S260.093,93.831,260.954,88.231Z" transform="translate(-96.781 -61.809)" fill="#108f6e"/>
  <g id="Group_5792" data-name="Group 5792" transform="translate(165.903 19.483)">
    <path id="Path_10281" data-name="Path 10281" d="M270.493,92.139a4.6,4.6,0,0,1-2.044-.484l.395-.725a3.66,3.66,0,0,0,2.912.127c1.3-.559,2.272-2.007,2.893-4.3.706-2.614.353-4.7-1.021-6.036a6.241,6.241,0,0,0-5.97-1.154c-3.721,1.123-3.343,6.349-3.339,6.4l-.823.068c0-.059-.44-5.944,3.923-7.259a7.037,7.037,0,0,1,6.783,1.352c1.118,1.086,2.24,3.154,1.243,6.844-.692,2.558-1.827,4.19-3.374,4.851A4,4,0,0,1,270.493,92.139Z" transform="translate(-263.483 -78.445)" fill="#108f6e"/>
  </g>
  <path id="Path_10282" data-name="Path 10282" d="M279.274,83.568s-.716-.276-1,.212c-.3.506.9.9,1.909.8S280.286,83.747,279.274,83.568Z" transform="translate(-102.037 -60.488)" fill="#ff9a5c"/>
  <path id="Path_10283" data-name="Path 10283" d="M279.147,84.6a1.366,1.366,0,0,0-1.189.192c-.483.414,1.068,1,2.252.893S280.332,84.79,279.147,84.6Z" transform="translate(-101.928 -60.805)" fill="#ff9a5c"/>
  <path id="Path_10284" data-name="Path 10284" d="M310.679,168.016a7.042,7.042,0,0,1-1.042,2.146,17.991,17.991,0,0,0-2.058,2.9c-.141.564.536,1.071,1.184.846a48.068,48.068,0,0,0,6.425-3.184c1.1-.845,1.409-1.155,1.38-1.352a34.087,34.087,0,0,0-1.754-3.136C314.426,165.654,311.5,165.672,310.679,168.016Z" transform="translate(-110.903 -85.403)" fill="#91b31e"/>
  <path id="Path_10285" data-name="Path 10285" d="M279.014,85.57a1.066,1.066,0,0,0-1.052.229c-.43.443.945,1.046,2,.932S280.515,85.646,279.014,85.57Z" transform="translate(-101.932 -61.101)" fill="#ff9a5c"/>
  <path id="Path_10286" data-name="Path 10286" d="M253.5,95.209s-15.342-3.464-15.908-3.468-2.476-.358-3.4.916a1.834,1.834,0,0,0,.99,1.2c.849.424,1.982-.418,1.982-.418L255.7,99.975A3.774,3.774,0,0,0,253.5,95.209Z" transform="translate(-88.727 -62.967)" fill="#108f6e"/>
  <path id="Path_10287" data-name="Path 10287" d="M235.62,94.491h0a1.384,1.384,0,0,1-.623-.14,2.025,2.025,0,0,1-1.1-1.343l-.035-.192.191-.036a3.391,3.391,0,0,1,.581-.043,4.01,4.01,0,0,1,2.552.869l.2.158-.2.151A3.034,3.034,0,0,1,235.62,94.491Zm-1.268-1.352a1.686,1.686,0,0,0,.821.86,1,1,0,0,0,.448.1,2.362,2.362,0,0,0,1.1-.354,3.678,3.678,0,0,0-2.086-.616C234.527,93.129,234.43,93.134,234.352,93.14Z" transform="translate(-88.628 -63.283)" fill="#108f6e"/>
  <path id="Path_10288" data-name="Path 10288" d="M365.316,386.011H337.673l4.664-5.374H369.98Z" transform="translate(-120.005 -150.305)" fill="#ffd200"/>
  <path id="Path_10289" data-name="Path 10289" d="M230.048,93.056s-10.885,10.873-9.435,23.867h13.175s-3.253-16.069-.768-23.083A3.719,3.719,0,0,0,230.048,93.056Z" transform="translate(-84.582 -63.366)" fill="#9ae5e5" opacity="0.79"/>
  <path id="Path_10290" data-name="Path 10290" d="M305.3,105.667s-10.645,8.417-11.862,11.327,4.8,9.135,4.8,9.135,5.684,20.234,7.647,23.617a24.8,24.8,0,0,0,4.8-1.827s-1.9-18.271-2.775-20.707c0,0,13.808-12.914,16.175-16.743S306.942,104.338,305.3,105.667Z" transform="translate(-106.585 -67.076)" fill="#0e1a34"/>
  <path id="Path_10291" data-name="Path 10291" d="M320.39,152.03a7.029,7.029,0,0,1,.031,2.386,17.983,17.983,0,0,0-.537,3.517.844.844,0,0,0,1.437.225,48.023,48.023,0,0,0,4.313-5.728c.6-1.248.741-1.664.627-1.828a34.1,34.1,0,0,0-2.975-2.015C322.679,148.237,320.069,149.569,320.39,152.03Z" transform="translate(-114.622 -80.147)" fill="#91b31e"/>
  <path id="Path_10292" data-name="Path 10292" d="M300.111,129.944c-.137-4.5,7.387-11.751,7.706-12.057l.271.283c-.078.074-7.718,7.434-7.586,11.762Z" transform="translate(-108.651 -70.884)" fill="#fff"/>
  <path id="Path_10293" data-name="Path 10293" d="M301.564,135.188l13.117,11.947a29.1,29.1,0,0,0,2.868-3.543s-4.779-9.311-6.757-11.206S301.564,135.188,301.564,135.188Z" transform="translate(-109.091 -75.131)" fill="#0e1a34"/>
  <path id="Path_10294" data-name="Path 10294" d="M356.581,377.611a7.041,7.041,0,0,1-1.854,1.5,18.052,18.052,0,0,0-3.092,1.758c-.366.451.031,1.2.714,1.267a48.072,48.072,0,0,0,7.168-.163c1.354-.3,1.766-.45,1.824-.64a34.223,34.223,0,0,0-.261-3.584C360.977,377.058,358.313,375.834,356.581,377.611Z" transform="translate(-124.183 -149.113)" fill="#91b31e"/>
  <g id="Group_5794" data-name="Group 5794" transform="translate(129.032 31.21)">
    <g id="Group_5793" data-name="Group 5793" transform="translate(4.614 5.054)">
      <path id="Path_10295" data-name="Path 10295" d="M226.4,122.137l-.8.023s-.008-.31-.079-.885-.194-1.387-.4-2.358a35.521,35.521,0,0,0-2.309-6.9,39.058,39.058,0,0,0-3.588-6.349c-.538-.84-1.075-1.477-1.422-1.943l-.557-.725.62-.5.567.738c.354.475.9,1.123,1.449,1.979a39.928,39.928,0,0,1,3.658,6.475,36.333,36.333,0,0,1,2.361,7.062c.207,1,.344,1.839.408,2.435S226.4,122.137,226.4,122.137Z" transform="translate(-217.252 -102.496)" fill="#108f6e"/>
    </g>
    <path id="Path_10296" data-name="Path 10296" d="M215.23,96.329c1.171,1.319,1.223,3.11.139,3.976a3.072,3.072,0,0,1-4.094-4.394C212.22,94.892,213.993,95.076,215.23,96.329Z" transform="translate(-210.639 -95.253)" fill="#fce300"/>
    <path id="Path_10297" data-name="Path 10297" d="M214.765,98.094a5.149,5.149,0,0,0-.724-.46,3.4,3.4,0,0,0-1.536-.384,3.394,3.394,0,0,0,.334,1.5,6.392,6.392,0,0,0,.347.758,4.379,4.379,0,0,0-2.5,1.179,5.308,5.308,0,0,0,3.684.965,4.443,4.443,0,0,0,1.608-.465,3.914,3.914,0,0,0,.82-1.492,5.023,5.023,0,0,0-.677-4.076A4.727,4.727,0,0,0,214.765,98.094Z" transform="translate(-210.653 -95.365)" fill="#108f6e"/>
  </g>
  <path id="Path_10298" data-name="Path 10298" d="M379.454,361.359a7.037,7.037,0,0,1-.326,2.363,18.027,18.027,0,0,0-1.056,3.4.844.844,0,0,0,1.387.437,48.075,48.075,0,0,0,5.121-5.019c.783-1.144.982-1.535.894-1.714a34.229,34.229,0,0,0-2.64-2.438C382.286,357.952,379.505,358.878,379.454,361.359Z" transform="translate(-132.216 -143.548)" fill="#91b31e"/>
  <g id="Group_5795" data-name="Group 5795" transform="translate(121.097 41.48)">
    <path id="Path_10299" data-name="Path 10299" d="M199.267,110.212a19.308,19.308,0,0,0,7.581,13.4c7.271,5.6,14.11,3.313,14.11,3.313s.471-7.2-6.8-12.8A19.306,19.306,0,0,0,199.267,110.212Z" transform="translate(-199.267 -109.973)" fill="#91b31e"/>
    <rect id="Rectangle_774" data-name="Rectangle 774" width="0.393" height="23.539" transform="translate(2.926 2.742) rotate(-52.384)" fill="#fff"/>
    <rect id="Rectangle_775" data-name="Rectangle 775" width="4.41" height="0.392" transform="matrix(1, -0.031, 0.031, 1, 5.333, 7.693)" fill="#fff"/>
    <rect id="Rectangle_776" data-name="Rectangle 776" width="0.392" height="4.41" transform="translate(7.219 2.456) rotate(-12.947)" fill="#fff"/>
    <rect id="Rectangle_777" data-name="Rectangle 777" width="4.41" height="0.392" transform="translate(10.13 11.39) rotate(-1.794)" fill="#fff"/>
    <rect id="Rectangle_778" data-name="Rectangle 778" width="0.392" height="4.41" transform="translate(12.017 6.153) rotate(-12.942)" fill="#fff"/>
    <rect id="Rectangle_779" data-name="Rectangle 779" width="4.41" height="0.392" transform="translate(14.928 15.086) rotate(-1.784)" fill="#fff"/>
    <rect id="Rectangle_780" data-name="Rectangle 780" width="0.392" height="4.41" transform="matrix(0.975, -0.224, 0.224, 0.975, 16.814, 9.849)" fill="#fff"/>
  </g>
  <path id="Path_10300" data-name="Path 10300" d="M241.564,110.07a15.377,15.377,0,0,0-10.673,6.038c-4.463,5.791-2.639,11.238-2.639,11.238s5.732.375,10.195-5.416A15.381,15.381,0,0,0,241.564,110.07Z" transform="translate(-86.82 -68.522)" fill="#bce13e"/>
  <g id="Group_5798" data-name="Group 5798" transform="translate(64.441 1.545)">
    <g id="Group_5796" data-name="Group 5796">
      <path id="Path_10301" data-name="Path 10301" d="M160.765,106.274l4.106-6.591A72.851,72.851,0,0,0,157.651,81.3a58.585,58.585,0,0,0-9.911-12.917l-5.544,3.9s.729-1.58,1.509-3.146l1.55-3.112A74.252,74.252,0,0,0,132.6,56.976c-2-1.1-3.759-2.028-5.391-2.744a25.568,25.568,0,0,0-4.169-1.495,23.4,23.4,0,0,0-2.968,6.281,35.084,35.084,0,0,0-1.187,4.729,46.536,46.536,0,0,0-.715,5.609l3.466,1.4,3.443,1.346-3.5.135-3.512.1A53.542,53.542,0,0,0,125.5,99.9a55.436,55.436,0,0,0,3.138,4.772c1.089,1.5,2.2,2.91,3.348,4.216l4.892-.3,4.876-.336-6.144,4.484a64.5,64.5,0,0,0,13.713,10.234c1.863,1.037,3.413,1.763,4.5,2.242s1.719.71,1.719.71l5.749-3.983,5.749-3.983s.035-.362.037-1.078-.008-1.747-.079-3.062a76.088,76.088,0,0,0-1.361-10.676Z" transform="translate(-118.066 -52.737)" fill="#91b31e"/>
    </g>
    <g id="Group_5797" data-name="Group 5797" transform="translate(9.735 11.576)">
      <path id="Path_10302" data-name="Path 10302" d="M167.3,125.718c-2.168-3.173-7.508-11.027-14.043-21.187-6.553-10.16-14.322-22.616-21.236-35.2A256.877,256.877,0,0,0,150.1,106.46c6.1,10.544,11.407,18.475,13.633,21.728l1.783-1.235Z" transform="translate(-132.018 -69.328)" fill="#fff"/>
    </g>
  </g>
  <g id="Group_5801" data-name="Group 5801" transform="translate(96.778 19.895)">
    <g id="Group_5799" data-name="Group 5799">
      <path id="Path_10303" data-name="Path 10303" d="M182.879,120.87l4.294-2.581a46.76,46.76,0,0,0,1.233-12.715A37.821,37.821,0,0,0,186.452,95.2l-4.329.646,1.783-1.384,1.788-1.359a46.055,46.055,0,0,0-4.741-8.915,25.407,25.407,0,0,0-4.373-5.153c-1.836.987-4.913,3.794-7.5,8.235l1.608,1.787,1.608,1.754-2.061-.919-2.061-.941a34.749,34.749,0,0,0-3.691,17.941,39.853,39.853,0,0,0,1.1,7.04l5.8,2.491-4.844.772a41.981,41.981,0,0,0,4.862,9.888c.763,1.142,1.439,2.015,1.922,2.609s.777.912.777.912l4.472-.587,4.472-.587a24.415,24.415,0,0,0,1.2-2.391,48.726,48.726,0,0,0,2.361-6.536Z" transform="translate(-164.413 -79.036)" fill="#bce13e"/>
    </g>
    <g id="Group_5800" data-name="Group 5800" transform="translate(11.01 8.06)">
      <path id="Path_10304" data-name="Path 10304" d="M184.727,133.329c-.31-2.46-1.052-8.541-1.832-16.3s-1.615-17.194-2.029-26.446a181.192,181.192,0,0,0-.349,26.63c.415,7.841,1.118,13.955,1.437,16.476l1.387-.182Z" transform="translate(-180.192 -90.587)" fill="#fff"/>
    </g>
  </g>
  <path id="Path_10305" data-name="Path 10305" d="M365.108,165.905s6.605-18.355,5.779-36.148,4.4-31.154,12.935-30.116,15.962,33.238-16.513,68.19Z" transform="translate(-128.298 -65.352)" fill="#bce13e"/>
  <path id="Path_10306" data-name="Path 10306" d="M368.909,175.985l-.664-.417c.12-.191,11.991-19.32,12.45-40.422l.784.017C381.015,156.487,369.031,175.792,368.909,175.985Z" transform="translate(-129.246 -76.101)" fill="#fff"/>
  <path id="Path_10307" data-name="Path 10307" d="M366.588,188.044s11.842-6.174,23.989-7.254,20.729-5.86,19.237-11.552-24.02-7.764-44.736,17.49Z" transform="translate(-128.289 -85.308)" fill="#91b31e"/>
  <path id="Path_10308" data-name="Path 10308" d="M367.9,190.032l-.5-.6c.119-.1,12.137-10.031,26.593-12.318l.122.774C379.881,180.138,368.023,189.934,367.9,190.032Z" transform="translate(-128.992 -88.786)" fill="#fff"/>
  <g id="Group_5802" data-name="Group 5802" transform="translate(251.796 99.045)">
    <path id="Path_10309" data-name="Path 10309" d="M426.7,193.105a88.314,88.314,0,0,0-12.565-.587,41.105,41.105,0,0,0-15.4,3.5,19.876,19.876,0,0,0-10.061,10.58,26.927,26.927,0,0,0-2.023,7.045,22.071,22.071,0,0,0,6.523,3.488,19.216,19.216,0,0,0,15.3-.95,35,35,0,0,0,12.78-11.266A39.337,39.337,0,0,0,426.7,193.105Z" transform="translate(-386.605 -192.475)" fill="#bce13e"/>
    <path id="Path_10310" data-name="Path 10310" d="M386.675,215.753l-.089-.226s2.175-.869,5.4-2.264,7.5-3.316,11.719-5.359,8.376-4.207,11.447-5.914c1.542-.842,2.807-1.58,3.69-2.1l1.391-.811.125.209-1.393.813c-.884.521-2.15,1.26-3.7,2.1-3.075,1.709-7.233,3.883-11.458,5.92s-8.5,3.969-11.728,5.364S386.675,215.753,386.675,215.753Z" transform="translate(-386.586 -194.471)" fill="#fff"/>
    <path id="Path_10311" data-name="Path 10311" d="M420.019,204.541a5.8,5.8,0,0,1,.056-1.841,14.3,14.3,0,0,1,1.792-4.772l.207.123a14.1,14.1,0,0,0-1.751,4.684,7.5,7.5,0,0,0-.1,1.3,3.283,3.283,0,0,0,.034.464Z" transform="translate(-396.678 -194.124)" fill="#fff"/>
    <path id="Path_10312" data-name="Path 10312" d="M411.341,211.8l.179-.165a3.776,3.776,0,0,0,.419.364,8.319,8.319,0,0,0,1.316.814,15,15,0,0,0,5.885,1.46l-.02.244a15.249,15.249,0,0,1-5.982-1.478A6.485,6.485,0,0,1,411.341,211.8Z" transform="translate(-394.069 -198.266)" fill="#fff"/>
    <path id="Path_10313" data-name="Path 10313" d="M395.175,219.218l.187-.156a4.329,4.329,0,0,0,.463.437,9.525,9.525,0,0,0,1.47,1,17.314,17.314,0,0,0,6.668,1.954l-.03.244a17.572,17.572,0,0,1-6.761-1.971A7.393,7.393,0,0,1,395.175,219.218Z" transform="translate(-389.182 -200.511)" fill="#fff"/>
    <path id="Path_10314" data-name="Path 10314" d="M402.093,211.892a8.632,8.632,0,0,1,.22-2.732,21.708,21.708,0,0,1,3.013-6.965l.2.133a21.447,21.447,0,0,0-2.965,6.895,11.176,11.176,0,0,0-.245,1.936,5.063,5.063,0,0,0,.018.7Z" transform="translate(-391.264 -195.413)" fill="#fff"/>
    <path id="Path_10315" data-name="Path 10315" d="M426.079,204.235l.172-.174a3.919,3.919,0,0,0,1.053.641,9.162,9.162,0,0,0,3.5.708l-.008.246a9.443,9.443,0,0,1-3.605-.731A3.909,3.909,0,0,1,426.079,204.235Z" transform="translate(-398.523 -195.977)" fill="#fff"/>
  </g>
  <g id="Group_5803" data-name="Group 5803" transform="translate(251.683 120.507)">
    <path id="Path_10316" data-name="Path 10316" d="M416.435,247.584c-1.3-5.694-3.91-14.373-11.916-20.854s-17.937-1.966-17.937-1.966-1.783,10.744,6.64,16.821S410.667,247.873,416.435,247.584Z" transform="translate(-386.424 -223.235)" fill="#91b31e"/>
    <path id="Path_10317" data-name="Path 10317" d="M386.561,225.472l.124-.161,24.834,18.983-.122.162Z" transform="translate(-386.466 -223.863)" fill="#fff"/>
    <path id="Path_10318" data-name="Path 10318" d="M411.033,243.6a4.652,4.652,0,0,1,1.405-.612,11.287,11.287,0,0,1,4.264-.272l-.021.2a11.072,11.072,0,0,0-4.181.271,5.932,5.932,0,0,0-1.01.382,2.7,2.7,0,0,0-.337.192Z" transform="translate(-393.862 -229.098)" fill="#fff"/>
    <path id="Path_10319" data-name="Path 10319" d="M404.4,239.131l.19.073a3.241,3.241,0,0,0-.114.45,7.164,7.164,0,0,0-.117,1.286,13.328,13.328,0,0,0,1.024,4.918l-.188.074a13.531,13.531,0,0,1-1.047-4.994A5.576,5.576,0,0,1,404.4,239.131Z" transform="translate(-391.782 -228.04)" fill="#fff"/>
    <path id="Path_10320" data-name="Path 10320" d="M392.607,230.129l.189.073a3.617,3.617,0,0,0-.132.514,8.086,8.086,0,0,0-.138,1.472,15.18,15.18,0,0,0,1.164,5.631l-.189.074a15.392,15.392,0,0,1-1.188-5.7A6.286,6.286,0,0,1,392.607,230.129Z" transform="translate(-388.204 -225.319)" fill="#fff"/>
    <path id="Path_10321" data-name="Path 10321" d="M397.837,233.31a6.948,6.948,0,0,1,2.1-.9,16.957,16.957,0,0,1,6.366-.4l-.022.2a16.745,16.745,0,0,0-6.293.4,9.049,9.049,0,0,0-1.521.571,3.955,3.955,0,0,0-.508.289Z" transform="translate(-389.874 -225.851)" fill="#fff"/>
    <path id="Path_10322" data-name="Path 10322" d="M415.414,247.514l.189.073a3.35,3.35,0,0,0-.132,1.024,7.9,7.9,0,0,0,.608,2.9l-.188.074a8.111,8.111,0,0,1-.628-2.986A3.359,3.359,0,0,1,415.414,247.514Z" transform="translate(-395.141 -230.574)" fill="#fff"/>
  </g>
  <path id="Path_10323" data-name="Path 10323" d="M92.9,339.168s-.282-.4-1.89.324-5.334,5.63-6.435,8.254a27.079,27.079,0,0,0,3.725,2.836,19.188,19.188,0,0,1,2.146-1.566,45.773,45.773,0,0,1-.538,7.619,45.03,45.03,0,0,1-1.171,4.572,20.174,20.174,0,0,0,11.458,1.059s.085-6.815.3-9.44,1.439-5.546.762-8-3.572-3.373-5.913-5.772Z" transform="translate(-43.503 -137.736)" fill="#ffd200"/>
  <path id="Path_10324" data-name="Path 10324" d="M99.7,328.493a6.8,6.8,0,0,0-1.254-3.42c-1.14-1.425-3.648-.912-4.674,1.254a7.375,7.375,0,0,0-.817,3.216.761.761,0,0,0-.986.029c-.764.52.393,2.357,1.558,2.039a4.033,4.033,0,0,0,.986,1.185,3.5,3.5,0,0,0,.3,1.878c1.083,1.31,2.356,2.605,3.211,2.035s-.171-1.368-.456-1.823a.477.477,0,0,1,.077-.694C100.214,333.851,99.7,328.493,99.7,328.493Z" transform="translate(-45.663 -133.268)" fill="#ff9a5c"/>
  <path id="Path_10325" data-name="Path 10325" d="M98.186,325.9s-.666,2.5-2.153,3.048a3.034,3.034,0,0,0,.544-.719s-1.9,1.778-2.963,1.608c0,0-.677-.3-.889-2.667s2.286-3.725,2.286-3.725h2.836l1.99,2.286.205,1.609A2.139,2.139,0,0,1,98.186,325.9Z" transform="translate(-45.962 -133.019)" fill="#753519"/>
  <path id="Path_10326" data-name="Path 10326" d="M97.165,362.652s-8.79-1.518-11.973-3.281-2.792-3.33-2.351-4.456,1.812-3.526,1.812-3.526l3.114,2.229-.078.694-.532,1.213s1.017.645,2.55,1.5,7.778,3.715,7.778,3.715S99,361.987,97.165,362.652Z" transform="translate(-42.889 -141.464)" fill="#ff9a5c"/>
  <g id="Group_5804" data-name="Group 5804" transform="translate(55.777 219.836)">
    <path id="Path_10327" data-name="Path 10327" d="M119.352,383.012l-1.779-9.666a2.308,2.308,0,0,0-1.319-1.685l-10.6-4.787.577-1.279,10.6,4.787a3.71,3.71,0,0,1,2.122,2.71l1.779,9.665Z" transform="translate(-105.649 -365.595)" fill="#108f6e"/>
  </g>
  <path id="Path_10328" data-name="Path 10328" d="M132,381.619a12.119,12.119,0,0,1,3.236-1.624c1.078-.154,1.386,1.008,2.157.812a3.407,3.407,0,0,0,1.387-.826l1.541.819s.154-.428,1.233,0,.462-.035,1.079.428a2.6,2.6,0,0,0,1.541.391,3.084,3.084,0,0,1,1.541,0c.77.225,1.921-.376,3.7,0s3.39-.379,4.314,0,1.387,1.723,2.157,1.359a13.917,13.917,0,0,0,2-1.359l1.232,2.157s.463-.995,1.079,0a5.167,5.167,0,0,0,2,1.611,3.064,3.064,0,0,1,.77.945,11.97,11.97,0,0,1,.834,2.825v.924l-23.176-.924-9.708-5.381Z" transform="translate(-57.512 -150.107)" fill="#753519"/>
  <g id="Group_5805" data-name="Group 5805" transform="translate(59.13 216.482)">
    <path id="Path_10329" data-name="Path 10329" d="M124.158,378.206l-1.779-9.666a2.3,2.3,0,0,0-1.318-1.684l-10.606-4.788.577-1.279,10.606,4.788a3.71,3.71,0,0,1,2.122,2.708l1.779,9.667Z" transform="translate(-110.455 -360.788)" fill="#108f6e"/>
  </g>
  <path id="Path_10330" data-name="Path 10330" d="M126.351,382.329s-1.961,6.089-2.477,7.121,1.238,4.747,1.238,4.747l18.474,9.082,18.061-12.487Z" transform="translate(-55.352 -150.817)" fill="#108f6e"/>
  <path id="Path_10331" data-name="Path 10331" d="M121.429,415.143a2.479,2.479,0,0,1-1.4-.369c-.933-.61-1.264-1.908-1.072-4.207.376-4.513,3.511-17.041,3.644-17.572l.761.191c-.032.129-3.253,13-3.624,17.445-.163,1.951.067,3.059.72,3.486.984.643,3.279-.022,7.014-2.038,7.016-3.787,12.252-7.24,12.3-7.275l.433.654c-.052.035-5.317,3.506-12.365,7.311C124.869,414.377,122.827,415.143,121.429,415.143Z" transform="translate(-53.88 -154.041)" fill="#108f6e"/>
  <path id="Path_10332" data-name="Path 10332" d="M177.566,400.259a5.165,5.165,0,0,0-1.169,2c-.063.771,1.169,0,1.169,0s.616.839,1.233.343,0-1.094,0-1.094l.274-1.252Z" transform="translate(-71.256 -156.236)" fill="#753519"/>
  <g id="Group_5807" data-name="Group 5807" transform="translate(134.001 220.664)">
    <g id="Group_5806" data-name="Group 5806" transform="translate(7.03 9.951)">
      <path id="Path_10333" data-name="Path 10333" d="M246.187,412.014l-1.047.81-.927-1.246c-.576-.8-1.4-1.934-2.335-3.33-1.891-2.781-4.293-6.57-6.478-10.487s-4.153-7.954-5.5-11.042l-1.539-3.771-.522-1.455,1.245-.451s.186.521.514,1.432l1.518,3.719c1.331,3.048,3.264,7.047,5.442,10.92s4.545,7.636,6.418,10.391c.929,1.382,1.74,2.508,2.309,3.293Z" transform="translate(-227.837 -381.043)" fill="#108f6e"/>
    </g>
    <path id="Path_10334" data-name="Path 10334" d="M228.464,370.562a5.452,5.452,0,0,1-.183,3.577,3.971,3.971,0,0,1-2.317,2.321,3.769,3.769,0,0,1-3.3-.437,5.552,5.552,0,0,1-2.261-3.18,6.591,6.591,0,0,1-.221-1.043,6.152,6.152,0,0,1,0-1.033,5.358,5.358,0,0,1,.49-1.84,3.61,3.61,0,0,1,2.555-2.074,4.171,4.171,0,0,1,3.223.776,4.948,4.948,0,0,1,1.215,1.254,5.207,5.207,0,0,1,.437.793A5.286,5.286,0,0,1,228.464,370.562Z" transform="translate(-218.488 -366.782)" fill="#fce300"/>
    <path id="Path_10335" data-name="Path 10335" d="M225.808,373.805a9.309,9.309,0,0,0-.759-1.153,8.6,8.6,0,0,0-.854-.959,4.271,4.271,0,0,0-1.031-.8,4.235,4.235,0,0,0-.556,1.225,7.132,7.132,0,0,0-.19,1.284,9.679,9.679,0,0,0,.012,1.434,7.869,7.869,0,0,0-3.259-.452,6.2,6.2,0,0,0-1.409.246,8.118,8.118,0,0,0,5.22,4.474,6.387,6.387,0,0,0,2.8.131,7.545,7.545,0,0,0,2.079-1.9,9.185,9.185,0,0,0,1.8-6.074,6.819,6.819,0,0,0-1.331.511A7.158,7.158,0,0,0,225.808,373.805Z" transform="translate(-217.761 -368.024)" fill="#108f6e"/>
  </g>
  <path id="Path_10336" data-name="Path 10336" d="M182.591,403.846s-.925,1.812-.77,2.274.77,0,.77,0,.924.411,1.387.206a5.412,5.412,0,0,0,1.233-1.211h-1.7Z" transform="translate(-72.891 -157.321)" fill="#753519"/>
  <path id="Path_10337" data-name="Path 10337" d="M185.73,417.891s-3.87-.414-3.861,0,0,1.594,0,1.594a1.071,1.071,0,0,0-1.7,0,5.119,5.119,0,0,0-1.1,2.517,1.6,1.6,0,0,1-1.339,1.077,1.592,1.592,0,0,0-1.338,1.08,25.3,25.3,0,0,0,3.772.924,12.669,12.669,0,0,0,2.637,0,12.073,12.073,0,0,1,2.928.068c1.387.24,2.928.548,4.314.7s3.852-1.079,3.852-1.079a43.5,43.5,0,0,1,6.01.154,7.274,7.274,0,0,0,3.544-.462l.617-1.389a3.824,3.824,0,0,1-2-1.292c-.77-1.018-1.695-3.694-2.312-3.9a13.941,13.941,0,0,1-2.311-1.6,12.254,12.254,0,0,1-1.7-3.881c-.153-1.5-2.157-2.466-2.157-2.466a2.736,2.736,0,0,0-1.541,1.531,1.561,1.561,0,0,1-1.817.936s-.8.133-1.264,1.473a14.576,14.576,0,0,0-.617,2.409s-1.849-.626-2.773,0S185.73,417.891,185.73,417.891Z" transform="translate(-71.256 -159.164)" fill="#753519"/>
  <rect id="Rectangle_781" data-name="Rectangle 781" width="1.568" height="6.435" transform="matrix(0.843, -0.538, 0.538, 0.843, 87.461, 252.244)" fill="#108f6e"/>
  <g id="Group_5808" data-name="Group 5808" transform="translate(231.226 235.409)">
    <rect id="Rectangle_782" data-name="Rectangle 782" width="28.782" height="1.652" transform="translate(0 26.861) rotate(-68.947)" fill="#91b31e"/>
  </g>
  <g id="Group_5809" data-name="Group 5809" transform="translate(241.566 235.409)">
    <rect id="Rectangle_783" data-name="Rectangle 783" width="1.652" height="28.782" transform="translate(0 0.593) rotate(-21.054)" fill="#91b31e"/>
  </g>
  <g id="Group_5810" data-name="Group 5810" transform="translate(238.026 246.079)">
    <rect id="Rectangle_784" data-name="Rectangle 784" width="8.934" height="1.651" fill="#91b31e"/>
  </g>
  <g id="Group_5811" data-name="Group 5811" transform="translate(235.972 251.983)">
    <rect id="Rectangle_785" data-name="Rectangle 785" width="12.949" height="1.651" fill="#91b31e"/>
  </g>
  <path id="Path_10338" data-name="Path 10338" d="M356.937,265.976a13.086,13.086,0,0,0-2.923,4.439,3.664,3.664,0,0,0,2.49,4.926,21.4,21.4,0,0,1,.433,3.3,9.017,9.017,0,0,0,2.49.325,6.778,6.778,0,0,0,1.624-.433V275.07a9.024,9.024,0,0,0,2.111-2.815c.487-1.353.92-4.655-.65-6.279S357.8,265.018,356.937,265.976Z" transform="translate(-124.873 -115.35)" fill="#ff9a5c"/>
  <path id="Path_10339" data-name="Path 10339" d="M322.355,251.329s-.058.243-1.306.629-2.139.03-2.5,1.04.357,2.971-.416,3.387a3.514,3.514,0,0,0-1.01.713s1.959,2.5,2.614,3.565a3.851,3.851,0,0,0,1.19-1.961c.3-1.248,2.327-.648,2.793-1.07a9.323,9.323,0,0,0,.961-1.07S324.018,252.216,322.355,251.329Z" transform="translate(-113.795 -111.22)" fill="#91b31e"/>
  <path id="Path_10340" data-name="Path 10340" d="M361.3,267.134s-2.178-1.52-2.684-2.937.1-2.727,1.342-2.579a11.963,11.963,0,0,1,1.9.35s1.156-1.469,3.161.405a5.882,5.882,0,0,1,1.752,4.507,2.2,2.2,0,0,1,1.519,3.089,6.013,6.013,0,0,1-3.271,3.153s-.324,1.543-1.185,1.626a5.514,5.514,0,0,0-1.375.287l.159-2.888a1.513,1.513,0,0,0,1.266-.962c.456-.962-.962-.81-.962-.81s-.811-1.469-.456-2.026C362.466,268.349,361.2,267.843,361.3,267.134Z" transform="translate(-126.282 -114.27)" fill="#753519"/>
  <path id="Path_10341" data-name="Path 10341" d="M340.152,269.361a52.038,52.038,0,0,1-7.2-7.12c-3.311-4.061-5.338-6.966-5.338-6.966a8.259,8.259,0,0,0-.676-3.108,4.668,4.668,0,0,0-1.148-1.689c-.405-.541-.4.439.109,1.393l.512.954s-1.326-2.117-1.815-2.047.093.768.349,1.14a2.923,2.923,0,0,1,.349,1.024s-.954-1.466-1.28-1.21.349,1.14.884,1.838a14.408,14.408,0,0,1,.954,2.373s4.6,11.948,11.166,17.08S340.152,269.361,340.152,269.361Z" transform="translate(-115.85 -110.916)" fill="#ff9a5c"/>
  <path id="Path_10342" data-name="Path 10342" d="M328.847,256.506a7.306,7.306,0,0,1,.2-.859c.056-.085.235-.729.371-1.134s-.06-.795-.285-.6a2.453,2.453,0,0,0-.719,1.349A4.243,4.243,0,0,0,328.847,256.506Z" transform="translate(-117.206 -111.985)" fill="#ff9a5c"/>
  <path id="Path_10343" data-name="Path 10343" d="M372.9,290.467s2.938,3.563,4.061,4.125,4.087-1.907,5.617-4.744a42.872,42.872,0,0,0,2.321-4.989,8.892,8.892,0,0,0,2.548-2.813s.2-.614,0-.751-.789.86-1.1,1.239c0,0,.894-1.548.756-1.892s-1.41,1.445-1.41,1.445,1-1.823.654-1.858-1.308,1.617-1.308,1.617-.034-1.136-.378-1.067-.241,1.342-.241,1.342-.344,1.582-.55,2.1-4.542,5.469-5.091,5.607c0,0-1.755-2.477-3.371-2.958S372.9,290.467,372.9,290.467Z" transform="translate(-130.654 -119.955)" fill="#ff9a5c"/>
  <path id="Path_10344" data-name="Path 10344" d="M351.359,310.19s4.069,43.124,4.78,46.755c0,0,3.856.465,5.17,0,0,0-.29-26.257,0-28.957s2.617-16.48,1.779-18.343S351.359,310.19,351.359,310.19Z" transform="translate(-124.142 -128.633)" fill="#0e1a34"/>
  <path id="Path_10345" data-name="Path 10345" d="M366.411,309.555s1.448,17.25,2.167,19.892,8.516,13.8,8.516,13.8l-3.421,3.458s-7.076-7.169-9.124-9.777-5.587-13.5-5.587-13.5S361.011,306.855,366.411,309.555Z" transform="translate(-126.44 -128.73)" fill="#0e1a34"/>
  <path id="Path_10346" data-name="Path 10346" d="M243.342,159.553c-3.97-1.232-6.845-1.619-9.172-2.931s-4.655-2.283-6.435-2.208-5.476-.9-7.666,0-4.509,5.407-7.867,6.231-11.79-.955-14.145-2.461-3.024-4.518-2.347-6.024a12.7,12.7,0,0,0,.814-5.176c-.137-.984,3.422-2.914,4.655-4.207s2.4-5.507-.518-7.614a99.31,99.31,0,0,0-37.9,17.524,6.11,6.11,0,0,0,.906,2.349c.821,1.368-.5,2.19-.454,2.6s.776.364.135,1.14.011.64-.588,1.188a17.67,17.67,0,0,1-1.558,1.369c-.411.273-.274,1.095-1.1,2.053s-2.327,1.779-2.327,3.285-2.327,3.559-2.6,4.381-2.6,3.969-2.738,6.023a36.13,36.13,0,0,0,0,5.476,12.865,12.865,0,0,1-.1,4.107,31.968,31.968,0,0,0-.719,5.613c-.137,2.738.959,3.97,3.559,4.791s7.522,3.149,8.758,4.928,1.92,3.97,2.878,4.244,1.78,3.148,4.928,5.338,9.035,2.468,11.636,5.272,7.392,9.639,8.625,13.409,3.285,5.158,5.476,7,4.928,3.891,6.982,4.028,2.891-.724,2.814-1.457-2.677-2.923-3.088-3.471-1.232-4.244-2.464-6.845-1.369-2.707-.959-3.955,1.232-3.981,2.464-4.667,2.19-.186,3.011-1.395,1.111-1.889,1.035-2.644-1.308-1.222-2.54-1.331-1.642-1.2-3.286-1.477-3.969-.959-4.517-1.917a2.584,2.584,0,0,0-2.6-1.095c-.821.137-3.286.547-4.928-1.1s-1.78-4.791-2.053-6.434-.548-2.191-.137-3.422.41-2.2,2.327-3.084,5.065-1.579,6.982,0,5.749.346,6.571-.613,3.148-3.833,5.065-3.969,5.065,0,6.3-1.1,5.887-3.4,6.708-5.262,3.97-7.244,3.97-9,5.749-5.178,7.392-4.63,3.833-2.053,4.655-2.053,3.286.41,4.655-1.232,2.464-2.746,3.559-4.316S247.312,160.785,243.342,159.553Z" transform="translate(-63.765 -76.107)" fill="#108f6e"/>
  <path id="Path_10347" data-name="Path 10347" d="M263.272,333.245a72.555,72.555,0,0,0-8.538-4.541c-3.921-1.651-6.811-7.494-7.843-8.7s-1.857-11.734,0-13.591a45.009,45.009,0,0,0,5.27-7.431c1.541-2.477,2.161-4.128,1.541-5.16s-.619-6.892,0-7.884,3.715-2.85,5.16-2.643,5.986-1.063,7.843-.015,8.876,4.758,11.972,4.967,6.192,2.892,8.669,1.447,6.112.207,8.216,3.3,4.581,6.246,8.09,8.283,3.2,3.895,5.213,4.308,6.5,1.637,8.934,3.3,1.635,3.715-.374,6.192-4.507,6.4-6.147,8.875-1.043,6.192,0,7.224.217,5.367-1.228,6.605-4.541,3.3-5.779,5.573-1.119,3.955-3.965,4.97-9.245,3.906-13.167,4.835-7.224,1.148-9.907,3.412-3.062,8.412-5.587,9.466-10.1,5.8-12.99,5.489-2.885-.884-1.236-2.969,5.823-5.756,8.175-9.1-.746-6.58,1.318-7.934,2.425-5.379,3.07-6.566S270.454,337.179,263.272,333.245Z" transform="translate(-92.231 -120.75)" fill="#108f6e"/>
  <path id="Path_10348" data-name="Path 10348" d="M349.286,205.118c.413.841,2.614,1.8,4.266,2.63s3.2-.444,3.872-2.63,3.559-2.6,5.072-1.773a6.594,6.594,0,0,0,4.266.963c1.086-.271,3.194-1.081,3.249-1.1A100.009,100.009,0,0,0,341.2,164.269a21.474,21.474,0,0,1-2.92,3.305,10.329,10.329,0,0,0-2.7,3.847c-.466.964-1.843,5.091-1.292,6.88s.322,3.027,2.362,4.541,3.857,2.028,2.949,4.8-.22,5.73-1.183,7.208a4.965,4.965,0,0,0,1.183,6.295c2.257,1.926,5.147,1.514,5.835,1.652S348.873,204.277,349.286,205.118Z" transform="translate(-118.943 -84.904)" fill="#108f6e"/>
  <path id="Path_10349" data-name="Path 10349" d="M257.171,250.772a4.6,4.6,0,0,1-1.376,3.13c-1.376,1.238-2.752,3.441-1.376,3.715s4.266.682,4.954,1.1,4.266,2.343,5.229,1.655,1.652-2.34,2.614-2.477,1.239-2.577,2.065-3.353,3.715-3.528,3.99-5.73.551-5.5,0-6.33-4.4-1.376-4.816-2.477-2.866-1.926-4.736-.825-2.695,3.578-2.97,5.367S257.034,247.642,257.171,250.772Z" transform="translate(-94.668 -107.39)" fill="#108f6e"/>
  <g id="Group_5813" data-name="Group 5813" transform="translate(220.536 37.797)">
    <g id="Group_5812" data-name="Group 5812" transform="translate(0 11.067)">
      <path id="Path_10350" data-name="Path 10350" d="M342.917,156.656l-1.133-.852s.338-.447.893-1.319,1.322-2.125,2.169-3.683a87.581,87.581,0,0,0,5.269-11.9,103.8,103.8,0,0,0,3.63-12.526c.435-1.727.652-3.2.862-4.214l.3-1.6,1.4.24L356,122.419c-.213,1.029-.433,2.517-.873,4.267a105.262,105.262,0,0,1-3.679,12.694,88.992,88.992,0,0,1-5.358,12.1c-.865,1.589-1.644,2.884-2.224,3.775S342.917,156.656,342.917,156.656Z" transform="translate(-341.784 -120.555)" fill="#108f6e"/>
    </g>
    <path id="Path_10351" data-name="Path 10351" d="M365.327,110.567c-.421,3.055-2.774,5.183-5.208,4.757s-4.081-3.037-3.691-5.835c.28-2.816,2.513-4.958,4.983-4.785S365.636,107.5,365.327,110.567Z" transform="translate(-346.193 -104.694)" fill="#fce300"/>
    <path id="Path_10352" data-name="Path 10352" d="M361.647,113.131a9.123,9.123,0,0,0-.218-1.5,6.078,6.078,0,0,0-1.217-2.531,6.062,6.062,0,0,0-1.689,2.177,11.5,11.5,0,0,0-.622,1.356,7.885,7.885,0,0,0-4.484-2.066,9.34,9.34,0,0,0,2.969,6.2,7.738,7.738,0,0,0,2.522,1.6,7.115,7.115,0,0,0,2.951-.662,9.021,9.021,0,0,0,4.7-5.548A8.317,8.317,0,0,0,361.647,113.131Z" transform="translate(-345.3 -106.024)" fill="#108f6e"/>
  </g>
  <path id="Path_10353" data-name="Path 10353" d="M311.811,71.816a14.028,14.028,0,0,0-3.511,1.6c-2.323,1.342-7.534,6.5-7.534,6.5a20.033,20.033,0,0,0,4.334,5.315,38.814,38.814,0,0,0,3.561-1.806s1.445,6.966-1.445,11.249a7.718,7.718,0,0,0,4.387,2.374c2.734.413,5.624.361,8,2.065s6.244,1.548,7.895,0a22.7,22.7,0,0,0,0-10.372,26.474,26.474,0,0,0-3.406-7.792l.878.671s2.993-3.251,3.147-5.779a33.843,33.843,0,0,0-5.934-4.9,8.269,8.269,0,0,0-7.236,0A9.113,9.113,0,0,1,311.811,71.816Z" transform="translate(-108.85 -56.439)" fill="#108f6e"/>
  <path id="Path_10354" data-name="Path 10354" d="M308.871,61.437a9.864,9.864,0,0,0,1.993,4.445c1.379,1.379,2.453.537,2.836.689s.613,1.227.613,1.993a1.421,1.421,0,0,0,2.376.69c1.15-.843.537-4.752.537-4.752a4.726,4.726,0,0,0,.163-3.066,3.568,3.568,0,0,0,.174-2.3c-.414-.843-1.026-.613-1.333,0,0,0-1.456-2.682-3.6-2.222S308.565,58.524,308.871,61.437Z" transform="translate(-111.29 -52.439)" fill="#ff9a5c"/>
  <path id="Path_10355" data-name="Path 10355" d="M316.595,57.911c-.69-.92-.23-3.3-1.125-4.676a2.719,2.719,0,0,0-2.783-.92s-.46-2.069-2.223-1.762-3.372,2.682-3.372,2.682a5.742,5.742,0,0,0-2.606,0c-1.686.307-3.6,1.456-2.912,3.143s3.3,1.591,3.3,1.591-.69,3.314,1.73,2.395c.071-.027.132-.065.2-.1a7.557,7.557,0,0,1-.167-.746,3.592,3.592,0,0,1,2.051-3.946h0a7.185,7.185,0,0,1,1.7-.576c2.146-.46,3.6,2.222,3.6,2.222.307-.613.92-.843,1.333,0a3.568,3.568,0,0,1-.174,2.3,4.953,4.953,0,0,1,.063,2.335,1.533,1.533,0,0,0,.258.041C317.717,61.9,317.285,58.831,316.595,57.911Z" transform="translate(-109.05 -50.522)" fill="#753519"/>
  <path id="Path_10356" data-name="Path 10356" d="M308.637,61.345s2.64-1.116,2.828-5.067c0,0,.812,2.463,4.363,2.021,0,0-.279-3.29-3.2-4.115s-5.066,4.053-5.066,4.053A3.4,3.4,0,0,0,308.637,61.345Z" transform="translate(-110.889 -51.601)" fill="#753519"/>
  <path id="Path_10357" data-name="Path 10357" d="M315.466,146.057c-.554-4.644-1.471-9.278-1.481-9.325l.384-.077c.009.047.93,4.7,1.485,9.355Z" transform="translate(-112.845 -76.558)" fill="#fff"/>
  <path id="Path_10358" data-name="Path 10358" d="M110.786,360.633a11.145,11.145,0,0,1,1.273.1c.455.08.748.725.877.983s-.439.232-.723-.129-.343-.451-.343-.451a1.572,1.572,0,0,0-.675,0c-.246.09-.544-.2-.594-.4S110.786,360.633,110.786,360.633Z" transform="translate(-51.367 -144.25)" fill="#ff9a5c"/>
  <path id="Path_10359" data-name="Path 10359" d="M102.887,366.65a5.642,5.642,0,0,0,1.654,1.188c.068.594.411.845.6.823s.2-.914.2-.914c.171.411.845.822.936.571a1.489,1.489,0,0,0,0-.662s.274.365.479.365.457-.182.366-.639a4.422,4.422,0,0,0-.64-1.508c-.274-.366-.434-.731-1.028-.868a9.818,9.818,0,0,0-1.485-.114,12.9,12.9,0,0,0-1.713,0Z" transform="translate(-48.847 -145.537)" fill="#ff9a5c"/>
  <path id="Path_10360" data-name="Path 10360" d="M103.5,365.053v-.369a7.729,7.729,0,0,1,2-.389c.331.117.644.583.827.759A15.274,15.274,0,0,1,103.5,365.053Z" transform="translate(-49.222 -145.36)" fill="#ff9a5c"/>
  <ellipse id="Ellipse_124" data-name="Ellipse 124" cx="7.183" cy="7.183" rx="7.183" ry="7.183" transform="translate(87.361 256.097)" fill="#0e1a34"/>
  <path id="Path_10361" data-name="Path 10361" d="M159.82,429.678a3.209,3.209,0,1,1,3.21-3.21A3.212,3.212,0,0,1,159.82,429.678Zm0-6.026a2.817,2.817,0,1,0,2.817,2.816A2.819,2.819,0,0,0,159.82,423.652Z" transform="translate(-65.277 -163.189)" fill="#fff"/>
  <path id="Path_10362" data-name="Path 10362" d="M283.408,258.912a21.671,21.671,0,0,0-2.761,3.09c-1.137,1.619,1.949.808,2.761.97s.974,1.335,2.6.911a9.147,9.147,0,0,0,1.624-.423,12.349,12.349,0,0,1,3.41-.488c1.462-.162,1.174-1.224,1.968-2.155a1.644,1.644,0,0,0,0-2.555c-.83-.812-1.318,1.624-2.942,0s-1.57-3.019-3.058-2.322-1.1.943-1.783,1.552S283.408,258.912,283.408,258.912Z" transform="translate(-102.693 -112.558)" fill="#108f6e"/>
  <path id="Path_10363" data-name="Path 10363" d="M354.863,280.686a12.1,12.1,0,0,1-8.741-3.735,19.131,19.131,0,0,0-4.168,4.98,22.673,22.673,0,0,0,6.226,4.98s-1.5,12.581-.7,16.944c0,0,5.251.975,8.5,1.191a27.586,27.586,0,0,0,7.254-.811l-.92-15.537.92,1.083s3.356-3.085,3.41-4.763c0,0-4.786-4.493-6.859-5.2S356.881,280.848,354.863,280.686Z" transform="translate(-121.299 -118.964)" fill="#91b31e"/>
  <path id="Path_10364" data-name="Path 10364" d="M365.549,338.179l-.392-.006c.006-.354.144-8.666.391-9.814.24-1.127,1.684-8.971,1.7-9.05l.386.07c-.015.08-1.46,7.929-1.7,9.061C365.693,329.55,365.551,338.093,365.549,338.179Z" transform="translate(-128.313 -131.768)" fill="#fff"/>
  <path id="Path_10365" data-name="Path 10365" d="M272.421,418.045H264.41s-4.389-29.365,0-35.568S278,378.387,272.421,418.045Z" transform="translate(-97.271 -150.064)" fill="#ffd200"/>
  <path id="Path_10366" data-name="Path 10366" d="M251.775,426.631h-7.152s-9.381-2.926-13.874-10.077,2.171-10.184,7.047-7.124S251.775,426.631,251.775,426.631Z" transform="translate(-87.237 -158.65)" fill="#ffd200"/>
  <path id="Path_10367" data-name="Path 10367" d="M258.234,421.45h-4.389s-10.4-10.271-11.7-22.69,8.614-8.385,13,2.52a69.847,69.847,0,0,1,4.876,20.169Z" transform="translate(-91.094 -153.469)" fill="#91b31e"/>
  <path id="Path_10368" data-name="Path 10368" d="M280.464,426.631h7.152s9.381-2.926,13.874-10.077-2.171-10.184-7.047-7.124S280.464,426.631,280.464,426.631Z" transform="translate(-102.713 -158.65)" fill="#ffd200"/>
  <path id="Path_10369" data-name="Path 10369" d="M275.963,421.45h4.389s10.4-10.271,11.7-22.69-8.614-8.385-13,2.52a69.847,69.847,0,0,0-4.876,20.169Z" transform="translate(-100.812 -153.469)" fill="#91b31e"/>
  <path id="Path_10370" data-name="Path 10370" d="M311.707,247.463l.425-.867.552.792.867.425-.792.552-.425.867-.552-.792-.867-.425Z" transform="translate(-111.917 -109.789)" fill="#fff"/>
  <path id="Path_10371" data-name="Path 10371" d="M333.653,252.755l.258-.528.336.482.528.259-.482.336-.258.528-.336-.482-.528-.258Z" transform="translate(-118.645 -111.491)" fill="#fff"/>
  <path id="Path_10372" data-name="Path 10372" d="M337.171,242.576l.258-.528.336.482.528.258-.482.336-.259.528-.336-.482-.528-.258Z" transform="translate(-119.708 -108.415)" fill="#fff"/>
  <path id="Path_10373" data-name="Path 10373" d="M306.58,238.776l.258-.528.336.482.527.258-.482.336-.258.528-.336-.482-.528-.259Z" transform="translate(-110.461 -107.266)" fill="#fff"/>
  <path id="Path_10374" data-name="Path 10374" d="M311.146,266.673l.259-.528.336.482.528.259-.482.336-.258.528-.336-.482-.527-.258Z" transform="translate(-111.841 -115.698)" fill="#fff"/>
  <g id="Group_5814" data-name="Group 5814" transform="translate(139.73 31.409)">
    <path id="Path_10375" data-name="Path 10375" d="M233.892,95.985l-.16-.114c.155-.218.243-.334.243-.334l.156.119S234.044,95.772,233.892,95.985Z" transform="translate(-228.318 -95.538)" fill="#fff"/>
    <path id="Path_10376" data-name="Path 10376" d="M226.408,107.663l-.191-.042c.013-.058.026-.116.039-.173l.191.045C226.433,107.55,226.421,107.606,226.408,107.663Zm.238-.96-.189-.052q.108-.4.227-.788l.188.057Q226.753,106.309,226.646,106.7Zm.477-1.558-.186-.063c.088-.262.181-.519.276-.774l.183.068Q227.255,104.757,227.123,105.145Zm.569-1.528-.181-.073q.155-.385.317-.757l.18.078Q227.847,103.234,227.691,103.617Zm.649-1.5-.178-.082q.175-.379.354-.74l.176.086C228.574,101.623,228.456,101.869,228.34,102.12Zm.72-1.465-.174-.091q.195-.374.386-.724l.172.094C229.318,100.167,229.189,100.408,229.06,100.655Zm.784-1.432-.17-.1q.215-.372.417-.707l.167.1C230.125,98.743,229.986,98.976,229.845,99.223Zm.844-1.4-.165-.105c.162-.255.313-.485.448-.688l.163.109C231,97.345,230.85,97.573,230.689,97.827Z" transform="translate(-226.046 -95.99)" fill="#fff"/>
    <path id="Path_10377" data-name="Path 10377" d="M226.165,113.262l-.193-.036c.025-.136.051-.272.079-.407l.192.04Q226.2,113.06,226.165,113.262Z" transform="translate(-225.972 -100.761)" fill="#fff"/>
  </g>
  <g id="Group_5815" data-name="Group 5815" transform="translate(145.71 31.91)">
    <path id="Path_10378" data-name="Path 10378" d="M235.948,96.7l-.193-.036c.05-.262.08-.4.08-.4l.192.04S236,96.437,235.948,96.7Z" transform="translate(-234.909 -96.256)" fill="#fff"/>
    <path id="Path_10379" data-name="Path 10379" d="M234.557,107.03q-.013-.411-.015-.821h.2q0,.406.015.816Zm.184-1.638-.2,0q.006-.412.021-.819l.2.007Q234.748,104.981,234.742,105.392Zm.058-1.631-.2-.01q.023-.416.052-.818l.195.013Q234.822,103.348,234.8,103.761Zm.117-1.629-.2-.017c.024-.279.051-.552.078-.816l.2.02Q234.953,101.714,234.916,102.132Zm.17-1.624-.195-.023q.05-.426.1-.814l.195.026Q235.137,100.083,235.086,100.507Zm.218-1.618-.194-.029c.045-.3.089-.569.129-.81l.193.032C235.392,98.322,235.349,98.592,235.3,98.889Z" transform="translate(-234.542 -96.798)" fill="#fff"/>
    <path id="Path_10380" data-name="Path 10380" d="M234.7,113.256c-.013-.137-.024-.275-.034-.412l.2-.015q.016.205.034.41Z" transform="translate(-234.58 -101.265)" fill="#fff"/>
  </g>
  <path id="Path_10381" data-name="Path 10381" d="M230.2,111.276c-.01-.135-.017-.269-.024-.4l.2-.009c.006.133.015.266.024.4Zm-.049-1.19c0-.1,0-.21,0-.315,0-.158,0-.315,0-.472l.2,0q-.005.233,0,.469,0,.156,0,.312Zm.228-1.564-.2-.01c.014-.265.032-.527.054-.786l.2.017Q230.4,108.129,230.381,108.522Zm.132-1.557-.195-.023q.046-.395.1-.78l.194.028Q230.559,106.573,230.513,106.966Zm.226-1.546-.193-.035c.046-.262.1-.519.147-.773l.193.039C230.833,104.9,230.785,105.159,230.739,105.419Zm.311-1.533-.19-.044q.09-.39.187-.765l.19.05C231.172,103.374,231.11,103.628,231.05,103.886Zm.391-1.515-.188-.053q.11-.388.225-.754l.187.058C231.589,101.864,231.515,102.115,231.442,102.372Zm.465-1.494-.186-.063c.087-.259.175-.507.262-.742l.184.068Q232.037,100.492,231.906,100.878Zm.538-1.469-.183-.072c.1-.264.205-.508.3-.728l.181.077C232.647,98.9,232.547,99.145,232.444,99.408Zm.613-1.439-.178-.082c.21-.455.341-.7.347-.712l.173.092S233.264,97.52,233.057,97.97Z" transform="translate(-87.505 -64.624)" fill="#fff"/>
  <path id="Path_10382" data-name="Path 10382" d="M90.34,351.264c-.084-.052-.172-.1-.256-.15a30.762,30.762,0,0,0-4.2-2.547,1.8,1.8,0,0,1-.171-.1,16.128,16.128,0,0,0-1.137,2.123,27.078,27.078,0,0,0,3.725,2.836s.938-.779,1.7-1.289A7.17,7.17,0,0,1,90.34,351.264Z" transform="translate(-43.503 -140.582)" fill="#ffd200"/>
</svg>
