<svg xmlns="http://www.w3.org/2000/svg" width="279.867" height="289.445" viewBox="0 0 279.867 289.445">
  <g id="Group_5817" data-name="Group 5817" transform="translate(0 0)">
    <ellipse id="Ellipse_113" data-name="Ellipse 113" cx="133.198" cy="17.221" rx="133.198" ry="17.221" transform="translate(10.804 255.003)" opacity="0.15"/>
    <path id="Path_10175" data-name="Path 10175" d="M1303.221,766.232h0a1.8,1.8,0,0,1-1.8-1.8V748.873a1.8,1.8,0,0,1,1.8-1.8h0a1.8,1.8,0,0,1,1.8,1.8v15.558A1.8,1.8,0,0,1,1303.221,766.232Z" transform="translate(-1273.601 -666.733)" fill="#f6a731"/>
    <rect id="Rectangle_765" data-name="Rectangle 765" width="3.604" height="19.161" rx="1.802" transform="translate(39.387 68.775)" fill="#f6a731"/>
    <rect id="Rectangle_766" data-name="Rectangle 766" width="3.604" height="19.161" rx="1.802" transform="translate(50.511 74.607)" fill="#f6a731"/>
    <g id="Group_5716" data-name="Group 5716" transform="translate(22.643 79.836)">
      <ellipse id="Ellipse_114" data-name="Ellipse 114" cx="14.194" cy="14.194" rx="14.194" ry="14.194" transform="matrix(0.924, -0.383, 0.383, 0.924, 0, 10.864)" fill="#f6a731"/>
      <circle id="Ellipse_115" data-name="Ellipse 115" cx="11.615" cy="11.615" r="11.615" transform="translate(2.12 18.546) rotate(-45)" fill="#f4bd42"/>
    </g>
    <path id="Path_10176" data-name="Path 10176" d="M2551.93,556.517h0a1.8,1.8,0,0,1-1.8-1.8V539.158a1.8,1.8,0,0,1,1.8-1.8h0a1.8,1.8,0,0,1,1.8,1.8v15.558A1.8,1.8,0,0,1,2551.93,556.517Z" transform="translate(-2321.904 -490.675)" fill="#f6a731"/>
    <path id="Path_10177" data-name="Path 10177" d="M2594.892,482.665h0a1.8,1.8,0,0,1-1.8-1.8V456.358a1.8,1.8,0,0,1,1.8-1.8h0a1.8,1.8,0,0,1,1.8,1.8v24.505A1.8,1.8,0,0,1,2594.892,482.665Z" transform="translate(-2357.971 -421.164)" fill="#f6a731"/>
    <path id="Path_10178" data-name="Path 10178" d="M2664.2,539.263h0a1.8,1.8,0,0,1-1.8-1.8V516.829a1.8,1.8,0,0,1,1.8-1.8h0a1.8,1.8,0,0,1,1.8,1.8v20.632A1.8,1.8,0,0,1,2664.2,539.263Z" transform="translate(-2416.157 -471.93)" fill="#f6a731"/>
    <g id="Group_5717" data-name="Group 5717" transform="translate(227.622 56.513)">
      <ellipse id="Ellipse_116" data-name="Ellipse 116" cx="10.921" cy="10.921" rx="10.921" ry="10.921" transform="translate(0)" fill="#f6a731"/>
      <ellipse id="Ellipse_117" data-name="Ellipse 117" cx="8.937" cy="8.937" rx="8.937" ry="8.937" transform="translate(1.985 1.985)" fill="#f4bd42"/>
    </g>
    <path id="Path_10179" data-name="Path 10179" d="M2128.167,331.361h0a1.8,1.8,0,0,1-1.8-1.8V314a1.8,1.8,0,0,1,1.8-1.8h0a1.8,1.8,0,0,1,1.8,1.8V329.56A1.8,1.8,0,0,1,2128.167,331.361Z" transform="translate(-1966.152 -301.655)" fill="#f6a731"/>
    <path id="Path_10180" data-name="Path 10180" d="M2177.254,287.164h0a1.8,1.8,0,0,1-1.8-1.8V266.526a1.8,1.8,0,0,1,1.8-1.8h0a1.8,1.8,0,0,1,1.8,1.8v18.836A1.8,1.8,0,0,1,2177.254,287.164Z" transform="translate(-2007.36 -261.798)" fill="#f6a731"/>
    <path id="Path_10181" data-name="Path 10181" d="M2246.564,360.26h0a1.8,1.8,0,0,1-1.8-1.8V346.649a1.8,1.8,0,0,1,1.8-1.8h0a1.8,1.8,0,0,1,1.8,1.8v11.809A1.8,1.8,0,0,1,2246.564,360.26Z" transform="translate(-2065.546 -329.062)" fill="#f6a731"/>
    <g id="Group_5718" data-name="Group 5718" transform="translate(154.656 17.622)">
      <ellipse id="Ellipse_118" data-name="Ellipse 118" cx="12.905" cy="12.905" rx="12.905" ry="12.905" transform="translate(0 9.877) rotate(-22.5)" fill="#f6a731"/>
      <ellipse id="Ellipse_119" data-name="Ellipse 119" cx="10.56" cy="10.56" rx="10.56" ry="10.56" transform="translate(3.064 11.146) rotate(-22.5)" fill="#f4bd42"/>
    </g>
    <g id="Group_5721" data-name="Group 5721" transform="translate(20.738 134.93)">
      <g id="Group_5719" data-name="Group 5719" transform="translate(16.099)">
        <path id="Path_10182" data-name="Path 10182" d="M1359.6,1110.948q-.252.927-.472,1.865a58.409,58.409,0,0,0-1.5,12.988q0,1.078.026,2.159a65.953,65.953,0,0,0,1.612,12.625q.252,1.118.542,2.227a68.543,68.543,0,0,0,5.131,13.561q.544,1.08,1.129,2.138a62.177,62.177,0,0,0,10.9,14.438q1.148,1.123,2.356,2.175,1.387,1.213,2.852,2.325a17.336,17.336,0,0,0,5.063,3.068,3.878,3.878,0,0,0,1.783.126,3.1,3.1,0,0,0,.357-.094c3.2-1.065,3.736-8.207,4.038-11.078q.164-1.544.242-3.085.1-1.865.083-3.728a73.367,73.367,0,0,0-1.023-11.425c-.146-.894-.309-1.787-.483-2.678-.005-.032-.013-.062-.018-.094a116.6,116.6,0,0,0-2.967-11.61q-.326-1.077-.677-2.154c-.77-2.4-1.594-4.776-2.446-7.129q-.455-1.26-.917-2.511l-.694-1.881c-1.326-3.6-2.646-7.181-3.827-10.826q-.312-.962-.609-1.927-.464-1.5-.884-3.02c-.659-2.385-1.251-4.791-1.733-7.217q-.221-1.1-.408-2.2-.122-.721-.231-1.442a81.012,81.012,0,0,1-1.132-8.207,1.147,1.147,0,0,0-.17-.557,1.168,1.168,0,0,0-1.782-.243l-.02.017a47.541,47.541,0,0,0-8.185,9.775q-.508.807-.982,1.63A50.429,50.429,0,0,0,1359.6,1110.948Z" transform="translate(-1357.62 -1087.227)" fill="#cf2959"/>
        <path id="Path_10183" data-name="Path 10183" d="M1370.066,1119.085q-5.238-4.069-10.471-8.137-.252.927-.472,1.865,5.609,4.359,11.219,8.717a102.881,102.881,0,0,0,2.736,13.7q-.94-.5-1.876-1.006-2-1.092-3.959-2.244-4.932-2.9-9.623-6.174,0,1.078.026,2.159,1.12.771,2.254,1.517,4.126,2.725,8.429,5.164,2.115,1.2,4.27,2.331a9.83,9.83,0,0,0,1.128.574c1.1,3.808,2.385,7.562,3.8,11.244.039.1.079.2.118.3q-9.271-4.084-18.383-8.508.252,1.118.542,2.227,9.3,4.486,18.764,8.616c1.414,3.492,2.93,6.952,4.278,10.47q-8.854-3.083-17.911-5.525.544,1.08,1.129,2.138,8.881,2.452,17.576,5.526a64.307,64.307,0,0,1,2.1,6.978c.255,1.086.475,2.177.67,3.272-.675-.047-1.355-.161-2.022-.242q-3.727-.455-7.426-1.1,1.148,1.123,2.356,2.175,3.1.48,6.218.828a11.609,11.609,0,0,0,1.161.092c.223,1.485.4,2.978.535,4.474a3.878,3.878,0,0,0,1.783.126c-.155-1.735-.358-3.466-.623-5.185a2.605,2.605,0,0,0,.379-.469c.886-1.4,1.646-2.9,2.462-4.337q1.21-2.133,2.419-4.266.1-1.865.083-3.728-1.838,3.242-3.677,6.485-1.059,1.863-2.117,3.729c-.281-1.446-.611-2.882-1-4.308-.446-1.628-.964-3.231-1.525-4.818l7.3-12.514c-.146-.894-.309-1.787-.483-2.678q-3.8,6.518-7.6,13.036c-1.357-3.574-2.893-7.087-4.339-10.629q4.34-7.143,8.956-14.112-.326-1.077-.677-2.154-4.69,7.019-9.1,14.224c-.29-.735-.575-1.471-.848-2.211-1.166-3.146-2.234-6.333-3.173-9.555a5.013,5.013,0,0,0,.4-.495,147.732,147.732,0,0,1,9.355-11.6l-.694-1.881q-2.193,2.418-4.278,4.935-2.795,3.381-5.376,6.93c-.9-3.311-1.655-6.659-2.229-10.042q-.281-1.658-.5-3.336,4.206-4.723,8.555-9.313-.312-.962-.609-1.927-4.175,4.387-8.22,8.9a78.779,78.779,0,0,1-.287-12.63.812.812,0,0,0,.293-.2q2.8-3.149,5.6-6.3-.221-1.1-.408-2.2l-5.26,5.919a62.566,62.566,0,0,1,3.726-16.124,1.168,1.168,0,0,0-1.782-.243l-.02.017a64.923,64.923,0,0,0-3.629,15.62q-2.359-2.862-4.556-5.845-.508.807-.982,1.63,2.553,3.422,5.311,6.686A77.908,77.908,0,0,0,1370.066,1119.085Z" transform="translate(-1357.62 -1087.227)" fill="#181a44"/>
      </g>
      <g id="Group_5720" data-name="Group 5720" transform="translate(0 23.081)">
        <path id="Path_10184" data-name="Path 10184" d="M1257.677,1251.607q.1.7.221,1.408a43.289,43.289,0,0,0,2.756,9.281q.311.736.646,1.462a48.848,48.848,0,0,0,4.772,8.127q.5.688,1.017,1.359a50.777,50.777,0,0,0,7.44,7.74q.685.577,1.391,1.127a46.022,46.022,0,0,0,11.625,6.658q1.109.431,2.237.8,1.3.422,2.619.754a12.835,12.835,0,0,0,4.34.616,2.877,2.877,0,0,0,1.251-.432,2.253,2.253,0,0,0,.216-.168c1.869-1.656.156-6.675-.474-8.719q-.338-1.1-.733-2.171-.474-1.3-1.029-2.563a54.363,54.363,0,0,0-4.021-7.481q-.539-.85-1.108-1.683c-.013-.02-.027-.039-.04-.059a86.314,86.314,0,0,0-5.4-7.042q-.536-.638-1.088-1.27c-1.223-1.409-2.476-2.788-3.74-4.142q-.677-.725-1.355-1.443l-1.02-1.079c-1.95-2.063-3.892-4.119-5.756-6.257q-.492-.564-.975-1.135-.753-.888-1.481-1.8c-1.143-1.432-2.246-2.9-3.28-4.41q-.471-.684-.919-1.381-.292-.455-.577-.914a60.042,60.042,0,0,1-3.159-5.259.851.851,0,0,0-.278-.329.865.865,0,0,0-1.284.352l-.008.017a35.2,35.2,0,0,0-2.729,9.038q-.111.7-.194,1.4A37.351,37.351,0,0,0,1257.677,1251.607Z" transform="translate(-1257.306 -1231.042)" fill="#f0426a"/>
        <path id="Path_10185" data-name="Path 10185" d="M1268.511,1254.1l-9.5-2.493q.1.7.222,1.408l10.175,2.67a76.155,76.155,0,0,0,5.849,8.529q-.785-.065-1.57-.139-1.677-.162-3.349-.376-4.2-.537-8.349-1.4.311.736.646,1.462.987.2,1.977.377,3.6.655,7.242,1.063,1.79.2,3.586.344a7.266,7.266,0,0,0,.935.062c1.86,2.271,3.824,4.455,5.856,6.552.056.058.113.114.168.171q-7.5-.083-14.993-.443.5.688,1.017,1.359,7.636.348,15.284.406c1.979,1.966,4.018,3.881,5.96,5.884q-6.926.478-13.8,1.45.685.577,1.391,1.127,6.761-.915,13.576-1.353a47.615,47.615,0,0,1,3.463,4.139q.734,1,1.408,2.033c-.473.164-.97.285-1.447.424q-2.671.775-5.376,1.415,1.109.431,2.238.8,2.25-.575,4.475-1.246c.289-.087.566-.171.817-.275q.875,1.419,1.667,2.891a2.879,2.879,0,0,0,1.25-.432c-.61-1.137-1.252-2.256-1.933-3.35a1.944,1.944,0,0,0,.121-.429c.2-1.211.278-2.451.415-3.669q.2-1.8.405-3.609-.474-1.3-1.028-2.563-.307,2.743-.616,5.486-.179,1.577-.356,3.155-.918-1.354-1.936-2.642c-.777-.979-1.6-1.919-2.44-2.837q.662-5.322,1.327-10.644-.539-.85-1.108-1.683-.69,5.544-1.383,11.089c-1.964-2.039-4.033-3.983-6.048-5.975q.876-6.127,1.991-12.215-.536-.638-1.088-1.27-1.151,6.144-2.054,12.333-.618-.625-1.221-1.259c-1.71-1.8-3.364-3.662-4.941-5.583a3.713,3.713,0,0,0,.128-.453,109.5,109.5,0,0,1,2.993-10.624l-1.019-1.079q-.79,2.285-1.477,4.606-.919,3.115-1.644,6.284c-1.576-1.993-3.065-4.053-4.44-6.19q-.674-1.047-1.31-2.126,1.489-4.44,3.114-8.831-.493-.564-.975-1.135-1.567,4.2-3.008,8.45a58.282,58.282,0,0,1-3.871-8.516.59.59,0,0,0,.141-.223q.988-2.959,1.978-5.919-.47-.684-.919-1.381l-1.859,5.561a46.349,46.349,0,0,1-2.155-12.063.865.865,0,0,0-1.285.352l-.008.017a48.048,48.048,0,0,0,2.075,11.692q-2.439-1.262-4.8-2.654-.11.7-.194,1.4,2.735,1.587,5.562,3.007A57.68,57.68,0,0,0,1268.511,1254.1Z" transform="translate(-1258.641 -1231.042)" fill="#181a44"/>
      </g>
    </g>
    <path id="Path_10186" data-name="Path 10186" d="M1570.156,691.713c15.886-13.345,26.5-43.41,19.969-44.725-8.68-1.748-27.529,5.916-36.639,7.267-12.922,1.56-27-14.012-34.895-5.332-6.423,7.057,4.6,32.723,21.858,43.9-51.474,25.3-123.825,152.3,2.395,161.516C1717.49,867.094,1630.038,716.366,1570.156,691.713Z" transform="translate(-1417.315 -582.113)" fill="#4640cc"/>
    <path id="Path_10187" data-name="Path 10187" d="M1884.458,911.058H1847.01a5.125,5.125,0,0,1-5.125-5.125h0a5.126,5.126,0,0,1,5.125-5.125h37.448a5.125,5.125,0,0,1,5.125,5.125h0A5.125,5.125,0,0,1,1884.458,911.058Z" transform="translate(-1727.327 -795.796)" fill="#181a44"/>
    <g id="Group_5727" data-name="Group 5727" transform="translate(178.964 186.735)">
      <g id="Group_5722" data-name="Group 5722" transform="translate(0 10.454)">
        <path id="Path_10188" data-name="Path 10188" d="M2320.858,1482.821c0,4.536-17.386,8.767-38.83,8.767s-38.829-4.231-38.829-8.767,17.385-7.661,38.829-7.661,38.83,3.124,38.83,7.661" transform="translate(-2243.198 -1475.16)" fill="#f4bd42"/>
        <path id="Path_10189" data-name="Path 10189" d="M2282.027,1530.648c-21.444,0-38.829-4.424-38.829-8.961v10.448c.012,4.534,17.391,8.967,38.829,8.967s38.818-4.433,38.83-8.967v-10.448c0,4.537-17.386,8.961-38.83,8.961" transform="translate(-2243.198 -1514.22)" fill="#f6a731"/>
      </g>
      <g id="Group_5723" data-name="Group 5723" transform="translate(9.828)">
        <path id="Path_10190" data-name="Path 10190" d="M2382.094,1417.682c0,4.536-17.385,8.767-38.83,8.767s-38.83-4.231-38.83-8.767,17.385-7.661,38.83-7.661,38.83,3.124,38.83,7.661" transform="translate(-2304.434 -1410.02)" fill="#f4bd42"/>
        <path id="Path_10191" data-name="Path 10191" d="M2343.264,1465.509c-21.444,0-38.83-4.424-38.83-8.961V1467c.012,4.534,17.391,8.967,38.83,8.967s38.818-4.432,38.83-8.967v-10.448c0,4.537-17.385,8.961-38.83,8.961" transform="translate(-2304.434 -1449.081)" fill="#f6a731"/>
      </g>
      <g id="Group_5724" data-name="Group 5724" transform="translate(4.48 64.774)">
        <path id="Path_10192" data-name="Path 10192" d="M2309.945,1847.039c-21.444,0-38.83-4.424-38.83-8.96v10.448c.012,4.534,17.391,8.967,38.83,8.967s38.818-4.432,38.83-8.967v-10.448c0,4.537-17.386,8.96-38.83,8.96" transform="translate(-2271.115 -1834.153)" fill="#f6a731"/>
        <path id="Path_10193" data-name="Path 10193" d="M2343.117,1813.622c-4.241,3.731-19.488,6.912-37.653,6.912-14.2,0-26.618-1.946-33.388-4.577a2.47,2.47,0,0,0-.962,1.785c0,4.537,17.385,8.767,38.83,8.767s38.83-4.23,38.83-8.767c0-1.564-2.069-2.961-5.658-4.119" transform="translate(-2271.115 -1813.622)" fill="#f4bd42"/>
      </g>
      <g id="Group_5725" data-name="Group 5725" transform="translate(0 47.368)">
        <path id="Path_10194" data-name="Path 10194" d="M2282.027,1744.677c-21.444,0-38.829-4.424-38.829-8.961v10.448c.012,4.534,17.391,8.967,38.829,8.967s38.818-4.432,38.83-8.967v-10.448c0,4.537-17.386,8.961-38.83,8.961" transform="translate(-2243.198 -1730.813)" fill="#f6a731"/>
        <path id="Path_10195" data-name="Path 10195" d="M2290.989,1713.055c-19.733,0-36.016-3.756-38.492-7.889-5.793,1.313-9.3,3.061-9.3,5.1,0,4.536,17.385,8.766,38.829,8.766s38.83-4.231,38.83-8.766a1.8,1.8,0,0,0-.112-.59c-7.122,2-17.807,3.382-29.757,3.382" transform="translate(-2243.198 -1705.166)" fill="#f4bd42"/>
      </g>
      <g id="Group_5726" data-name="Group 5726" transform="translate(8.961 30.689)">
        <path id="Path_10196" data-name="Path 10196" d="M2337.862,1642.315c-21.445,0-38.83-4.423-38.83-8.961V1643.8c.012,4.534,17.391,8.967,38.83,8.967s38.818-4.432,38.83-8.967v-10.448c0,4.537-17.385,8.961-38.83,8.961" transform="translate(-2299.032 -1628.2)" fill="#f6a731"/>
        <path id="Path_10197" data-name="Path 10197" d="M2366.227,1601.241c-4.646,3.614-19.593,6.647-37.326,6.647-11.451,0-21.744-1.267-28.85-3.136a2.524,2.524,0,0,0-1.018,1.837c0,4.537,17.385,8.766,38.83,8.766s38.83-4.23,38.83-8.766c0-2.169-3.977-4.013-10.464-5.348" transform="translate(-2299.032 -1601.241)" fill="#f4bd42"/>
      </g>
    </g>
    <g id="Group_5728" data-name="Group 5728" transform="translate(48.295 214.592)">
      <ellipse id="Ellipse_120" data-name="Ellipse 120" cx="33.374" cy="33.374" rx="33.374" ry="33.374" fill="#f6a731"/>
      <ellipse id="Ellipse_121" data-name="Ellipse 121" cx="27.31" cy="27.31" rx="27.31" ry="27.31" transform="translate(6.065 6.065)" fill="#f4bd42"/>
    </g>
    <g id="Group_5730" data-name="Group 5730" transform="translate(22.433 192.393)">
      <path id="Path_10198" data-name="Path 10198" d="M1352.82,1468.387a1.914,1.914,0,0,0,.358.464l.011.011a4.977,4.977,0,0,0,3.037,1.012.218.218,0,0,0,.223-.265,3.17,3.17,0,0,1,.158-1.526.222.222,0,0,1,.288-.139,4.441,4.441,0,0,0,2.826.351.252.252,0,0,0,.092-.064,7.613,7.613,0,0,0,1.2-1.785c.042-.083.878-2.3.881-2.315-.018-.322,1-3.214,1.058-3.575a.208.208,0,0,0-.086-.208c-.472-.339-2.365-1.7-2.517-1.727-.177-.039-4.529-.84-4.678-.78a10.506,10.506,0,0,0-2.64,5.464,4.039,4.039,0,0,0,.464,2.495h0S1353.536,1467.777,1352.82,1468.387Z" transform="translate(-1339.186 -1455.822)" fill="#ffbe9d"/>
      <path id="Path_10199" data-name="Path 10199" d="M1336.264,1698.671a5.193,5.193,0,0,1-2.408-3.156.225.225,0,0,1,.089-.265c1.235-.783,9.842-6.166,11.9-5.509.632.2,1.828,20.225,1.819,20.652,0,.21.009,2.38,0,2.633-.136,3.41-1.332,20.387-1.465,22.269a.216.216,0,0,1-.181.2,14.4,14.4,0,0,1-2.339.154l-.222-.192c-.538-4.555-2.885-13.13-1.7-18.5.015-.067.022-.132.035-.2.007-.107.02-.244.042-.425.285-2.376.294-1.683-.356-4.68a.174.174,0,0,0-.01-.033c-1.454-3.745-4.194-10.573-5.1-12.835A.2.2,0,0,0,1336.264,1698.671Z" transform="translate(-1323.254 -1650.461)" fill="#222559"/>
      <g id="Group_5729" data-name="Group 5729" transform="translate(0.953 37.031)">
        <path id="Path_10200" data-name="Path 10200" d="M1273.824,1721.545a.223.223,0,0,0,.077.265,5.166,5.166,0,0,0,2.218,1.029s0-.007.007-.011c.3-.477,9.8-15.481,11.627-18.392.037-.063.074-.122.107-.174.008-.011.019-.015.019-.03a3.453,3.453,0,0,0,.3-.581c.015-.037.033-.074.044-.1a1.6,1.6,0,0,0,.1-.311c.015-.063.026-.122.037-.189,0-.008.007-.018.007-.03.255-1.294.862-3.513,1.6-6.1.418-1.464.873-3.044,1.328-4.638.362-1.25.721-2.493,1.05-3.672l2.652-10.316a.221.221,0,0,0-.2-.275l-2.128-.141a24.089,24.089,0,0,1-6.7-1.846.223.223,0,0,0-.245.05c-3.1,3.1-2.507,6.978-2.131,8.923,0,0,0,.007,0,.015a10.4,10.4,0,0,1,.152,2.711c-.214,2.794-.628,8.012-.669,11.639a.079.079,0,0,1,0,.009,9.3,9.3,0,0,1-2.219,4.824,11.018,11.018,0,0,0-1.1,1.387C1276.674,1710.241,1275.535,1717.472,1273.824,1721.545Z" transform="translate(-1273.807 -1676.016)" fill="#292a72"/>
      </g>
      <path id="Path_10201" data-name="Path 10201" d="M1326.63,1533.54c.01,1.142.079,2.28.168,3.375.121,1.343.284,2.622.453,3.78.337,2.325.569,5.608.634,6.592a.462.462,0,0,0,.289.4l.3.115c4.823,1.764,11.92.263,11.92.263.295.021.589-.211.474-.769a27.416,27.416,0,0,1-.516-2.9c.016-.4-.1-1.758-.326-3.638-.079-.669-.174-1.4-.284-2.175-.089-.658-.195-1.353-.305-2.069-.132-.832-.242-1.648-.353-2.443-.121-.9-.237-1.774-.363-2.638a34.678,34.678,0,0,0-.895-4.307,17.951,17.951,0,0,0-1.311-3.354c-1.343-2.585-4.6-2.99-5.16-3.043a.208.208,0,0,0-.147.037c-2.427,1.622-3.664,4.412-4.212,7.571A28.759,28.759,0,0,0,1326.63,1533.54Z" transform="translate(-1317.197 -1508.621)" fill="#9792ff"/>
      <path id="Path_10202" data-name="Path 10202" d="M1355.2,1553.3c.211-1.959,2.28-1.6,2.654-1.364.432.263,1.516,1.111,2.733,4.717.837,2.485,2.181,3.557,2.492,4.752.1.358.237.79.348,1.153l0,0a14.734,14.734,0,0,0,1.355,2.834c1,1.455,4.445,6.771,6.4,9.369a4.479,4.479,0,0,0,1.019,1.032c.425.22,1.052.682,1.478.858a.331.331,0,0,1,.072.046h0a3.235,3.235,0,0,1,1.343,1.162h-.651c.227.555.369,1.117.238,1.24a3.6,3.6,0,0,1-2.87.195c-.934-.458-.586-1.086-.815-1.463a19.88,19.88,0,0,0-1.509-2.054c-1.208-1.327-2.561-2.445-4.5-4.412a33.843,33.843,0,0,1-4.6-5.5,22.735,22.735,0,0,1-1.2-2.111h0c-1.324-2.708-3.263-6.061-3.736-8.541A10.343,10.343,0,0,1,1355.2,1553.3Z" transform="translate(-1341.183 -1534.661)" fill="#ffbe9d"/>
      <path id="Path_10203" data-name="Path 10203" d="M1361.405,1555.678c-.781.945-3.89,2-5.183,2.09-.721-1.877-5.473-11.463-2.846-12.517C1356.274,1544.088,1360.407,1552.106,1361.405,1555.678Z" transform="translate(-1338.994 -1529.11)" fill="#6858f7"/>
      <path id="Path_10204" data-name="Path 10204" d="M1390.381,1971.064l-.5,1.614a.9.9,0,0,0,.856,1.164h7.462s.174-1.389-1.563-1.736a17.847,17.847,0,0,1-3.3-1.042Z" transform="translate(-1370.261 -1886.681)" fill="#181a44"/>
      <path id="Path_10205" data-name="Path 10205" d="M1269.024,1956.029l-.987,1.373a.9.9,0,0,0,.446,1.375l7.082,2.348a1.648,1.648,0,0,0-.937-2.14,17.83,17.83,0,0,1-2.8-2.027Z" transform="translate(-1267.868 -1874.058)" fill="#181a44"/>
      <path id="Path_10206" data-name="Path 10206" d="M1351.026,1454.665s-2.317-4.482-.371-7.963,7.694.794,11.6-1.344c0,0,2.488,3.577-2.043,4.971a8.2,8.2,0,0,1-5.322-.622l-.72,2.432s-.187-1.953-.9-2.167C1351.912,1449.559,1350.558,1452.622,1351.026,1454.665Z" transform="translate(-1336.715 -1445.278)" fill="#181a44"/>
    </g>
    <g id="Group_5771" data-name="Group 5771" transform="translate(0)">
      <g id="Group_5733" data-name="Group 5733" transform="translate(88.281 3.423)">
        <g id="Group_5731" data-name="Group 5731">
          <path id="Path_10207" data-name="Path 10207" d="M1685.5,272.055a3.689,3.689,0,1,1-3.1-4.194A3.689,3.689,0,0,1,1685.5,272.055Z" transform="translate(-1678.158 -267.82)" fill="#6858f7"/>
        </g>
        <g id="Group_5732" data-name="Group 5732" transform="translate(1.667 2.533)">
          <path id="Path_10208" data-name="Path 10208" d="M1689.959,286.633a.4.4,0,0,1-.105-.1l-1.228-1.608a.392.392,0,0,1,.623-.476l.957,1.252,1.99-1.987a.392.392,0,1,1,.553.555l-2.306,2.3a.392.392,0,0,1-.483.056Z" transform="translate(-1688.544 -283.605)" fill="#fff"/>
        </g>
      </g>
      <g id="Group_5736" data-name="Group 5736" transform="translate(0 141.92)">
        <g id="Group_5734" data-name="Group 5734">
          <path id="Path_10209" data-name="Path 10209" d="M1138.83,1136.986a5.4,5.4,0,1,1-4.544-6.14A5.4,5.4,0,0,1,1138.83,1136.986Z" transform="translate(-1128.087 -1130.786)" fill="#6858f7"/>
        </g>
        <g id="Group_5735" data-name="Group 5735" transform="translate(2.44 3.709)">
          <path id="Path_10210" data-name="Path 10210" d="M1145.363,1158.329a.58.58,0,0,1-.154-.14l-1.8-2.354a.574.574,0,0,1,.912-.7l1.4,1.833,2.914-2.909a.574.574,0,1,1,.81.812l-3.377,3.372a.574.574,0,0,1-.707.082Z" transform="translate(-1143.292 -1153.895)" fill="#fff"/>
        </g>
      </g>
      <g id="Group_5739" data-name="Group 5739" transform="translate(2.666 54.808)">
        <g id="Group_5737" data-name="Group 5737">
          <path id="Path_10211" data-name="Path 10211" d="M1152.036,592.231a3.689,3.689,0,1,1-3.1-4.194A3.689,3.689,0,0,1,1152.036,592.231Z" transform="translate(-1144.697 -587.997)" fill="#6858f7"/>
        </g>
        <g id="Group_5738" data-name="Group 5738" transform="translate(1.667 2.533)">
          <path id="Path_10212" data-name="Path 10212" d="M1156.5,606.81a.4.4,0,0,1-.105-.1l-1.229-1.608a.392.392,0,0,1,.623-.476l.956,1.252,1.99-1.987a.392.392,0,1,1,.554.555l-2.306,2.3a.392.392,0,0,1-.483.056Z" transform="translate(-1155.083 -603.781)" fill="#fff"/>
        </g>
      </g>
      <g id="Group_5742" data-name="Group 5742" transform="translate(214.84 96.093)">
        <g id="Group_5740" data-name="Group 5740">
          <path id="Path_10213" data-name="Path 10213" d="M2476.522,850.886a4.919,4.919,0,1,1-4.138-5.592A4.919,4.919,0,0,1,2476.522,850.886Z" transform="translate(-2466.737 -845.239)" fill="#6858f7"/>
        </g>
        <g id="Group_5741" data-name="Group 5741" transform="translate(2.222 3.378)">
          <path id="Path_10214" data-name="Path 10214" d="M2482.471,870.325a.522.522,0,0,1-.141-.127l-1.638-2.144a.523.523,0,0,1,.831-.634l1.275,1.669,2.654-2.649a.522.522,0,1,1,.738.74l-3.075,3.071a.521.521,0,0,1-.4.151A.515.515,0,0,1,2482.471,870.325Z" transform="translate(-2480.585 -866.287)" fill="#fff"/>
        </g>
      </g>
      <g id="Group_5745" data-name="Group 5745" transform="translate(242.553 15.518)">
        <g id="Group_5743" data-name="Group 5743">
          <path id="Path_10215" data-name="Path 10215" d="M2646.748,347.418a3.689,3.689,0,1,1-3.1-4.194A3.689,3.689,0,0,1,2646.748,347.418Z" transform="translate(-2639.41 -343.183)" fill="#6858f7"/>
        </g>
        <g id="Group_5744" data-name="Group 5744" transform="translate(1.667 2.533)">
          <path id="Path_10216" data-name="Path 10216" d="M2651.209,362a.393.393,0,0,1-.1-.1l-1.229-1.608a.392.392,0,0,1,.623-.476l.956,1.252,1.99-1.987a.392.392,0,1,1,.554.555l-2.307,2.3a.389.389,0,0,1-.3.114A.394.394,0,0,1,2651.209,362Z" transform="translate(-2649.795 -358.968)" fill="#fff"/>
        </g>
      </g>
      <g id="Group_5750" data-name="Group 5750" transform="translate(72.957 69.449)">
        <g id="Group_5747" data-name="Group 5747" transform="translate(2.666)">
          <g id="Group_5746" data-name="Group 5746">
            <path id="Path_10217" data-name="Path 10217" d="M1600.043,686.071a.756.756,0,0,1-.755-.756v-5.333a.756.756,0,1,1,1.512,0v5.333A.757.757,0,0,1,1600.043,686.071Z" transform="translate(-1599.287 -679.226)" fill="#f0426a"/>
          </g>
        </g>
        <g id="Group_5749" data-name="Group 5749" transform="translate(0 2.666)">
          <g id="Group_5748" data-name="Group 5748">
            <path id="Path_10218" data-name="Path 10218" d="M1588.763,697.352h-5.334a.756.756,0,0,1,0-1.512h5.334a.756.756,0,1,1,0,1.512Z" transform="translate(-1582.673 -695.84)" fill="#f0426a"/>
          </g>
        </g>
      </g>
      <g id="Group_5755" data-name="Group 5755" transform="translate(198.844)">
        <g id="Group_5752" data-name="Group 5752" transform="translate(2.666)">
          <g id="Group_5751" data-name="Group 5751">
            <path id="Path_10219" data-name="Path 10219" d="M2384.433,253.338a.757.757,0,0,1-.756-.756v-5.334a.756.756,0,0,1,1.512,0v5.334A.757.757,0,0,1,2384.433,253.338Z" transform="translate(-2383.677 -246.493)" fill="#f0426a"/>
          </g>
        </g>
        <g id="Group_5754" data-name="Group 5754" transform="translate(0 2.666)">
          <g id="Group_5753" data-name="Group 5753">
            <path id="Path_10220" data-name="Path 10220" d="M2373.153,264.619h-5.334a.756.756,0,0,1,0-1.512h5.334a.756.756,0,1,1,0,1.512Z" transform="translate(-2367.063 -263.107)" fill="#f0426a"/>
          </g>
        </g>
      </g>
      <g id="Group_5760" data-name="Group 5760" transform="translate(42.18 13.121)">
        <g id="Group_5757" data-name="Group 5757" transform="translate(3.485)">
          <g id="Group_5756" data-name="Group 5756">
            <path id="Path_10221" data-name="Path 10221" d="M1413.608,337.2a.989.989,0,0,1-.988-.988v-6.97a.988.988,0,0,1,1.976,0v6.97A.989.989,0,0,1,1413.608,337.2Z" transform="translate(-1412.62 -328.25)" fill="#f0426a"/>
          </g>
        </g>
        <g id="Group_5759" data-name="Group 5759" transform="translate(0 3.485)">
          <g id="Group_5758" data-name="Group 5758">
            <path id="Path_10222" data-name="Path 10222" d="M1398.866,351.938h-6.97a.988.988,0,1,1,0-1.976h6.97a.988.988,0,1,1,0,1.976Z" transform="translate(-1390.908 -349.962)" fill="#f0426a"/>
          </g>
        </g>
      </g>
      <g id="Group_5765" data-name="Group 5765" transform="translate(273.021 174.819)">
        <g id="Group_5762" data-name="Group 5762" transform="translate(2.666)">
          <g id="Group_5761" data-name="Group 5761">
            <path id="Path_10223" data-name="Path 10223" d="M2846.626,1342.62a.757.757,0,0,1-.756-.756v-5.334a.756.756,0,0,1,1.512,0v5.334A.756.756,0,0,1,2846.626,1342.62Z" transform="translate(-2845.87 -1335.775)" fill="#f0426a"/>
          </g>
        </g>
        <g id="Group_5764" data-name="Group 5764" transform="translate(0 2.666)">
          <g id="Group_5763" data-name="Group 5763">
            <path id="Path_10224" data-name="Path 10224" d="M2835.346,1353.9h-5.334a.756.756,0,0,1,0-1.512h5.334a.756.756,0,1,1,0,1.512Z" transform="translate(-2829.257 -1352.388)" fill="#f0426a"/>
          </g>
        </g>
      </g>
      <g id="Group_5770" data-name="Group 5770" transform="translate(263.029 118.533)">
        <g id="Group_5767" data-name="Group 5767" transform="translate(2.666)">
          <g id="Group_5766" data-name="Group 5766">
            <path id="Path_10225" data-name="Path 10225" d="M2784.367,991.907a.757.757,0,0,1-.756-.756v-5.333a.756.756,0,0,1,1.512,0v5.333A.756.756,0,0,1,2784.367,991.907Z" transform="translate(-2783.611 -985.062)" fill="#f0426a"/>
          </g>
        </g>
        <g id="Group_5769" data-name="Group 5769" transform="translate(0 2.666)">
          <g id="Group_5768" data-name="Group 5768">
            <path id="Path_10226" data-name="Path 10226" d="M2773.087,1003.188h-5.334a.756.756,0,0,1,0-1.512h5.334a.756.756,0,1,1,0,1.512Z" transform="translate(-2766.997 -1001.676)" fill="#f0426a"/>
          </g>
        </g>
      </g>
    </g>
    <g id="Group_5772" data-name="Group 5772" transform="translate(117.901 163.694)">
      <path id="Path_10227" data-name="Path 10227" d="M1903.451,1281.075a1.426,1.426,0,0,0-1.053-.412h-7.835a15.861,15.861,0,0,0-2.933-6.6h10.676a1.408,1.408,0,0,0,1.465-1.465v-4.675a1.409,1.409,0,0,0-1.466-1.466h-38.123a1.411,1.411,0,0,0-1.466,1.466v6.094a1.487,1.487,0,0,0,1.466,1.466h6.644q9.668,0,12.28,5.177h-18.924a1.411,1.411,0,0,0-1.466,1.466v4.674a1.411,1.411,0,0,0,1.466,1.465h19.566a8.954,8.954,0,0,1-4.7,5.728,20.679,20.679,0,0,1-9.737,1.971h-5.132a1.487,1.487,0,0,0-1.466,1.466v5.82a1.37,1.37,0,0,0,.412,1.008q8.8,9.347,22.819,26.164a1.351,1.351,0,0,0,1.146.55h8.935a1.329,1.329,0,0,0,1.329-.825,1.252,1.252,0,0,0-.184-1.558q-13.378-16.4-21.031-24.56a23.238,23.238,0,0,0,12.647-5.04,17.129,17.129,0,0,0,5.911-10.722h7.7a1.413,1.413,0,0,0,1.466-1.466v-4.674A1.427,1.427,0,0,0,1903.451,1281.075Z" transform="translate(-1862.716 -1266.458)" fill="#fff"/>
    </g>
    <g id="Group_5773" data-name="Group 5773" transform="translate(70.15 230.706)">
      <path id="Path_10228" data-name="Path 10228" d="M1587.977,1692.178a.8.8,0,0,0-.589-.231H1583a8.886,8.886,0,0,0-1.641-3.691h5.973a.788.788,0,0,0,.82-.82v-2.616a.788.788,0,0,0-.82-.82h-21.329a.79.79,0,0,0-.82.82v3.41a.831.831,0,0,0,.82.82h3.717q5.409,0,6.87,2.9h-10.587a.791.791,0,0,0-.82.821v2.615a.79.79,0,0,0,.82.82h10.947a5.01,5.01,0,0,1-2.628,3.2,11.571,11.571,0,0,1-5.447,1.1h-2.871a.832.832,0,0,0-.82.82v3.256a.766.766,0,0,0,.231.564q4.922,5.23,12.767,14.638a.755.755,0,0,0,.641.308h5a.744.744,0,0,0,.744-.462.7.7,0,0,0-.1-.872q-7.485-9.178-11.767-13.741a13,13,0,0,0,7.076-2.82,9.584,9.584,0,0,0,3.307-6h4.307a.791.791,0,0,0,.82-.82v-2.615A.8.8,0,0,0,1587.977,1692.178Z" transform="translate(-1565.187 -1684)" fill="#fff"/>
    </g>
    <g id="Group_5774" data-name="Group 5774" transform="translate(36.274 91.882)">
      <path id="Path_10229" data-name="Path 10229" d="M1362.307,821.942a.288.288,0,0,0-.212-.083h-1.577a3.193,3.193,0,0,0-.59-1.328h2.149a.283.283,0,0,0,.295-.295V819.3a.283.283,0,0,0-.295-.3H1354.4a.284.284,0,0,0-.3.3v1.226a.3.3,0,0,0,.3.3h1.337q1.946,0,2.472,1.042H1354.4a.284.284,0,0,0-.3.3v.941a.284.284,0,0,0,.3.295h3.938a1.8,1.8,0,0,1-.946,1.153,4.164,4.164,0,0,1-1.959.4H1354.4a.3.3,0,0,0-.3.3v1.171a.275.275,0,0,0,.083.2q1.771,1.881,4.593,5.266a.272.272,0,0,0,.23.111h1.8a.268.268,0,0,0,.268-.166.252.252,0,0,0-.037-.314q-2.693-3.3-4.233-4.943a4.679,4.679,0,0,0,2.545-1.015,3.448,3.448,0,0,0,1.19-2.158h1.549a.284.284,0,0,0,.3-.295v-.941A.287.287,0,0,0,1362.307,821.942Z" transform="translate(-1354.108 -819)" fill="#fff"/>
    </g>
    <g id="Group_5775" data-name="Group 5775" transform="translate(167.395 28.809)">
      <path id="Path_10230" data-name="Path 10230" d="M2179.307,428.942a.289.289,0,0,0-.212-.083h-1.577a3.186,3.186,0,0,0-.59-1.328h2.149a.282.282,0,0,0,.295-.295V426.3a.283.283,0,0,0-.295-.3H2171.4a.284.284,0,0,0-.3.3v1.227a.3.3,0,0,0,.3.3h1.337q1.946,0,2.471,1.042H2171.4a.284.284,0,0,0-.3.3v.941a.284.284,0,0,0,.3.295h3.938a1.8,1.8,0,0,1-.945,1.153,4.163,4.163,0,0,1-1.96.4H2171.4a.3.3,0,0,0-.3.3v1.171a.275.275,0,0,0,.083.2q1.771,1.881,4.592,5.266a.273.273,0,0,0,.231.111h1.8a.267.267,0,0,0,.268-.166.253.253,0,0,0-.037-.314q-2.693-3.3-4.233-4.943a4.678,4.678,0,0,0,2.545-1.015,3.448,3.448,0,0,0,1.19-2.158h1.549a.283.283,0,0,0,.295-.295v-.941A.288.288,0,0,0,2179.307,428.942Z" transform="translate(-2171.108 -426)" fill="#fff"/>
    </g>
    <g id="Group_5776" data-name="Group 5776" transform="translate(234.64 61.549)">
      <path id="Path_10231" data-name="Path 10231" d="M2598.307,632.942a.288.288,0,0,0-.212-.083h-1.577a3.217,3.217,0,0,0-.59-1.328h2.148a.284.284,0,0,0,.3-.3V630.3a.285.285,0,0,0-.3-.3H2590.4a.285.285,0,0,0-.3.3v1.227a.3.3,0,0,0,.3.295h1.338q1.945,0,2.471,1.042H2590.4a.285.285,0,0,0-.3.3v.941a.285.285,0,0,0,.3.295h3.938a1.8,1.8,0,0,1-.946,1.153,4.163,4.163,0,0,1-1.96.4H2590.4a.3.3,0,0,0-.3.3v1.171a.277.277,0,0,0,.083.2q1.771,1.881,4.592,5.266a.272.272,0,0,0,.23.111h1.8a.268.268,0,0,0,.268-.166.252.252,0,0,0-.037-.314q-2.692-3.3-4.233-4.943a4.677,4.677,0,0,0,2.546-1.014,3.445,3.445,0,0,0,1.189-2.158h1.55a.284.284,0,0,0,.295-.3v-.941A.287.287,0,0,0,2598.307,632.942Z" transform="translate(-2590.108 -630)" fill="#fff"/>
    </g>
    <g id="Group_5778" data-name="Group 5778" transform="translate(103.781 137.669)">
      <path id="Path_10232" data-name="Path 10232" d="M2128.966,1519.027l-35.807-.863v4.17l32.318,2.78Z" transform="translate(-2042.055 -1451.743)" fill="#6858f7"/>
      <path id="Path_10233" data-name="Path 10233" d="M2062.352,1499.426s-.884-.09-1.589-1.947-2.471-2.036-2.561-1.152a3.1,3.1,0,0,0,.7,1.857l-3.97-1.082a.964.964,0,0,0-1.21,1.043,6.24,6.24,0,0,0,2.081,4.189,5.8,5.8,0,0,0,4.82,1.437Z" transform="translate(-2008.945 -1432.979)" fill="#f7c4a3"/>
      <path id="Path_10234" data-name="Path 10234" d="M1930.693,1112.514l-10.208-8.217-28.5,35.409-24.94-20.076-8.217,10.208.056.045-72.854,90.506-11.292-11.292V1241h31.9l-11.292-11.292,73.742-91.609,24.928,20.066,8.217-10.208-.044-.035Z" transform="translate(-1774.734 -1104.298)" fill="#02b3b7"/>
      <path id="Path_10235" data-name="Path 10235" d="M2262.178,1675.918s.888,27.535,2.665,45.3h-3.553l-7.994-31.089-3.553,31.089h-3.553l-.888-23.983,2.665-15.988Z" transform="translate(-2169.78 -1584.179)" fill="#292a72"/>
      <path id="Path_10236" data-name="Path 10236" d="M2224.075,1958.184v2.387a2.054,2.054,0,0,1-2.054,2.054h-6.766a.527.527,0,0,1-.279-.975l5.546-3.466Z" transform="translate(-2144.112 -1821.144)" fill="#181a44"/>
      <path id="Path_10237" data-name="Path 10237" d="M2318.164,1958.184v2.387a2.054,2.054,0,0,1-2.054,2.054h-6.766a.527.527,0,0,1-.28-.975l5.546-3.466Z" transform="translate(-2223.101 -1821.144)" fill="#181a44"/>
      <path id="Path_10238" data-name="Path 10238" d="M2113.51,1523.729l-18.381,8.853-15.766.365-2.691,3.954,16.024,1.067c3.3-.174,3.928-.335,6.082-1.216l5.745-1.92s2.335,14.159,1.378,18.5c0,0,13.6,8.457,15.026-2.143.86-6.382-1.192-16.761-3.912-25.764A2.643,2.643,0,0,0,2113.51,1523.729Z" transform="translate(-2028.214 -1456.256)" fill="#9792ff"/>
      <path id="Path_10239" data-name="Path 10239" d="M2051.175,1565.385s-.834.01-1.688-1.649-2.523-1.639-2.513-.8a2.913,2.913,0,0,0,.854,1.659l-3.821-.59a.906.906,0,0,0-1.018,1.1,5.863,5.863,0,0,0,2.385,3.69,5.452,5.452,0,0,0,4.652.831Z" transform="translate(-1999.917 -1488.858)" fill="#f7c4a3"/>
      <path id="Path_10240" data-name="Path 10240" d="M2251.377,1591.4l2.411-11.529-3.648,2.259Z" transform="translate(-2173.842 -1503.549)" fill="#6858f7"/>
      <path id="Path_10241" data-name="Path 10241" d="M2297.7,1755.178l-1.221-11.828-.869,3.475Z" transform="translate(-2212.014 -1640.788)" opacity="0.35"/>
      <g id="Group_5777" data-name="Group 5777" transform="translate(72.04 52.641)">
        <path id="Path_10242" data-name="Path 10242" d="M2251.383,1455.85a2.3,2.3,0,0,1-.391.563l-.011.013a5.087,5.087,0,0,1-3.321,1.227.256.256,0,0,1-.243-.321,4.248,4.248,0,0,0-.173-1.85.237.237,0,0,0-.315-.168,4.422,4.422,0,0,1-3.089.425.276.276,0,0,1-.1-.078,9.338,9.338,0,0,1-1.313-2.165c-.045-.1-.96-2.786-.964-2.807.02-.391-1.089-3.9-1.156-4.335a.266.266,0,0,1,.093-.252c.516-.411,2.586-2.057,2.752-2.095.194-.047,4.952-1.018,5.114-.945a13.253,13.253,0,0,1,2.886,6.626,5.349,5.349,0,0,1-.507,3.025h0S2250.6,1455.111,2251.383,1455.85Z" transform="translate(-2237.623 -1441.332)" fill="#ffbe9d"/>
        <path id="Path_10243" data-name="Path 10243" d="M2236.631,1443.682s2.533-5.434.406-9.655-8.411.962-12.682-1.629c0,0-2.72,4.337,2.234,6.027,2.761.943,5.818-.755,5.818-.755l.787,2.949s.205-2.368.979-2.627C2235.662,1437.492,2237.143,1441.2,2236.631,1443.682Z" transform="translate(-2223.611 -1432.301)" fill="#181a44"/>
      </g>
    </g>
  </g>
</svg>
