<svg xmlns="http://www.w3.org/2000/svg" width="146.256" height="146.256" viewBox="0 0 146.256 146.256">
  <g id="Group_6004" data-name="Group 6004" transform="translate(0 0)">
    <path id="Path_10535" data-name="Path 10535" d="M224.212,17.211A12.714,12.714,0,0,0,236.6,1.662,2.143,2.143,0,0,0,234.515,0H213.908a2.143,2.143,0,0,0-2.088,1.662,12.714,12.714,0,0,0,12.392,15.549ZM215.788,4.285h16.848q0,.107,0,.214a8.427,8.427,0,0,1-16.854,0Q215.785,4.392,215.788,4.285Z" transform="translate(-151.084 0)" fill="#41823e"/>
    <path id="Path_10536" data-name="Path 10536" d="M142.4,193.05h-7.427V139.867a2.142,2.142,0,0,0-4.285,0V193.05H117.833V184.9a2.723,2.723,0,0,0-2.8-2.707H92.7v-3.142h27.566a2.717,2.717,0,0,0,2.714-2.714v-7.427a2.717,2.717,0,0,0-2.714-2.714H92.7v-4.285h27.566a2.717,2.717,0,0,0,2.714-2.714v-7.427a2.717,2.717,0,0,0-2.714-2.714H92.7v-4.285h27.566a2.717,2.717,0,0,0,2.714-2.714v-7.427a2.717,2.717,0,0,0-2.714-2.714H92.7v-4.285h37.992v2.212a2.142,2.142,0,0,0,4.285,0v-4.355a2.142,2.142,0,0,0-2.142-2.142h-3.285v-6.427a2.142,2.142,0,0,0-2.142-2.142H113.834v-3.571h24.477a2.483,2.483,0,0,0,2.05-1.1,2.792,2.792,0,0,0,.273-2.568l-8.9-22.419a2.507,2.507,0,0,0-2.323-1.619H93.97a2.507,2.507,0,0,0-2.322,1.619l-8.9,22.419a2.793,2.793,0,0,0,.273,2.568,2.483,2.483,0,0,0,2.05,1.1h24.477v3.57H95.981a2.142,2.142,0,0,0-2.142,2.142v6.427H90.553a2.142,2.142,0,0,0-2.142,2.142V193.05H58.131V125.492a2.142,2.142,0,0,0-2.142-2.142H54.7v-6.427a2.142,2.142,0,0,0-2.142-2.142H36.707v-3.571H61.184a2.483,2.483,0,0,0,2.05-1.1,2.792,2.792,0,0,0,.273-2.568l-8.9-22.419A2.507,2.507,0,0,0,52.286,83.5H16.843a2.507,2.507,0,0,0-2.322,1.619l-8.9,22.419a2.793,2.793,0,0,0,.273,2.568,2.483,2.483,0,0,0,2.05,1.1H32.422v3.571H16.568a2.142,2.142,0,0,0-2.142,2.142v6.427H13.14A2.142,2.142,0,0,0,11,125.492V167a2.142,2.142,0,0,0,4.285,0V127.635H53.846V193.05H49.561v-8.141a2.717,2.717,0,0,0-2.714-2.714H22.281a2.717,2.717,0,0,0-2.714,2.714v8.141H15.283v-16.14a2.142,2.142,0,0,0-4.285,0v16.14H3.856A3.861,3.861,0,0,0,0,196.907a9.008,9.008,0,0,0,9,9H54.824a2.142,2.142,0,1,0,0-4.285H9A4.72,4.72,0,0,1,4.3,197.335H141.952a4.72,4.72,0,0,1-4.694,4.285H64.888a2.142,2.142,0,1,0,0,4.285h72.37a9.008,9.008,0,0,0,9-9,3.861,3.861,0,0,0-3.856-3.856ZM92.179,95.4h9.486l-.63,3.79H90.675Zm13.829,0h11.366l.63,3.79H105.379Zm10.1-7.611.552,3.326H106.72l.552-3.326Zm16.6,11.4h-10.36l-.63-3.79H131.2Zm-13.992,4.285.574,3.453h-15.2l.574-3.453Zm4.917,3.453-.574-3.453h11.349l1.371,3.453ZM129.5,91.112h-8.5l-.552-3.326h7.73ZM95.2,87.786h7.73l-.552,3.326h-8.5Zm-6.225,15.686h11.349l-.574,3.453H87.6Zm9.148,15.594H125.26v4.285H98.123ZM15.052,95.4h9.486l-.63,3.79H13.548Zm13.829,0H40.247l.63,3.79H28.252Zm10.1-7.611.552,3.326H29.593l.552-3.326Zm16.6,11.4H45.221l-.63-3.79h9.486Zm-13.992,4.285.574,3.453h-15.2l.574-3.453Zm4.917,3.453-.574-3.453H57.281l1.371,3.453Zm5.871-15.813h-8.5l-.552-3.326h7.73Zm-34.3-3.326H25.8l-.552,3.326h-8.5Zm-6.225,15.686H23.2l-.574,3.453H10.477ZM18.71,123.35v-4.285H50.418v4.285Zm5.142,69.7v-6.57H45.277v6.57Zm94.838-22.567v4.285H92.7v-4.285Zm0-17.139v4.285H92.7v-4.285Zm0-17.139v4.285H92.7V136.2ZM92.7,193.05v-6.57h20.853v6.57Z" transform="translate(0 -59.648)" fill="#41823e"/>
    <path id="Path_10537" data-name="Path 10537" d="M71.214,265.855h7.427a2.717,2.717,0,0,0,2.714-2.714v-7.427A2.717,2.717,0,0,0,78.641,253H71.214a2.717,2.717,0,0,0-2.714,2.714v7.427A2.717,2.717,0,0,0,71.214,265.855Zm1.571-8.57H77.07v4.285H72.785Z" transform="translate(-48.932 -180.729)" fill="#41823e"/>
    <path id="Path_10538" data-name="Path 10538" d="M131.214,265.855h7.427a2.717,2.717,0,0,0,2.714-2.714v-7.427A2.717,2.717,0,0,0,138.641,253h-7.427a2.717,2.717,0,0,0-2.714,2.714v7.427A2.717,2.717,0,0,0,131.214,265.855Zm1.571-8.57h4.285v4.285h-4.285Z" transform="translate(-91.793 -180.729)" fill="#41823e"/>
    <path id="Path_10539" data-name="Path 10539" d="M68.5,323.141a2.717,2.717,0,0,0,2.714,2.714h7.427a2.717,2.717,0,0,0,2.714-2.714v-7.427A2.717,2.717,0,0,0,78.641,313H71.214a2.717,2.717,0,0,0-2.714,2.714Zm4.285-5.856H77.07v4.285H72.785Z" transform="translate(-48.932 -223.589)" fill="#41823e"/>
    <path id="Path_10540" data-name="Path 10540" d="M128.5,323.141a2.717,2.717,0,0,0,2.714,2.714h7.427a2.717,2.717,0,0,0,2.714-2.714v-7.427A2.717,2.717,0,0,0,138.641,313h-7.427a2.717,2.717,0,0,0-2.714,2.714Zm4.285-5.856h4.285v4.285h-4.285Z" transform="translate(-91.793 -223.589)" fill="#41823e"/>
    <path id="Path_10541" data-name="Path 10541" d="M68.5,383.141a2.717,2.717,0,0,0,2.714,2.714h7.427a2.717,2.717,0,0,0,2.714-2.714v-7.427A2.717,2.717,0,0,0,78.641,373H71.214a2.717,2.717,0,0,0-2.714,2.714Zm4.285-5.856H77.07v4.285H72.785Z" transform="translate(-48.932 -266.45)" fill="#41823e"/>
    <path id="Path_10542" data-name="Path 10542" d="M128.5,383.141a2.717,2.717,0,0,0,2.714,2.714h7.427a2.717,2.717,0,0,0,2.714-2.714v-7.427A2.717,2.717,0,0,0,138.641,373h-7.427a2.717,2.717,0,0,0-2.714,2.714Zm4.285-5.856h4.285v4.285h-4.285Z" transform="translate(-91.793 -266.45)" fill="#41823e"/>
    <path id="Path_10543" data-name="Path 10543" d="M248.5,73.8V77.27a2.142,2.142,0,0,0,4.285,0V73.8a2.142,2.142,0,0,0-4.285,0Z" transform="translate(-177.514 -51.191)" fill="#41823e"/>
    <path id="Path_10544" data-name="Path 10544" d="M292.875,54.169a2.142,2.142,0,0,0,0,3.03l2.45,2.45a2.142,2.142,0,1,0,3.03-3.03l-2.45-2.45A2.142,2.142,0,0,0,292.875,54.169Z" transform="translate(-208.765 -38.247)" fill="#41823e"/>
    <path id="Path_10545" data-name="Path 10545" d="M312.511,14.078h3.465a2.142,2.142,0,1,0,0-4.285h-3.465a2.142,2.142,0,0,0,0,4.285Z" transform="translate(-221.71 -6.996)" fill="#41823e"/>
    <path id="Path_10546" data-name="Path 10546" d="M176.642,14.078h3.465a2.142,2.142,0,0,0,0-4.285h-3.465a2.142,2.142,0,0,0,0,4.285Z" transform="translate(-124.653 -6.996)" fill="#41823e"/>
    <path id="Path_10547" data-name="Path 10547" d="M196.8,59.649a2.142,2.142,0,0,0,3.03,0l2.45-2.45a2.142,2.142,0,1,0-3.029-3.03l-2.45,2.45A2.142,2.142,0,0,0,196.8,59.649Z" transform="translate(-140.135 -38.247)" fill="#41823e"/>
  </g>
</svg>
