<svg xmlns="http://www.w3.org/2000/svg" xmlns:xlink="http://www.w3.org/1999/xlink" width="373.686" height="324.38" viewBox="0 0 373.686 324.38">
  <defs>
    <clipPath id="clip-path">
      <path id="SVGID" d="M1271.361,714.6c2.018-1.367,6.21-7.475,7.91-7.934,1.434-.387,3.353.7,4.818,1.046,2.137.506,4.13.441,6.136,1.444.881.44,1.832,2.814,2.147,3.663a12.613,12.613,0,0,1,.306,2.653c.545,3.616-.789,3.214-3.771,5.378-1.6,1.164-2.839,2.487-4.873,2.995-2.629.657-4.753-.74-7.236-.74" transform="translate(-1271.361 -706.583)" fill="none" clip-rule="evenodd"/>
    </clipPath>
    <clipPath id="clip-path-2">
      <path id="SVGID-2" data-name="SVGID" d="M1022.933,677.592a4.47,4.47,0,0,1-1.022-3.686c.433-2.543.86-5.487,1.84-7.447,1.785-3.572,11.953-16.945,16.848-15.764,3.567.861,6.1,4.47,8.424,7.075,3.244,3.636,11.994,7.311,9.051,14.15-1.3,3.02-5.112,3.657-7.636,5.232-1.633,1.02-2.494,3.046-4.08,4.277-5.625,4.367-12.5,2.686-18.592.823-.93-.284-3.3-2.886-4.833-4.661Z" transform="translate(-1021.846 -650.621)" fill="none" clip-rule="evenodd"/>
    </clipPath>
    <clipPath id="clip-path-3">
      <path id="SVGID-3" data-name="SVGID" d="M-204.452-538.266v-29.677h80.71v29.677h-.016c-.279,5.745-4.212,11.441-11.8,15.821-15.752,9.095-41.33,9.095-57.082,0-7.586-4.38-11.519-10.076-11.8-15.821Z" transform="translate(204.452 567.943)" fill="none" clip-rule="evenodd"/>
    </clipPath>
    <clipPath id="clip-path-4">
      <path id="SVGID-4" data-name="SVGID" d="M-192.638-797.369c15.752-9.095,41.33-9.095,57.082,0s15.752,23.862,0,32.956-41.33,9.095-57.082,0-15.752-23.862,0-32.956Z" transform="translate(204.452 804.19)" fill="none" clip-rule="evenodd"/>
    </clipPath>
    <clipPath id="clip-path-5">
      <path id="SVGID-5" data-name="SVGID" d="M-82.2-799.174c11.136-6.429,29.219-6.429,40.355,0s11.136,16.869,0,23.3-29.219,6.43-40.355,0-11.136-16.869,0-23.3Z" transform="translate(90.553 803.996)" fill="none" clip-rule="evenodd"/>
    </clipPath>
    <clipPath id="clip-path-6">
      <path id="SVGID-6" data-name="SVGID" d="M-103.435-575.519l6.69-13.026,10.222-6.186,18.09,11.886,5.027,13.736v23.285l-.161,1.652c-12.7,2.2-27.044.4-37.071-5.391a32.421,32.421,0,0,1-2.8-1.807v-24.149Z" transform="translate(103.435 594.73)" fill="none" clip-rule="evenodd"/>
    </clipPath>
    <clipPath id="clip-path-7">
      <path id="Intersection_1" data-name="Intersection 1" d="M1.35,27.757q-.7-.4-1.35-.821V19.211L6.69,6.186,16.913,0,35,11.886,40.03,25.621v7.357a63.454,63.454,0,0,1-12.063,1.14C18.331,34.118,8.7,32,1.35,27.757Z" fill="none"/>
    </clipPath>
    <clipPath id="clip-path-9">
      <path id="Intersection_2" data-name="Intersection 2" d="M0,6,.056,0,5.083,3.3V6Z" fill="none"/>
    </clipPath>
    <clipPath id="clip-path-11">
      <path id="SVGID-9" data-name="SVGID" d="M-1069.86,183.738l46.706-48.113-66.7-38.511-46.706,48.113,66.7,38.511Z" transform="translate(1136.564 -97.114)" fill="none" clip-rule="evenodd"/>
    </clipPath>
    <clipPath id="clip-path-12">
      <path id="SVGID-10" data-name="SVGID" d="M406.075,921.414c12.267-7.433,32.185-7.433,44.451,0s12.267,19.5,0,26.936-32.185,7.433-44.451,0-12.267-19.5,0-26.936Z" transform="translate(-396.875 -915.838)" fill="none" clip-rule="evenodd"/>
    </clipPath>
    <clipPath id="clip-path-13">
      <path id="Intersection_3" data-name="Intersection 3" d="M7.309,19.464A21.02,21.02,0,0,1,0,12.52,21.019,21.019,0,0,1,7.309,5.575c12.267-7.433,32.185-7.433,44.451,0a21.019,21.019,0,0,1,7.309,6.945,21.02,21.02,0,0,1-7.309,6.945c-6.133,3.717-14.179,5.575-22.226,5.575S13.442,23.181,7.309,19.464Z" fill="none"/>
    </clipPath>
    <clipPath id="clip-path-14">
      <path id="SVGID-11" data-name="SVGID" d="M-264.143,643.267v22.327l20.544,11.861L-222.55,665.3V642.636a1.246,1.246,0,0,1,.623-1.079l11.418-6.592a1.247,1.247,0,0,1,1.7.456,1.246,1.246,0,0,1-.456,1.7l-10.8,6.233v22.667a1.246,1.246,0,0,1-.623,1.079l-22.295,12.872a1.247,1.247,0,0,1-1.246,0l-21.79-12.581a1.246,1.246,0,0,1-.623-1.079V645.828l2.492-2.56Z" transform="translate(266.635 -634.798)" fill="none" clip-rule="evenodd"/>
    </clipPath>
    <clipPath id="clip-path-15">
      <path id="SVGID-12" data-name="SVGID" d="M465.656-125.862l-4.3,2.482a1.609,1.609,0,0,1-1.609,0L423.53-144.29a1.609,1.609,0,0,1-.8-1.394V-184.6l-10.333-5.966c-1.538-.889.146-3.634,1.609-2.787l11.138,6.431a1.609,1.609,0,0,1,.8,1.393v38.912l34.608,19.981,3.378-1.95,2.805-2.826c.308-.433.88-.513,1.535-.135a3.925,3.925,0,0,1,1.775,3.074,1.307,1.307,0,0,1-.438,1.095l.009.013-.063.024a.872.872,0,0,1-.318.121l-3.579,1.354Z" transform="translate(-411.783 193.509)" fill="none" clip-rule="evenodd"/>
    </clipPath>
    <clipPath id="clip-path-16">
      <path id="SVGID-13" data-name="SVGID" d="M730.032,778.889c-7.711-7.455,3.548-11.073,4.291-10.517.535.4,2.657,2.622,3.264,3.3.808.9.361,2.633.032,3.624-.922,2.783-1.951,4.553-5.125,4.553-.456,0-1.2.255-1.632.082-.383-.153-.755-1-.881-1" transform="translate(-727.345 -768.317)" fill="none" clip-rule="evenodd"/>
    </clipPath>
  </defs>
  <g id="Group_5902" data-name="Group 5902" transform="translate(-1286.522 -3070.959)">
    <g id="Group_3293" data-name="Group 3293" transform="translate(1286.522 3070.959)">
      <g id="Group_3260" data-name="Group 3260" transform="translate(1.028 134.335)">
        <path id="Path_6158" data-name="Path 6158" d="M-936.954,9.125v9.054l-205.119,118.33-167.539-96.651L-1148-53.377l4.4-.158,206.458,62.6Z" transform="translate(1309.612 53.535)" fill="#9c6a41" fill-rule="evenodd"/>
        <path id="Path_6159" data-name="Path 6159" d="M507.581,549.465l.183.055v9.054L302.808,676.9v-9.214Z" transform="translate(-135.106 -486.86)" fill="#845335" fill-rule="evenodd"/>
      </g>
      <path id="Path_6160" data-name="Path 6160" d="M-943.236-201.845-1148.2-83.6l-.356.206-167.893-96.856,189.225-108.613Z" transform="translate(1316.77 398.767)" fill="#dccaac" fill-rule="evenodd"/>
      <path id="Path_6161" data-name="Path 6161" d="M-943.084-201.772-1148.2-83.6l-168.249-96.65,189.224-108.613,183.991,87.02Z" transform="translate(1316.77 398.767)" fill="none" fill-rule="evenodd"/>
      <path id="Path_6162" data-name="Path 6162" d="M902.12,343.391l-13.4,7.734,13.833,7.986,13.4-7.734-13.833-7.986Z" transform="translate(-659.263 -167.958)" fill="#d8bd9d" fill-rule="evenodd"/>
      <path id="Path_6163" data-name="Path 6163" d="M419.614,1093.321l-99.276,57.317c.483-2.651.477-5.907,1.44-8.4,3.714-9.628,9.383-11.986,6.971-24.7-1.189-6.263-2.882-7.978-5.725-13.4l78.768-14.6h1.37c1.439,0,1.638,1.712,2.82,1.974,3.643.808,7.5.655,11.161,1.53A12.853,12.853,0,0,0,419.614,1093.321Z" transform="translate(-149.9 -836.523)" fill="#cfae8f" fill-rule="evenodd"/>
      <g id="Group_3262" data-name="Group 3262" transform="translate(269.218 213.174)">
        <g id="Group_3261" data-name="Group 3261" clip-path="url(#clip-path)">
          <path id="Path_6164" data-name="Path 6164" d="M1269.653,731.442c1.8-.058,1.545,1.179,2.946,1.886,1.786.9,3.808,1.039,4.775,2.976,1.271,2.548.936,3.443,4.062,6.407.676.641-.111,2.792-.713,3.591-1.058,1.4-3.439,1.646-4.858,1.964-5.017,1.122-5.9,1.286-8.106-4.205-.623-1.549-1.8-2.58-2.189-4.3-.062-.276-.232-1.1-.232-.813" transform="translate(-1265.964 -728.859)" fill="#a27353" fill-rule="evenodd"/>
          <path id="Path_6165" data-name="Path 6165" d="M1384.212,816.266c1.694,2.151,4.178,2.038,8.758.05.173-.075,1.228-.52,1.312-.111.286,1.4-2.795,2.717-3.652,3.481a27.85,27.85,0,0,1-2.492,2.492c-.642.442-3.429.738-2.785.364" transform="translate(-1372.495 -804.671)" fill="#a27353" fill-rule="evenodd"/>
        </g>
      </g>
      <g id="Group_3264" data-name="Group 3264" transform="translate(243.3 207.368)">
        <g id="Group_3263" data-name="Group 3263" clip-path="url(#clip-path-2)">
          <path id="Path_6166" data-name="Path 6166" d="M1065.787,622.028c-.64.32-.012,2.132.465,2.65,2.947,3.2,1.359,11.726-2.913,11.9-1.213.05-2.623.564-3.753.655-.516.042-1.21.2-1.341.72-.474,1.9.278,3.995.948,5.763a5.943,5.943,0,0,1,.357,2.112c0,3.595-4.791-1.178-6.47-.409-.395.181-.541.706-1.018.851a1.569,1.569,0,0,1-1.162-.311c-4.922-2.7-1.089-13.189,1.18-15.929.855-1.033,12.789-9.569,14.119-9.332" transform="translate(-1045.739 -623.802)" fill="#cda380" fill-rule="evenodd"/>
        </g>
      </g>
      <path id="Path_6167" data-name="Path 6167" d="M1251.1,798.584c-.8.99-2.816,2.98-3.117,4.178a1.384,1.384,0,0,0,.689,1.4c1.183.934,4.038,6.485,5,4.566a24.522,24.522,0,0,0,1.653-6.16c.42-2.733-3.9-1.784-3.9-3.838" transform="translate(-981.173 -575.855)" fill="#af7c59" fill-rule="evenodd"/>
      <path id="Path_6168" data-name="Path 6168" d="M1272.509,738.4c0,.1,0,.2.006.293a1.672,1.672,0,0,0,.1.473c1.773,4.892-1.235,4.9-.719,8.066.164,1.007,1.343,2.006,1.739,2.97.067.163.153.524.428.372.789-.437,2.074-6.626,1.663-7.63-.313-.766-1.209-1.628-1.323-2.42-.108-.753.116-1.285-.466-1.882-.229-.235-.73-.2-.894-.371-.1-.1.539-.368.592-.4" transform="translate(-1002.581 -521.449)" fill="#af7c59" fill-rule="evenodd"/>
      <path id="Path_6169" data-name="Path 6169" d="M1213.345,823.723a9.425,9.425,0,0,1-4.293,3.48c-.333.128-1.56.409-1.146.96a1.048,1.048,0,0,0,.667.346c1.77.385,3.621-.612,5.424-.253.584.116,1.5.791,2.146.533a20.735,20.735,0,0,0-.134-2.545c0-.162-.66-2.013-.573-2.013" transform="translate(-945.213 -598.385)" fill="#af7c59" fill-rule="evenodd"/>
      <path id="Path_6170" data-name="Path 6170" d="M-248.352,904.459l-20.143,11.63,23.12,13.348,20.143-11.63-23.12-13.348Z" transform="translate(377.713 -670.72)" fill="#d3ba9a" fill-rule="evenodd"/>
      <path id="Path_6171" data-name="Path 6171" d="M-292.727,951.272l-9.12-5.266a1.246,1.246,0,0,0-1.7.456,1.246,1.246,0,0,0,.456,1.7l9.12,5.265a1.246,1.246,0,0,0,1.7-.456,1.246,1.246,0,0,0-.456-1.7Z" transform="translate(409.265 -707.811)" fill="#d3ba9a" fill-rule="evenodd"/>
      <path id="Path_6172" data-name="Path 6172" d="M90.374,920.548,109.342,909.6a1.246,1.246,0,1,0-1.246-2.158L89.128,918.39a1.246,1.246,0,1,0,1.246,2.158Z" transform="translate(57.803 -673.247)" fill="#d3ba9a" fill-rule="evenodd"/>
      <path id="Path_6173" data-name="Path 6173" d="M-1064.273,451.856l-49.322,28.476,66.413,38.343L-997.86,490.2l-66.413-38.343Z" transform="translate(1134.974 -265.121)" fill="#d3ba9a" fill-rule="evenodd"/>
      <path id="Path_6174" data-name="Path 6174" d="M634.451,382.058l10.459-6.038a1.246,1.246,0,1,1,1.246,2.158l-11.082,6.4a1.247,1.247,0,0,1-1.246,0l-26.481-15.289a1.246,1.246,0,1,1,1.246-2.158l25.858,14.929Z" transform="translate(-406.559 -189.078)" fill="#d8bd9d" fill-rule="evenodd"/>
      <path id="Path_6175" data-name="Path 6175" d="M117.168,730.775c-3.475-2.007-8.74-2.225-11.75-.487l-11.5,6.642c-3.01,1.738-2.632,4.778.844,6.784l12.594,7.271c3.475,2.006,8.74,2.225,11.75.487l11.5-6.642c3.01-1.738,2.632-4.778-.844-6.784l-12.594-7.271Z" transform="translate(54.784 -513.596)" fill="#d3ba9a" fill-rule="evenodd"/>
      <path id="Path_6176" data-name="Path 6176" d="M279.446,554.2l-36.778-21.234a1.246,1.246,0,1,1,1.246-2.158l38.647,22.313a1.246,1.246,0,0,1,0,2.158L265.909,564.9a1.246,1.246,0,0,1-1.246-2.158l14.782-8.534Z" transform="translate(-79.775 -335.744)" fill="#d3ba9a" fill-rule="evenodd"/>
      <path id="Path_6177" data-name="Path 6177" d="M1192.67-448.241c-.646-5.124-3.353-8.363-1.679-13.754a9.924,9.924,0,0,1,1.461-3.039c.331-.418.74-.773,1.073-1.19.011-.014.392-.487.4-.479.346.346.333,1.377.588,1.843a23.079,23.079,0,0,1,1.539,2.728c.983,2.574-.059,5.465-.989,7.856a20.548,20.548,0,0,0-1.041,3.853,8.291,8.291,0,0,0,.045,1.687" transform="translate(-929.651 557.96)" fill="none" fill-rule="evenodd"/>
      <path id="Path_6178" data-name="Path 6178" d="M1209.441-346.768a7.049,7.049,0,0,0,.211-1.693c.423-2.49.652-4.757,2.8-6.33a2.089,2.089,0,0,1,2.36-.065c.826.49,1.7.669,2.308,1.455a6.011,6.011,0,0,1,.847,2.386,8.532,8.532,0,0,1,.181.969c.012.11.067.432.026.33a2.434,2.434,0,0,0-2.437-.873c-.979.652-1.164,2.128-2.089,2.806-2.042,1.5-3.114.227-4.345.718-.09.036-.245.123-.032.123" transform="translate(-946.416 458.031)" fill="none" fill-rule="evenodd"/>
      <path id="Path_6179" data-name="Path 6179" d="M1038.627-313.279a10.738,10.738,0,0,1,.574-2.846,19.287,19.287,0,0,1,5.437-9.549,8.411,8.411,0,0,1,3.776-2.243c.465-.128.958-.265,1.409-.433.09-.033.766-.113.692-.039-.148.148-.467.211-.647.336a6.632,6.632,0,0,0-2.185,2.36c-1.589,2.991-.215,5.957-3.8,8.528-1.2.859-2.659,1.365-3.718,2.425a4.178,4.178,0,0,0-.782,1.319,2.736,2.736,0,0,1-.317.627" transform="translate(-793.596 434.047)" fill="none" fill-rule="evenodd"/>
      <path id="Path_6180" data-name="Path 6180" d="M1180.613-118.009a17.222,17.222,0,0,0-4.734-9.51c-.334-.324-.567-.743-.989-.964-1.524-.8-2.748-1.868-4.532-1.868a2.747,2.747,0,0,0-1.52.595,8.861,8.861,0,0,1-.776.62c-.007,0-.027.013-.019.013.272,0,.544-.169.86-.142a3.6,3.6,0,0,1,1.661.821c2.928,2.376,1.793,5.358,3.9,8.03,1.009,1.28,2.9.5,3.989,1.5a4.342,4.342,0,0,1,1.073,1.617c.053.133.458.737.369.737" transform="translate(-909.564 256.558)" fill="none" fill-rule="evenodd"/>
      <path id="Path_6181" data-name="Path 6181" d="M340.187-201.773,249.693-149.6c-1.772-12.088,18.575-15.405,12.373-28.411-8.44-17.7-21.544-10.753-33.889-20.018-5.881-4.413-8.822-12.5-13.71-17.843-13.527-14.783-28.709-18.354-47.164-24.8-7.775-2.718-16.164-2.224-23.661-5.115-4.3-1.657-20.852-13.193-27.823-19.885l40.372-23.192Z" transform="translate(33.499 398.663)" fill="#cfae8f" fill-rule="evenodd"/>
      <path id="Path_6182" data-name="Path 6182" d="M286.89,895.966c-3.944-1.572-17.779,7.876-18.556,12.363-.533,3.076-5.286,11.172-4.757,12.633.9,2.494,6.178,5.409,8.3,7.2,2.972,2.506,4.265,5.526,8.089,7.292,4.772,2.2,9.43,1.711,14.512,2.015,3.421.2,7,1.811,10.519,2.047,2.988.2,5.5-.768,8.4-1.152,16.069-2.124,33.536-6.777,39.683-22.612,2.678-6.9-5.526-14.561-11.769-17.431-1.563-.718-3.4-.686-4.965-1.408-2.621-1.21-5.2-3.379-8.089-4.093-6.515-1.612-14.422-.96-21.074-.96-7.185,0-20.293,4.11-20.293,4.11Z" transform="translate(-99.008 -659.252)" fill="#cfae8f" fill-rule="evenodd"/>
      <path id="Path_6183" data-name="Path 6183" d="M1025.248,723.38c-1.579.623-1.423,4.056-.491,5.218.615.767.776,1.87,1.49,2.536,5.884,5.484,15.283,5.042,22.227,1.936,2.409-1.078,4.529-2.895,6.941-3.916,2.086-.883,4.324-.533,6.341-1.8,2.341-1.472,9.766-3.786,12.188-5.134,6.98-3.886,12.225-3.116,16.025-11.687,2.467-5.565-17.44-4.3-19.78-3.96-.278.04-9.282,1.657-9.282,1.234" transform="translate(-780.506 -493.066)" fill="#cfae8f" fill-rule="evenodd"/>
      <path id="Path_6184" data-name="Path 6184" d="M1271.361,714.6c2.018-1.367,6.21-7.475,7.91-7.934,1.434-.387,3.353.7,4.818,1.046,2.137.506,4.13.441,6.136,1.444.881.44,1.832,2.814,2.147,3.663a12.613,12.613,0,0,1,.306,2.653c.545,3.616-.789,3.214-3.771,5.378-1.6,1.164-2.839,2.487-4.873,2.995-2.629.657-4.753-.74-7.236-.74" transform="translate(-1002.143 -493.409)" fill="#c18e63" fill-rule="evenodd"/>
      <path id="Path_6185" data-name="Path 6185" d="M-258.027,96.854c17.862-10.313,47.622-9.876,66.415.974s19.55,28.032,1.688,38.345-47.622,9.876-66.416-.974-19.55-28.032-1.687-38.345Z" transform="translate(379.925 59.662)" fill="#d8bd9d" fill-rule="evenodd"/>
      <path id="Path_6186" data-name="Path 6186" d="M-203.729-396.812l29.636-15.372a.846.846,0,0,1,1.078.26l15.559,21.8,10.027-4.542,3.43-1.981a1.068,1.068,0,0,1,.989-.042,1.068,1.068,0,0,1,.6.788l5.895,34.729a.845.845,0,0,1,.059.165v0l0,.007,0,.007v.086c0,.019,0,.039,0,.058v.084c0,.017,0,.034,0,.051l4.1,24.168a.834.834,0,0,1,.033.109v.015a.853.853,0,0,1,.017.217,1.069,1.069,0,0,1-.886,1.139,1.055,1.055,0,0,1-.321.006l-39.224,22.646a1.069,1.069,0,0,1-.988.663,1.069,1.069,0,0,1-.988-.663l-39.163-22.611a1.114,1.114,0,0,1-.39,0,1.113,1.113,0,0,1-.911-1.283l10.117-59.6a1.113,1.113,0,0,1,1.283-.911l.027,0Zm12.478,59.478,16.48,21.711v-23.206l-16.48,1.494Zm18.616,21.7,16.47-21.769-16.47-1.433v23.2Zm2.127-.007,34.633-20-18.3-1.593-16.333,21.588Zm-40.817-19.877,34.413,19.868-16.325-21.508-18.087,1.64Zm12.807-8.6-11.788,6.806,15.863-1.438-4.074-5.368Zm45.548,5.292,15.6,1.358-11.573-6.681-4.028,5.323Zm5.056-6.683,13.181,7.61-3.47-20.445-9.711,12.835Zm-64.709,7.581,13.074-7.548-9.638-12.7-3.436,20.246Zm36.187-2.455-14.276-8.242-6.33,3.655,4.585,6.04,16.021-1.453Zm5.481-.008,16,1.392,4.541-6-6.276-3.624-14.261,8.234Zm-18.065-9.21L-175.868-342l-6.256-11.575-6.9,3.982Zm16.386,7.508,6.519-11.972-6.519-3.764v15.735Zm2.239-.574,12.01-6.934-6.265-3.617-5.745,10.551Zm-10.263-11.762,5.887,10.892v-14.292l-5.887,3.4Zm-17.414,8.1,5.669-3.273-14.514-8.38,8.845,11.653Zm43.07-3.273,5.613,3.241,8.707-11.508L-155-349.595Zm-53.416-11.2,17.707,10.223,7.783-4.493-7.681-14.21-17.81,8.481Zm44.577,6.1,7.147,4.127,17.522-10.117-.722-.421-16.253-7.72-7.695,14.131Zm-8.793-21.973v16.9l7.328,4.231,7.63-14.012-14.842-7.049a.879.879,0,0,1-.115-.066Zm-2.137-.071a.847.847,0,0,1-.82.316L-189.081-370l7.617,14.092,6.692-3.864v-16.968Zm-33.633,13.967,16.241-9.377-11.148-20.626-5.093,30Zm53.85-8.979,13.823,7.98-10.3-14.441-3.518,6.46Zm4.417-8.112,10.864,15.224-4.552-26.817-6.312,11.593Zm-21.654,1.734,14.724,6.993-13.341-7.791-1.382.8Zm-18.1,6.623.008.016,12.558-5.98-1.054-.683-11.512,6.647Zm21.2-8.41,12.677,7.319,3.891-7.145-4.922-6.9-11.646,6.724Zm-22,6.922,10.723-6.191-21.647-14.021L-190.7-373Zm18.165-7.174-1.172-.684-3.031,1.75,1.2.779.879-.418a1.067,1.067,0,0,1,.419-.442l1.7-.984Zm-1.516-2.434,15.023-6.806-14.939-20.935-28.322,14.691,23.956,15.517,4.2-2.426.021-.012,0,0,.006,0,0,0,0,0,0,0,0,0h0l.006,0,0,0,.023-.011Zm2.2.862,1.021.59,8.465-4.887-9.487,4.3Zm16.275-5.75,4.35,6.1,6.835-12.552-11.184,6.457Z" transform="translate(329.944 509.223)" fill="#45525d" fill-rule="evenodd"/>
      <path id="Path_6187" data-name="Path 6187" d="M-246.314,305.329a7.047,7.047,0,0,1,6.373,0c1.759,1.015,1.759,2.664,0,3.679a7.047,7.047,0,0,1-6.373,0c-1.759-1.015-1.759-2.664,0-3.679Z" transform="translate(359.009 -133.173)" fill="#45525d" fill-rule="evenodd"/>
      <path id="Path_6188" data-name="Path 6188" d="M143.566,529.789a7.047,7.047,0,0,1,6.373,0c1.759,1.015,1.759,2.664,0,3.679a7.047,7.047,0,0,1-6.373,0c-1.759-1.015-1.759-2.664,0-3.679Z" transform="translate(9.64 -334.31)" fill="#45525d" fill-rule="evenodd"/>
      <path id="Path_6189" data-name="Path 6189" d="M524.986,299.929a7.046,7.046,0,0,1,6.373,0c1.759,1.015,1.759,2.664,0,3.679a7.046,7.046,0,0,1-6.373,0c-1.758-1.015-1.758-2.664,0-3.679Z" transform="translate(-332.148 -128.334)" fill="#45525d" fill-rule="evenodd"/>
      <path id="Path_6190" data-name="Path 6190" d="M149.2,87.492a6.147,6.147,0,0,1,5.56,0c1.534.886,1.534,2.324,0,3.21a6.148,6.148,0,0,1-5.56,0c-1.534-.886-1.534-2.324,0-3.21Z" transform="translate(4.437 61.943)" fill="#45525d" fill-rule="evenodd"/>
      <path id="Path_6191" data-name="Path 6191" d="M-204.452-538.266v-29.677h80.71v29.677h-.016c-.279,5.745-4.212,11.441-11.8,15.821-15.752,9.095-41.33,9.095-57.082,0-7.586-4.38-11.519-10.076-11.8-15.821Z" transform="translate(320.338 648.69)" fill="#c2cfdd" fill-rule="evenodd"/>
      <g id="Group_3266" data-name="Group 3266" transform="translate(115.886 80.747)">
        <g id="Group_3265" data-name="Group 3265" transform="translate(0 0)" clip-path="url(#clip-path-3)">
          <path id="Path_6192" data-name="Path 6192" d="M382.887-810.139H342.241V-710.7h40.646v-99.439Z" transform="translate(-285.482 784.993)" fill="#b4c2c5" fill-rule="evenodd"/>
          <path id="Path_6193" data-name="Path 6193" d="M541.107-919.039H500.461V-819.6h40.646v-99.439Z" transform="translate(-427.275 882.587)" fill="#a7b4b8" fill-rule="evenodd"/>
        </g>
      </g>
      <path id="Path_6194" data-name="Path 6194" d="M396.16-210.145c1.11-.641,2.011-.12,2.011,1.161a4.448,4.448,0,0,1-2.011,3.484c-1.11.641-2.011.121-2.011-1.161a4.449,4.449,0,0,1,2.011-3.484Z" transform="translate(-216.089 328.304)" fill="#84999b" fill-rule="evenodd"/>
      <path id="Path_6195" data-name="Path 6195" d="M398.86-208.586c1.11-.641,2.011-.121,2.011,1.161a4.448,4.448,0,0,1-2.011,3.484c-1.11.641-2.011.12-2.011-1.161a4.448,4.448,0,0,1,2.011-3.484Z" transform="translate(-218.509 326.906)" fill="#dbdee5" fill-rule="evenodd"/>
      <path id="Path_6196" data-name="Path 6196" d="M-192.638-797.369c15.752-9.095,41.33-9.095,57.082,0s15.752,23.862,0,32.956-41.33,9.095-57.082,0-15.752-23.862,0-32.956Z" transform="translate(320.338 860.384)" fill="#dbdee5" fill-rule="evenodd"/>
      <g id="Group_3268" data-name="Group 3268" transform="translate(115.886 56.195)">
        <g id="Group_3267" data-name="Group 3267" transform="translate(0)" clip-path="url(#clip-path-4)">
          <path id="Path_6197" data-name="Path 6197" d="M298.141-635.745l4.878,17.959,17.66-1.159,6.8-19.66-13.829-8.634-15.511,11.493" transform="translate(-245.96 663.533)" fill="#e5e6e5" fill-rule="evenodd"/>
        </g>
      </g>
      <path id="Path_6198" data-name="Path 6198" d="M-82.2-799.174c11.136-6.429,29.219-6.429,40.355,0s11.136,16.869,0,23.3-29.219,6.43-40.355,0-11.136-16.869,0-23.3Z" transform="translate(218.267 860.208)" fill="#eff0f0" fill-rule="evenodd"/>
      <g id="Group_3270" data-name="Group 3270" transform="translate(127.714 56.212)">
        <g id="Group_3269" data-name="Group 3269" transform="translate(0)" clip-path="url(#clip-path-5)">
          <path id="Path_6199" data-name="Path 6199" d="M-69.362-761.835h-75.369v6.167h75.369v-6.167Z" transform="translate(139.106 766.213)" fill="#fff" fill-rule="evenodd"/>
        </g>
      </g>
      <path id="Path_6200" data-name="Path 6200" d="M78.942-706.139a17.637,17.637,0,0,1,15.949,0c4.4,2.541,4.4,6.667,0,9.208a17.636,17.636,0,0,1-15.949,0c-4.4-2.541-4.4-6.667,0-9.208Z" transform="translate(69.33 774.224)" fill="#ebeced" fill-rule="evenodd"/>
      <path id="Path_6201" data-name="Path 6201" d="M148.4-673.585a6.063,6.063,0,0,1,5.483,0c1.513.874,1.513,2.292,0,3.166a6.064,6.064,0,0,1-5.483,0c-1.513-.874-1.513-2.292,0-3.166Z" transform="translate(5.145 743.931)" fill="#b4c2c5" fill-rule="evenodd"/>
      <path id="Path_6202" data-name="Path 6202" d="M148.4-679.165a6.063,6.063,0,0,1,5.483,0c1.513.874,1.513,2.292,0,3.166a6.065,6.065,0,0,1-5.483,0c-1.513-.874-1.513-2.292,0-3.166Z" transform="translate(5.145 748.931)" fill="#dbdee5" fill-rule="evenodd"/>
      <path id="Path_6203" data-name="Path 6203" d="M-201.932-388.279l0,.01.012-.025-.007.015Z" transform="translate(318.059 487.695)" fill="#dbdee5" fill-rule="evenodd"/>
      <path id="Path_6204" data-name="Path 6204" d="M-103.435-575.519l6.69-13.026,10.222-6.186,18.09,11.886,5.027,13.736v23.285l-.161,1.652c-12.7,2.2-27.044.4-37.071-5.391a32.421,32.421,0,0,1-2.8-1.807v-24.149Z" transform="translate(229.804 672.693)" fill="#00b3d8" fill-rule="evenodd"/>
      <g id="Group_3272" data-name="Group 3272" transform="translate(126.369 77.963)">
        <g id="Group_3271" data-name="Group 3271" transform="translate(0 0)" clip-path="url(#clip-path-6)">
          <path id="Path_6205" data-name="Path 6205" d="M-185.531-484.267c14.69-8.481,38.543-8.481,53.233,0s14.69,22.253,0,30.734-38.543,8.481-53.233,0-14.69-22.253,0-30.734Z" transform="translate(186.882 501.436)" fill="#0095b7" fill-rule="evenodd"/>
          <path id="Path_6206" data-name="Path 6206" d="M-185.531-484.267c14.69-8.481,38.543-8.481,53.233,0s14.69,22.253,0,30.734-38.543,8.481-53.233,0-14.69-22.253,0-30.734Z" transform="translate(186.882 501.436)" fill="#00a5b7" fill-rule="evenodd"/>
          <path id="Path_6207" data-name="Path 6207" d="M-185.531-678.308c14.69-8.481,38.543-8.481,53.233,0s14.69,22.253,0,30.734-38.543,8.481-53.233,0-14.69-22.253,0-30.734Z" transform="translate(186.882 675.331)" fill="#6ccbe8" fill-rule="evenodd"/>
        </g>
      </g>
      <g id="Group_3274" data-name="Group 3274" transform="translate(126.369 77.958)">
        <g id="Group_3273" data-name="Group 3273" transform="translate(0)" clip-path="url(#clip-path-7)">
          <path id="Path_6208" data-name="Path 6208" d="M-185.531-502.267c14.69-8.481,38.543-8.481,53.233,0s14.69,22.253,0,30.734-38.543,8.481-53.233,0-14.69-22.253,0-30.734Z" transform="translate(186.882 517.568)" fill="#4cc1df" fill-rule="evenodd"/>
        </g>
      </g>
      <g id="Group_3276" data-name="Group 3276" transform="translate(126.369 77.963)">
        <g id="Group_3275" data-name="Group 3275" transform="translate(0 0)" clip-path="url(#clip-path-6)">
          <path id="Path_6209" data-name="Path 6209" d="M110.95-517.436a3.183,3.183,0,0,0-1.849,2.653,3.183,3.183,0,0,0,1.849,2.653,9.189,9.189,0,0,0,8.309,0,3.183,3.183,0,0,0,1.849-2.653,3.183,3.183,0,0,0-1.849-2.653,9.188,9.188,0,0,0-8.309,0Zm.441.764a8.213,8.213,0,0,1,7.426,0,2.346,2.346,0,0,1,1.408,1.889,2.346,2.346,0,0,1-1.408,1.889,8.213,8.213,0,0,1-7.426,0,2.346,2.346,0,0,1-1.408-1.889,2.346,2.346,0,0,1,1.408-1.889Z" transform="translate(-87.035 526.351)" fill="#c0e8fb" fill-rule="evenodd"/>
          <path id="Path_6210" data-name="Path 6210" d="M70.356-540.873c-2.1,1.215-3.122,2.834-3.122,4.428s1.017,3.213,3.122,4.428a15.987,15.987,0,0,0,14.457,0c2.1-1.215,3.122-2.834,3.122-4.428s-1.017-3.213-3.122-4.428a15.988,15.988,0,0,0-14.457,0Zm.441.764a15.011,15.011,0,0,1,13.575,0c1.763,1.018,2.68,2.328,2.68,3.664s-.917,2.646-2.68,3.664a15.011,15.011,0,0,1-13.575,0c-1.763-1.018-2.68-2.328-2.68-3.664s.917-2.646,2.68-3.664Z" transform="translate(-49.515 548.013)" fill="#c0e8fb" fill-rule="evenodd"/>
          <path id="Path_6211" data-name="Path 6211" d="M-1.962-582.626c-3.616,2.088-5.388,4.852-5.388,7.59s1.773,5.5,5.388,7.59c7.012,4.049,18.4,4.049,25.41,0,3.616-2.087,5.388-4.851,5.388-7.59s-1.773-5.5-5.388-7.59c-7.012-4.049-18.4-4.049-25.41,0Zm.441.764c6.769-3.908,17.759-3.908,24.528,0,3.275,1.891,4.947,4.346,4.947,6.826s-1.672,4.935-4.947,6.826c-6.769,3.908-17.759,3.908-24.528,0-3.275-1.891-4.947-4.346-4.947-6.826s1.672-4.935,4.947-6.826Z" transform="translate(17.326 586.604)" fill="#c0e8fb" fill-rule="evenodd"/>
          <path id="Path_6212" data-name="Path 6212" d="M-130.793-657.007c-6.308,3.642-9.427,8.445-9.427,13.223s3.119,9.581,9.427,13.223c12.4,7.157,32.526,7.157,44.923,0,6.308-3.642,9.427-8.445,9.427-13.223s-3.119-9.581-9.427-13.223c-12.4-7.157-32.526-7.157-44.923,0Zm.441.764c12.153-7.017,31.887-7.017,44.041,0,5.967,3.445,8.986,7.939,8.986,12.459s-3.019,9.013-8.986,12.459c-12.153,7.017-31.887,7.017-44.041,0-5.967-3.445-8.986-7.939-8.986-12.459s3.019-9.014,8.986-12.459Z" transform="translate(136.401 655.352)" fill="#c0e8fb" fill-rule="evenodd"/>
          <path id="Path_6213" data-name="Path 6213" d="M145.12-644.079l-.155,16.533h5.083v-17.043" transform="translate(-119.175 639.413)" fill="#a8e0fa" fill-rule="evenodd"/>
        </g>
      </g>
      <g id="Group_3278" data-name="Group 3278" transform="translate(152.168 83.826)">
        <g id="Group_3277" data-name="Group 3277" transform="translate(0 0)" clip-path="url(#clip-path-9)">
          <path id="Path_6214" data-name="Path 6214" d="M130.388-529.877c.344.463.059,1.263.686,1.6.822.447,1.335-.5,1.589-.429.665.184.442,1.322,1.355,1.351.367.011.569-.469,1-.5h.04c.052,0,.072,0,.1.03.007.007.052.072.057.079.159.264.291.756.819.756.093,0,.164.015.206-.052.159-.252.469-1.252-.032-1.421-.362-.122-1.2.257-1.738.071-.5-.173-.5-.643-.94-.8-.481-.172-.955.226-1.415.114-.8-.2-.466-.506-.875-.8-.3-.216-.791.225-1.069.1-.244-.11-.307-.4-.569-.533a1.027,1.027,0,0,0-.46-.076c-.041,0-.153.072-.1.014" transform="translate(-130.68 531.194)" fill="#d7f0fd" fill-rule="evenodd"/>
          <path id="Path_6215" data-name="Path 6215" d="M114.368-551.3c.344.463.059,1.263.686,1.6.822.447,1.335-.5,1.589-.429.665.185.442,1.322,1.355,1.351.367.011.569-.469,1-.5h.04c.052,0,.072,0,.1.03.007.007.052.072.056.079.159.264.291.756.819.756.093,0,.164.015.206-.052.159-.252.469-1.252-.032-1.421-.362-.122-1.2.257-1.738.071-.5-.173-.5-.643-.94-.8-.481-.172-.955.226-1.415.114-.8-.2-.466-.506-.875-.8-.3-.216-.791.226-1.069.1-.244-.11-.307-.4-.569-.532a1.029,1.029,0,0,0-.46-.076c-.04,0-.153.072-.1.014" transform="translate(-116.323 550.391)" fill="#d7f0fd" fill-rule="evenodd"/>
        </g>
      </g>
      <g id="Group_3280" data-name="Group 3280" transform="translate(126.369 77.963)">
        <g id="Group_3279" data-name="Group 3279" transform="translate(0 0)" clip-path="url(#clip-path-6)">
          <path id="Path_6216" data-name="Path 6216" d="M-107.948-416.433l-1.607.928v25.664l1.607-.928v-25.664Z" transform="translate(108.92 434.945)" fill="#93a7ad" fill-rule="evenodd"/>
          <path id="Path_6217" data-name="Path 6217" d="M-108.108-526.157l1.271.133,6-11.738-.262-1.888L-108.3-526.96l.187.8Z" transform="translate(107.791 545.368)" fill="#b4c2c5" fill-rule="evenodd"/>
          <path id="Path_6218" data-name="Path 6218" d="M-39.6-590.721l10.148-6.672-.131-1.476L-39.9-592.721l.3,2Z" transform="translate(46.492 598.44)" fill="#b4c2c5" fill-rule="evenodd"/>
          <path id="Path_6219" data-name="Path 6219" d="M58.466-598.845l18.277,11.9L76.65-588.4,58.2-600.489l.262,1.644Z" transform="translate(-41.423 599.891)" fill="#b4c2c5" fill-rule="evenodd"/>
          <path id="Path_6220" data-name="Path 6220" d="M-103.435-180.3l1.009-.43c11.269,6.471,24.442,8.413,39.207,6.56v1.588L-77.832-170.4l-17.716-4.28-7.886-5.625Z" transform="translate(103.435 223.712)" fill="#dbdee5" fill-rule="evenodd"/>
          <path id="Path_6221" data-name="Path 6221" d="M233.183-488.194l4.354,12.764-.112,24.182.953,1.327,2.018-2.224-.019-26.556-7.214-11.269.019,1.775Z" transform="translate(-198.218 500.846)" fill="#84999b" fill-rule="evenodd"/>
        </g>
      </g>
      <path id="Path_6222" data-name="Path 6222" d="M141.533-492.339c-.3-.047-1.155.349-1.038.687.059.171.49.17.525.346.043.215-.49.543-.256.742.457.388.89-.5,1.365-.332.285.1.114.636,1.149.678.391.016.656-.441,1.021-.38.749.126.992.806,1.967.312.514-.26.384-.511-.04-.8-.013-.009-.074-.032-.061-.056.093-.172.855-.209.712-.466-.175-.312-.9-.188-1.2-.328-.14-.066.45-.231.405-.319-.176-.349-1.24-.164-.821-.271" transform="translate(11.219 581.096)" fill="#a8e0fa" fill-rule="evenodd"/>
      <path id="Path_6223" data-name="Path 6223" d="M78.153-461.245a.339.339,0,0,1,.339.339.339.339,0,0,1-.339.339.339.339,0,0,1-.339-.339.339.339,0,0,1,.339-.339Zm-2.489-1.369a.419.419,0,0,1,.418.418.419.419,0,0,1-.418.418.419.419,0,0,1-.418-.418.418.418,0,0,1,.418-.418Zm3.562-.845a.419.419,0,0,1,.418.418.419.419,0,0,1-.418.418.419.419,0,0,1-.418-.418.419.419,0,0,1,.418-.418Zm-3.425-1.7a.889.889,0,0,1,.889.888.889.889,0,0,1-.889.889.889.889,0,0,1-.888-.889.889.889,0,0,1,.888-.888Zm2.311.606a.419.419,0,0,1,.418.418.419.419,0,0,1-.418.418.419.419,0,0,1-.418-.418.419.419,0,0,1,.418-.418Zm-5.333-.233a.419.419,0,0,1,.418.418.419.419,0,0,1-.418.418.419.419,0,0,1-.418-.418.419.419,0,0,1,.418-.418Zm7.341-.675a.339.339,0,0,1,.339.339.339.339,0,0,1-.339.339.339.339,0,0,1-.339-.339.339.339,0,0,1,.339-.339Zm-2.6-1.231a.419.419,0,0,1,.419.419.419.419,0,0,1-.419.418.419.419,0,0,1-.418-.418.419.419,0,0,1,.418-.419Zm-5.065-.988a.889.889,0,0,1,.889.889.889.889,0,0,1-.889.888.889.889,0,0,1-.888-.888.889.889,0,0,1,.888-.889Zm10.554.45a.418.418,0,0,1,.418.418.419.419,0,0,1-.418.418.419.419,0,0,1-.418-.418.419.419,0,0,1,.418-.418Zm-8.321-.08a.419.419,0,0,1,.418.418.419.419,0,0,1-.418.418.419.419,0,0,1-.419-.418.419.419,0,0,1,.419-.418Zm5.5-.336a.419.419,0,0,1,.419.418.419.419,0,0,1-.419.418.419.419,0,0,1-.418-.418.419.419,0,0,1,.418-.418Zm-10.577-.019a.339.339,0,0,1,.339.339.339.339,0,0,1-.339.339.339.339,0,0,1-.339-.339.339.339,0,0,1,.339-.339Zm12.977-2.126a.889.889,0,0,1,.889.888.889.889,0,0,1-.889.888.889.889,0,0,1-.888-.888.889.889,0,0,1,.888-.888Zm-5.3-.2a.889.889,0,0,1,.889.888.889.889,0,0,1-.889.889.889.889,0,0,1-.888-.889.889.889,0,0,1,.888-.888Zm-5.541.575a.419.419,0,0,1,.418.418.419.419,0,0,1-.418.419.419.419,0,0,1-.418-.419.419.419,0,0,1,.418-.418Zm8.074-1.544a.419.419,0,0,1,.419.418.419.419,0,0,1-.419.418.419.419,0,0,1-.418-.418.419.419,0,0,1,.418-.418Zm-12.1.079a.339.339,0,0,1,.339.339.339.339,0,0,1-.339.339.339.339,0,0,1-.339-.339.339.339,0,0,1,.339-.339Zm4.772-.858a.339.339,0,0,1,.339.339.339.339,0,0,1-.339.339.339.339,0,0,1-.339-.339.339.339,0,0,1,.339-.339Z" transform="translate(76.726 562.47)" fill="#c0e8fb" fill-rule="evenodd"/>
      <path id="Path_6224" data-name="Path 6224" d="M-448.375,502.076V466.784a.886.886,0,0,1,.886-.886.886.886,0,0,1,.886.886v35.8a.885.885,0,0,1-.443.767l-45.143,26.063a.885.885,0,0,1-.886,0,.886.886,0,0,1-.443-.767V508.289a.886.886,0,0,1,.886-.886.886.886,0,0,1,.886.886v18.828l43.371-25.041Z" transform="translate(579.353 -277.707)" fill="#45525d" fill-rule="evenodd"/>
      <path id="Path_6225" data-name="Path 6225" d="M-1061.476,148.1V112.81a.886.886,0,0,1,.886-.886.886.886,0,0,1,.885.886v35.8a.886.886,0,0,1-.443.767l-45.142,26.063a.886.886,0,0,1-.886,0,.886.886,0,0,1-.443-.767V154.315a.886.886,0,0,1,.885-.886.886.886,0,0,1,.886.886v18.828l43.371-25.04Z" transform="translate(1128.721 39.48)" fill="#45525d" fill-rule="evenodd"/>
      <path id="Path_6226" data-name="Path 6226" d="M-1167.876,134.787l48.448-49.908,69.745,40.268.907-.77v1.294l-49.471,50.961L-1168.9,135.84v-1.294l1.023.241Z" transform="translate(1184.537 63.733)" fill="#34464f" fill-rule="evenodd"/>
      <path id="Path_6227" data-name="Path 6227" d="M-1098.247,164.168l49.471-50.961-70.653-40.791-49.471,50.961,70.653,40.791Z" transform="translate(1184.537 74.902)" fill="#eef0f7" fill-rule="evenodd"/>
      <path id="Path_6228" data-name="Path 6228" d="M-1069.86,183.738l46.706-48.113-66.7-38.511-46.706,48.113,66.7,38.511Z" transform="translate(1155.558 52.767)" fill="#172a45" fill-rule="evenodd"/>
      <g id="Group_3282" data-name="Group 3282" transform="translate(18.994 149.88)">
        <g id="Group_3281" data-name="Group 3281" transform="translate(0 0)" clip-path="url(#clip-path-11)">
          <path id="Path_6229" data-name="Path 6229" d="M-872.935-163.07h-21.53V-60.22h21.53V-163.07Z" transform="translate(919.6 136.058)" fill="#2c486f" fill-rule="evenodd"/>
          <path id="Path_6230" data-name="Path 6230" d="M-1067.149-163.07h-15V-60.22h15V-163.07Z" transform="translate(1087.802 136.058)" fill="#2c486f" fill-rule="evenodd"/>
          <path id="Path_6231" data-name="Path 6231" d="M-185.34-122.607h-8.233V-19.756h8.233V-122.607Z" transform="translate(291.477 99.795)" fill="#395d8d" fill-rule="evenodd"/>
          <path id="Path_6232" data-name="Path 6232" d="M-258.481-83.589h-4.82V19.262h4.82V-83.589Z" transform="translate(353.965 64.828)" fill="#395d8d" fill-rule="evenodd"/>
        </g>
      </g>
      <path id="Path_6233" data-name="Path 6233" d="M-1028.321,155.565l11-11.363a.156.156,0,0,1,.221,0,.157.157,0,0,1,0,.221l-10.944,11.306,8.818,5.091,11.054-11.42a.156.156,0,0,1,.221,0,.156.156,0,0,1,0,.221l-11,11.364,9.558,5.518,11.232-11.6a.156.156,0,0,1,.221,0,.156.156,0,0,1,0,.221l-11.177,11.548,9.48,5.473,11.657-12.043a.156.156,0,0,1,.221,0,.156.156,0,0,1,0,.221l-11.6,11.987,9.393,5.423,11.344-11.72a.156.156,0,0,1,.221,0,.157.157,0,0,1,0,.221l-11.289,11.663,9.56,5.519,12.195-12.6a.156.156,0,0,1,.221,0,.157.157,0,0,1,0,.221l-12.14,12.543,10.54,6.086a.625.625,0,0,1,.229.854.625.625,0,0,1-.854.229l-10.812-6.242-10.722,11.077,10.4,6a.625.625,0,0,1,.229.854.626.626,0,0,1-.854.229l-10.667-6.159-11.9,12.29,10.824,6.249a.625.625,0,0,1,.229.854.625.625,0,0,1-.854.229l-11.095-6.406-10.1,10.431a.156.156,0,0,1-.221,0,.156.156,0,0,1,0-.221l10.042-10.374-9.56-5.519-10.947,11.31a.156.156,0,0,1-.221,0,.156.156,0,0,1,0-.221l10.893-11.254-9.393-5.423-10.634,10.986a.156.156,0,0,1-.221,0,.156.156,0,0,1,0-.221l10.579-10.93-9.48-5.473-11.059,11.425a.156.156,0,0,1-.221,0,.156.156,0,0,1,0-.221l11-11.369-9.558-5.518-11.237,11.61a.156.156,0,0,1-.221,0,.157.157,0,0,1,0-.221l11.183-11.553-8.818-5.091-11.292,11.667a.156.156,0,0,1-.221,0,.156.156,0,0,1,0-.221l11.238-11.61-9.383-5.418a.626.626,0,0,1-.229-.854.626.626,0,0,1,.854-.229l9.655,5.574,11.9-12.29-9.811-5.665a.626.626,0,0,1-.229-.854.626.626,0,0,1,.854-.229l10.083,5.821,10.722-11.077-9.667-5.581a.625.625,0,0,1-.229-.854.625.625,0,0,1,.854-.229l9.938,5.738Zm14.233,47.53,9.56,5.519,11.9-12.29-9.56-5.52-11.9,12.29Zm-9.672-5.584,9.393,5.423,11.9-12.29-9.393-5.423-11.9,12.29Zm-9.759-5.634,9.48,5.473,11.9-12.29-9.48-5.473-11.9,12.29Zm32.223-2,9.56,5.52,10.721-11.077-9.56-5.519-10.721,11.077Zm-42.06-3.682,9.558,5.518,11.9-12.29-9.558-5.518-11.9,12.29Zm32.387-1.9,9.393,5.423,10.722-11.077-9.393-5.423-10.722,11.077Zm-41.484-3.35,8.818,5.091,11.9-12.29-8.818-5.091-11.9,12.29Zm31.726-2.284,9.479,5.473,10.722-11.077-9.48-5.473-10.722,11.077Zm-9.837-5.679L-1021,178.5l10.722-11.077-9.558-5.518-10.721,11.077Zm-9.1-5.252,8.818,5.091,10.722-11.077-8.818-5.091-10.722,11.077Z" transform="translate(1091.343 10.608)" fill="#eef0f7" fill-rule="evenodd"/>
      <path id="Path_6234" data-name="Path 6234" d="M374.13,902.055c13.6-8.242,35.688-8.242,49.29,0s13.6,21.626,0,29.868-35.688,8.242-49.29,0-13.6-21.626,0-29.868Z" transform="translate(-188.979 -663.013)" fill="#f0e1c7" fill-rule="evenodd"/>
      <path id="Path_6235" data-name="Path 6235" d="M406.075,921.414c12.267-7.433,32.185-7.433,44.451,0s12.267,19.5,0,26.936-32.185,7.433-44.451,0-12.267-19.5,0-26.936Z" transform="translate(-218.505 -680.907)" fill="#a27f5b" fill-rule="evenodd"/>
      <g id="Group_3284" data-name="Group 3284" transform="translate(178.37 234.931)">
        <g id="Group_3283" data-name="Group 3283" transform="translate(0)" clip-path="url(#clip-path-12)">
          <path id="Path_6236" data-name="Path 6236" d="M290.981,825.166l-27.616-.4,2.284,57.221,27.616.4-2.284-57.221Z" transform="translate(-277.226 -834.217)" fill="#825e47" fill-rule="evenodd"/>
          <path id="Path_6237" data-name="Path 6237" d="M406.075,1047.08c12.267-7.433,32.185-7.433,44.451,0s12.267,19.5,0,26.936-32.185,7.433-44.451,0-12.267-19.5,0-26.936Z" transform="translate(-396.875 -1028.458)" fill="#22b1b0" fill-rule="evenodd"/>
        </g>
      </g>
      <g id="Group_3286" data-name="Group 3286" transform="translate(180.261 247.981)">
        <g id="Group_3285" data-name="Group 3285" transform="translate(0 0)" clip-path="url(#clip-path-13)">
          <path id="Path_6238" data-name="Path 6238" d="M689.1,1160.624l-6.152-16.75a3.943,3.943,0,0,0-4.561-2.365,3.019,3.019,0,0,0-2.212,4.033l6.153,16.751a3.943,3.943,0,0,0,4.561,2.365,3.019,3.019,0,0,0,2.211-4.033Z" transform="translate(-648.895 -1131.029)" fill="#1e9c9b" fill-rule="evenodd"/>
          <path id="Path_6239" data-name="Path 6239" d="M610.855,1136.776c-1.908,1.023-2.819,2.393-2.819,3.734s.912,2.712,2.819,3.735a15.222,15.222,0,0,0,12.882,0c1.908-1.023,2.82-2.393,2.82-3.735s-.912-2.711-2.82-3.734a15.22,15.22,0,0,0-12.882,0Zm.523.842a13.985,13.985,0,0,1,11.836,0c1.5.806,2.3,1.836,2.3,2.893s-.793,2.087-2.3,2.893a13.985,13.985,0,0,1-11.836,0c-1.5-.806-2.3-1.836-2.3-2.893s.793-2.087,2.3-2.893Z" transform="translate(-588.004 -1125.603)" fill="#71c7c9" fill-rule="evenodd"/>
          <path id="Path_6240" data-name="Path 6240" d="M556.155,1107.441c-3.051,1.636-4.534,3.81-4.534,5.956s1.483,4.32,4.534,5.956c5.841,3.133,15.325,3.133,21.167,0,3.051-1.636,4.534-3.81,4.534-5.956s-1.483-4.32-4.534-5.956c-5.841-3.133-15.326-3.133-21.167,0Zm.523.842c5.552-2.978,14.568-2.978,20.121,0,2.646,1.419,4.011,3.253,4.011,5.115s-1.365,3.7-4.011,5.115c-5.552,2.978-14.568,2.978-20.121,0-2.646-1.419-4.011-3.253-4.011-5.115s1.365-3.7,4.011-5.115Z" transform="translate(-537.446 -1098.49)" fill="#71c7c9" fill-rule="evenodd"/>
          <path id="Path_6241" data-name="Path 6241" d="M504.681,1079.835c-4.126,2.214-6.148,5.144-6.148,8.047s2.021,5.834,6.148,8.047c7.992,4.286,20.97,4.286,28.963,0,4.126-2.213,6.148-5.144,6.148-8.047s-2.021-5.834-6.148-8.047c-7.992-4.286-20.971-4.286-28.963,0Zm.523.842c7.7-4.132,20.213-4.132,27.917,0,3.722,2,5.625,4.587,5.625,7.205s-1.9,5.209-5.625,7.206c-7.7,4.131-20.213,4.131-27.917,0-3.722-2-5.625-4.587-5.625-7.206s1.9-5.209,5.625-7.205Z" transform="translate(-489.87 -1072.975)" fill="#71c7c9" fill-rule="evenodd"/>
          <path id="Path_6242" data-name="Path 6242" d="M452.3,1051.744c-5.221,2.8-7.79,6.5-7.79,10.174s2.569,7.374,7.79,10.174c10.182,5.46,26.714,5.46,36.9,0,5.221-2.8,7.79-6.5,7.79-10.174s-2.569-7.374-7.79-10.174c-10.182-5.461-26.714-5.461-36.9,0Zm.523.841c9.893-5.306,25.957-5.306,35.85,0,4.816,2.583,7.267,5.944,7.267,9.333s-2.45,6.749-7.267,9.332c-9.893,5.306-25.957,5.306-35.85,0-4.817-2.583-7.267-5.943-7.267-9.332s2.45-6.75,7.267-9.333Z" transform="translate(-441.458 -1047.011)" fill="#71c7c9" fill-rule="evenodd"/>
        </g>
      </g>
      <path id="Path_6243" data-name="Path 6243" d="M36.187-613.333l-57.507-33.2a1.868,1.868,0,0,1-.934-1.618v-88.281a1.869,1.869,0,0,1,.727-1.479L-1.994-753a1.869,1.869,0,0,1,1.966-.2,1.868,1.868,0,0,1,1.045,1.677v6.5c.107,1.861-3.625,1.908-3.738,0v-2.693l-15.8,12.2v86.284l59.376,34.281a1.869,1.869,0,0,1,.934,1.619,1.868,1.868,0,0,1-.934,1.618L30.2-605.562a1.87,1.87,0,0,1-2.553-.684,1.87,1.87,0,0,1,.684-2.553l7.853-4.534Z" transform="translate(157.069 814.894)" fill="#22b1b0" stroke="#dbdee5" stroke-linejoin="round" stroke-width="7.5" fill-rule="evenodd"/>
      <path id="Path_6244" data-name="Path 6244" d="M291.779,562.908l-1.939,1.12,16.03,9.255,1.939-1.12-16.03-9.255Z" transform="translate(-122.613 -364.667)" fill="#eff0f0" fill-rule="evenodd"/>
      <path id="Path_6245" data-name="Path 6245" d="M133.963,726.257,115.9,736.683l16.913,9.765,18.058-10.426-16.913-9.765Z" transform="translate(33.255 -511.037)" fill="#84999b" fill-rule="evenodd"/>
      <path id="Path_6246" data-name="Path 6246" d="M133.963,717.909,115.9,728.335l16.913,9.765,18.058-10.426-16.913-9.765Z" transform="translate(33.255 -503.557)" fill="#b4c2c5" fill-rule="evenodd"/>
      <path id="Path_6247" data-name="Path 6247" d="M135.193,765.132l-2.28,4.5,16.913,9.765,1.667-5.586-16.3-8.682Z" transform="translate(18.007 -545.877)" fill="#cacdd5" fill-rule="evenodd"/>
      <path id="Path_6248" data-name="Path 6248" d="M135.021,566.416a9.683,9.683,0,1,1-9.683,9.683,9.688,9.688,0,0,1,9.683-9.683Z" transform="translate(24.796 -367.806)" fill="#b4c2c5" fill-rule="evenodd"/>
      <path id="Path_6249" data-name="Path 6249" d="M141.95,554.676c4.862-2.807,8.81-.528,8.81,5.086s-3.948,12.452-8.81,15.26-8.81.528-8.81-5.087,3.948-12.452,8.81-15.259Z" transform="translate(17.804 -356.208)" fill="#dbdee5" fill-rule="evenodd"/>
      <path id="Path_6250" data-name="Path 6250" d="M160.99,581.523l17.048,9.843,11.536-22.03-16.495-9.463-12.09,21.649Z" transform="translate(-7.148 -361.936)" fill="#dbdee5" fill-rule="evenodd"/>
      <path id="Path_6251" data-name="Path 6251" d="M303.441,647.912c4.862-2.807,8.81-.528,8.81,5.087s-3.948,12.452-8.81,15.26-8.81.528-8.81-5.087,3.948-12.452,8.81-15.26Z" transform="translate(-126.907 -439.755)" fill="#b4c2c5" fill-rule="evenodd"/>
      <path id="Path_6252" data-name="Path 6252" d="M329.2,681.841a7.625,7.625,0,0,1-1.883-5.545c0-6.186,4.349-13.719,9.707-16.813a7.657,7.657,0,0,1,5.7-1.153,7,7,0,0,1,5.091,2.792l-1.5.956a10.208,10.208,0,0,1,.414,3.008c0,6.186-4.35,13.72-9.707,16.813a9.961,9.961,0,0,1-3.061,1.2l.134,1.7a8.432,8.432,0,0,1-4.9-2.957Z" transform="translate(-156.191 -450.012)" fill="#eff0f0" fill-rule="evenodd"/>
      <path id="Path_6253" data-name="Path 6253" d="M368.615,677.727c5.357-3.093,9.707-.582,9.707,5.6s-4.349,13.72-9.707,16.813-9.707.582-9.707-5.6,4.35-13.72,9.707-16.813Z" transform="translate(-184.504 -466.36)" fill="#e3e4e5" fill-rule="evenodd"/>
      <path id="Path_6254" data-name="Path 6254" d="M424.676,752.8c2.135-1.233,3.869-.232,3.869,2.233a8.557,8.557,0,0,1-3.869,6.7c-2.135,1.233-3.869.232-3.869-2.234a8.556,8.556,0,0,1,3.869-6.7Z" transform="translate(-239.976 -534.358)" fill="#b4c2c5" fill-rule="evenodd"/>
      <path id="Path_6255" data-name="Path 6255" d="M433.037,764.592l2.356,1.379,5.066-9.674-2.113-1.212-5.309,9.507Z" transform="translate(-250.935 -536.876)" fill="#b4c2c5" fill-rule="evenodd"/>
      <path id="Path_6256" data-name="Path 6256" d="M449.381,767.066c2.135-1.233,3.869-.232,3.869,2.234a8.556,8.556,0,0,1-3.869,6.7c-2.135,1.233-3.869.232-3.869-2.234a8.556,8.556,0,0,1,3.869-6.7Z" transform="translate(-262.114 -547.139)" fill="#eff0f0" fill-rule="evenodd"/>
      <path id="Path_6257" data-name="Path 6257" d="M373.017,830.4l1.8,1.039-7.337,3.311,5.536-4.351Z" transform="translate(-192.191 -604.37)" fill="#b4c2c5" fill-rule="evenodd"/>
      <path id="Path_6258" data-name="Path 6258" d="M461.965,694.979l2.309,1.333-1.431-8.3-.878,6.966Z" transform="translate(-276.859 -476.774)" fill="#b4c2c5" fill-rule="evenodd"/>
      <path id="Path_6259" data-name="Path 6259" d="M253.495,554.772l-8.91,5.144,10.238,5.911,8.91-5.144-10.238-5.911Z" transform="translate(-82.06 -357.376)" fill="#8db0c8" fill-rule="evenodd"/>
      <path id="Path_6260" data-name="Path 6260" d="M254.823,610.232l-10.238-5.911v3.55l10.238,5.911v-3.55Z" transform="translate(-82.063 -401.777)" fill="#abc4d9" fill-rule="evenodd"/>
      <path id="Path_6261" data-name="Path 6261" d="M352.109,611.706l-8.91,5.144v3.55l8.91-5.144v-3.55Z" transform="translate(-170.431 -408.396)" fill="#456c8d" fill-rule="evenodd"/>
      <path id="Path_6262" data-name="Path 6262" d="M132.818,828.1,115.9,818.33v.867l16.913,9.765V828.1Z" transform="translate(33.248 -593.549)" fill="#cacdd5" fill-rule="evenodd"/>
      <path id="Path_6263" data-name="Path 6263" d="M126.938,813.585a1.366,1.366,0,0,1,1.236,0,.377.377,0,0,1,0,.714,1.367,1.367,0,0,1-1.236,0,.377.377,0,0,1,0-.714Z" transform="translate(23.585 -589.17)" fill="#84999b" fill-rule="evenodd"/>
      <path id="Path_6264" data-name="Path 6264" d="M118.7,736.11l-1.939,1.12,16.03,9.255,1.939-1.12L118.7,736.11Z" transform="translate(32.477 -519.873)" fill="#eff0f0" fill-rule="evenodd"/>
      <path id="Path_6265" data-name="Path 6265" d="M122.631,709.889l-1.939,1.12,16.03,9.255,1.939-1.119-16.03-9.255Z" transform="translate(28.959 -496.376)" fill="#eff0f0" fill-rule="evenodd"/>
      <path id="Path_6266" data-name="Path 6266" d="M122.631,679.8l-1.939,1.119,16.03,9.255,1.939-1.12-16.03-9.255Z" transform="translate(28.959 -469.41)" fill="#eff0f0" fill-rule="evenodd"/>
      <path id="Path_6267" data-name="Path 6267" d="M131.085,655.685l-1.939,1.12,16.03,9.255,1.939-1.12-16.03-9.255Z" transform="translate(21.383 -447.804)" fill="#eff0f0" fill-rule="evenodd"/>
      <path id="Path_6268" data-name="Path 6268" d="M141.308,633.92l-1.939,1.12,16.03,9.255,1.939-1.12-16.03-9.255Z" transform="translate(12.223 -428.3)" fill="#eff0f0" fill-rule="evenodd"/>
      <path id="Path_6269" data-name="Path 6269" d="M159.986,611.491l-1.939,1.12,16.03,9.255,1.939-1.12-16.03-9.255Z" transform="translate(-4.515 -408.202)" fill="#eff0f0" fill-rule="evenodd"/>
      <path id="Path_6270" data-name="Path 6270" d="M266.963,894.429a1.365,1.365,0,0,1,1.236,0,.376.376,0,0,1,0,.713,1.365,1.365,0,0,1-1.236,0,.376.376,0,0,1,0-.713Z" transform="translate(-101.89 -661.613)" fill="#84999b" fill-rule="evenodd"/>
      <path id="Path_6271" data-name="Path 6271" d="M413.341,609.7a2.1,2.1,0,0,1,2.173.188,6.683,6.683,0,0,1,3.021,5.233,2.512,2.512,0,0,1-1.809,2.393c-3.523-.925-7.273-1.4-11.726,3.578l-.641-3.978c1.454-3.287,5-5.468,8.982-7.414Z" transform="translate(-225.234 -406.396)" fill="#eff0f0" fill-rule="evenodd"/>
      <path id="Path_6272" data-name="Path 6272" d="M-264.143,643.267v22.327l20.544,11.861L-222.55,665.3V642.636a1.246,1.246,0,0,1,.623-1.079l11.418-6.592a1.247,1.247,0,0,1,1.7.456,1.246,1.246,0,0,1-.456,1.7l-10.8,6.233v22.667a1.246,1.246,0,0,1-.623,1.079l-22.295,12.872a1.247,1.247,0,0,1-1.246,0l-21.79-12.581a1.246,1.246,0,0,1-.623-1.079V645.828l2.492-2.56Z" transform="translate(376.05 -429.066)" fill="#f57729" fill-rule="evenodd"/>
      <g id="Group_3288" data-name="Group 3288" transform="translate(109.416 205.732)">
        <g id="Group_3287" data-name="Group 3287" transform="translate(0)" clip-path="url(#clip-path-14)">
          <path id="Path_6273" data-name="Path 6273" d="M-262.549,758.714a.907.907,0,0,1,.906.906.907.907,0,0,1-.906.906.907.907,0,0,1-.906-.906.907.907,0,0,1,.906-.906Z" transform="translate(263.785 -745.849)" fill="#ffac28" fill-rule="evenodd"/>
          <path id="Path_6274" data-name="Path 6274" d="M-262.549,832.694a.907.907,0,0,1,.906.906.907.907,0,0,1-.906.906.907.907,0,0,1-.906-.906.907.907,0,0,1,.906-.906Z" transform="translate(263.785 -812.148)" fill="#ffac28" fill-rule="evenodd"/>
          <path id="Path_6275" data-name="Path 6275" d="M-262.549,913.875a.907.907,0,0,1,.906.906.907.907,0,0,1-.906.907.907.907,0,0,1-.906-.907.907.907,0,0,1,.906-.906Z" transform="translate(263.785 -884.9)" fill="#ffac28" fill-rule="evenodd"/>
          <path id="Path_6276" data-name="Path 6276" d="M105.911,957.974a.907.907,0,1,1-.906.907.907.907,0,0,1,.906-.907Z" transform="translate(-66.42 -924.421)" fill="#ffac28" fill-rule="evenodd"/>
          <path id="Path_6277" data-name="Path 6277" d="M148.031,935.294a.906.906,0,1,1-.906.906.907.907,0,0,1,.906-.906Z" transform="translate(-104.167 -904.096)" fill="#ffac28" fill-rule="evenodd"/>
          <path id="Path_6278" data-name="Path 6278" d="M162.611,864.375a.906.906,0,1,1-.906.906.907.907,0,0,1,.906-.906Z" transform="translate(-117.234 -840.54)" fill="#ffac28" fill-rule="evenodd"/>
          <path id="Path_6279" data-name="Path 6279" d="M162.251,790.395a.906.906,0,1,1-.906.906.907.907,0,0,1,.906-.906Z" transform="translate(-116.911 -774.24)" fill="#ffac28" fill-rule="evenodd"/>
          <path id="Path_6280" data-name="Path 6280" d="M161.531,727.4a.906.906,0,1,1-.906.906.907.907,0,0,1,.906-.906Z" transform="translate(-116.266 -717.781)" fill="#ffac28" fill-rule="evenodd"/>
          <path id="Path_6281" data-name="Path 6281" d="M192.491,683.114a.906.906,0,1,1-.906.906.907.907,0,0,1,.906-.906Z" transform="translate(-144.012 -678.098)" fill="#ffac28" fill-rule="evenodd"/>
          <path id="Path_6282" data-name="Path 6282" d="M247.031,653.055a.906.906,0,1,1-.906.906.907.907,0,0,1,.906-.906Z" transform="translate(-192.889 -651.159)" fill="#ffac28" fill-rule="evenodd"/>
        </g>
      </g>
      <path id="Path_6283" data-name="Path 6283" d="M270.508,629.511a2.97,2.97,0,0,1,1.344,2.327c0,.856-.6,1.2-1.344.776a2.971,2.971,0,0,1-1.343-2.327c0-.856.6-1.2,1.343-.775Z" transform="translate(-104.092 -424.189)" fill="#f57729" fill-rule="evenodd"/>
      <path id="Path_6284" data-name="Path 6284" d="M-194.325,914.286l-17.191-9.926v11.9l17.191,9.925v-11.9Z" transform="translate(326.647 -670.633)" fill="#dbdee5" fill-rule="evenodd"/>
      <path id="Path_6285" data-name="Path 6285" d="M-30.532,914.315l-15.4,8.892v11.9l15.4-8.892v-11.9Z" transform="translate(178.269 -679.554)" fill="#8a9dab" fill-rule="evenodd"/>
      <path id="Path_6286" data-name="Path 6286" d="M83.88,943.176c0-.194-.118-.284-.264-.2l-.528.305a.633.633,0,0,0-.264.5v3.667c0,.194.118.284.264.2l.528-.3a.633.633,0,0,0,.264-.5v-3.667Z" transform="translate(62.887 -705.218)" fill="#34464f" fill-rule="evenodd"/>
      <path id="Path_6287" data-name="Path 6287" d="M64.413,954.416c0-.195-.118-.284-.264-.2l-.528.305a.633.633,0,0,0-.264.5v3.667c0,.195.118.284.264.2l.528-.305a.633.633,0,0,0,.264-.5v-3.667Z" transform="translate(80.331 -715.29)" fill="#34464f" fill-rule="evenodd"/>
      <path id="Path_6288" data-name="Path 6288" d="M44.945,965.655c0-.194-.118-.284-.264-.2l-.528.3a.633.633,0,0,0-.264.5v3.667c0,.194.118.284.264.2l.528-.305a.633.633,0,0,0,.264-.5v-3.667Z" transform="translate(97.777 -725.362)" fill="#34464f" fill-rule="evenodd"/>
      <path id="Path_6289" data-name="Path 6289" d="M-64.154,885.2v1.659l19-11.165.017-4.853L-64.154,885.2Z" transform="translate(194.598 -640.6)" fill="#a4bac9" fill-rule="evenodd"/>
      <path id="Path_6290" data-name="Path 6290" d="M-211.4,923.034l-17.058-9.848v1.773l17.058,9.849v-1.773Z" transform="translate(341.825 -678.548)" fill="#e6e9f0" fill-rule="evenodd"/>
      <path id="Path_6291" data-name="Path 6291" d="M-192.393,783.862l-19,14.339-17.058-9.745,18.752-14.693,17.31,10.1Z" transform="translate(341.831 -553.605)" fill="#fef6f8" fill-rule="evenodd"/>
      <path id="Path_6292" data-name="Path 6292" d="M485.728,822.667,471.857,792l-7.306-4.218c-1.861-1.074-.649-2.785.425-4.646s1.607-3.172,3.468-2.1l8.391,4.844a3.9,3.9,0,0,1,1.6,1.767L493.293,820.5a3.9,3.9,0,0,1,.251.749c-1.92,1.638-4.623,1.944-7.816,1.42Z" transform="translate(-278.299 -559.764)" fill="#25b4c1" stroke="#dbdee5" stroke-linejoin="round" stroke-width="8.5" fill-rule="evenodd"/>
      <path id="Path_6293" data-name="Path 6293" d="M455.579,779.442c-1.086-.057-1.823-.962-1.823-2.489a7.722,7.722,0,0,1,3.491-6.047c1.325-.765,2.478-.577,3.07.339l.955.977a1.55,1.55,0,0,1,.461.4c-.035-.005-.07-.008-.106-.011l-.652.057a3.307,3.307,0,0,0-.886.364,6.918,6.918,0,0,0-3.128,5.418,2.623,2.623,0,0,0,.467,1.628,1.567,1.567,0,0,1-.5-.156l-1.345-.482Z" transform="translate(-269.501 -550.626)" fill="#34464f" fill-rule="evenodd"/>
      <path id="Path_6294" data-name="Path 6294" d="M650.075,1158.942c.756.525,1.058,1.7,2.1,1.864,1.116.176,1.326-1.053,2.347-1.149.628-.058.827.812,1.553.889a1.044,1.044,0,0,0,.451-.008c.786-.389,1.285-1.708,2.175-1.857.437-.073.7.307,1,.307.745,0,.771.223.7,1.149-.071.984.074.629-.668,1.066-.668.394-1.389,2.018-6.592,1.676-.848-.056-2.293,1.109-2.954.445a4.125,4.125,0,0,1-.916-1.165c-.252-.594-.085-2.682.711-2.541" transform="translate(-444.609 -898.482)" fill="#22b1b0" fill-rule="evenodd"/>
      <path id="Path_6295" data-name="Path 6295" d="M609.215,976.076a1.345,1.345,0,1,1-1.345,1.345,1.346,1.346,0,0,1,1.345-1.345Z" transform="translate(-407.604 -734.909)" fill="#8dd1d3" fill-rule="evenodd"/>
      <path id="Path_6296" data-name="Path 6296" d="M652.055,1034.576a1.345,1.345,0,1,1-1.345,1.345,1.345,1.345,0,0,1,1.345-1.345Z" transform="translate(-445.993 -787.33)" fill="#8dd1d3" fill-rule="evenodd"/>
      <path id="Path_6297" data-name="Path 6297" d="M677.794,1107.3a1.345,1.345,0,1,1-1.345,1.345,1.345,1.345,0,0,1,1.345-1.345Z" transform="translate(-469.057 -852.494)" fill="#8dd1d3" fill-rule="evenodd"/>
      <path id="Path_6298" data-name="Path 6298" d="M572.675,858.717a1.345,1.345,0,1,1-1.345,1.345,1.346,1.346,0,0,1,1.345-1.345Z" transform="translate(-374.861 -629.744)" fill="#8dd1d3" fill-rule="evenodd"/>
      <path id="Path_6299" data-name="Path 6299" d="M554.037,590.876a.887.887,0,1,1-.887.887.887.887,0,0,1,.887-.887Z" transform="translate(-358.57 -389.734)" fill="#8dd1d3" fill-rule="evenodd"/>
      <path id="Path_6300" data-name="Path 6300" d="M496.977,540.477a.887.887,0,1,1-.887.887.887.887,0,0,1,.887-.887Z" transform="translate(-307.439 -344.571)" fill="#8dd1d3" fill-rule="evenodd"/>
      <path id="Path_6301" data-name="Path 6301" d="M395.637,488.457a.887.887,0,1,1-.887.887.887.887,0,0,1,.887-.887Z" transform="translate(-216.629 -297.957)" fill="#8dd1d3" fill-rule="evenodd"/>
      <path id="Path_6302" data-name="Path 6302" d="M304.377,432.656a.887.887,0,1,1-.887.887.888.888,0,0,1,.887-.887Z" transform="translate(-134.851 -247.953)" fill="#8dd1d3" fill-rule="evenodd"/>
      <path id="Path_6303" data-name="Path 6303" d="M184.857,363.9a.887.887,0,1,1-.887.887.887.887,0,0,1,.887-.887Z" transform="translate(-27.75 -186.339)" fill="#8dd1d3" fill-rule="evenodd"/>
      <path id="Path_6304" data-name="Path 6304" d="M.357,260.4a.887.887,0,1,1-.887.887.887.887,0,0,1,.887-.887Z" transform="translate(137.58 -93.592)" fill="#8dd1d3" fill-rule="evenodd"/>
      <path id="Path_6305" data-name="Path 6305" d="M-10.623,109.2a.887.887,0,0,1,.887.887.887.887,0,0,1-.887.887.887.887,0,0,1-.887-.887.887.887,0,0,1,.887-.887Z" transform="translate(147.419 41.896)" fill="#8dd1d3" fill-rule="evenodd"/>
      <path id="Path_6306" data-name="Path 6306" d="M-10.623-50.1a.888.888,0,0,1,.887.887.888.888,0,0,1-.887.887.887.887,0,0,1-.887-.887.887.887,0,0,1,.887-.887Z" transform="translate(147.419 184.645)" fill="#8dd1d3" fill-rule="evenodd"/>
      <path id="Path_6307" data-name="Path 6307" d="M-13.683-164.4a.887.887,0,0,1,.887.887.887.887,0,0,1-.887.887.887.887,0,0,1-.887-.887.887.887,0,0,1,.887-.887Z" transform="translate(150.161 287.068)" fill="#8dd1d3" fill-rule="evenodd"/>
      <path id="Path_6308" data-name="Path 6308" d="M-11.523-260.7a.887.887,0,0,1,.887.887.887.887,0,0,1-.887.887.887.887,0,0,1-.887-.887.887.887,0,0,1,.887-.887Z" transform="translate(148.225 373.362)" fill="#8dd1d3" fill-rule="evenodd"/>
      <path id="Path_6309" data-name="Path 6309" d="M-17.463-356.1a.887.887,0,0,1,.887.887.887.887,0,0,1-.887.887.887.887,0,0,1-.887-.887.887.887,0,0,1,.887-.887Z" transform="translate(153.548 458.849)" fill="#8dd1d3" fill-rule="evenodd"/>
      <path id="Path_6310" data-name="Path 6310" d="M-8.643-442.683a.887.887,0,0,1,.887.887.887.887,0,0,1-.887.887.887.887,0,0,1-.887-.887.887.887,0,0,1,.887-.887Z" transform="translate(145.644 536.433)" fill="#8dd1d3" fill-rule="evenodd"/>
      <path id="Path_6311" data-name="Path 6311" d="M-9.183-594.784a.888.888,0,0,1,.887.887.887.887,0,0,1-.887.887.887.887,0,0,1-.887-.887.888.888,0,0,1,.887-.887Z" transform="translate(146.128 672.73)" fill="#8dd1d3" fill-rule="evenodd"/>
      <path id="Path_6312" data-name="Path 6312" d="M88.917-679.923a.887.887,0,0,1,.887.887.887.887,0,0,1-.887.887.887.887,0,0,1-.887-.887.887.887,0,0,1,.887-.887Z" transform="translate(58.221 749.022)" fill="#8dd1d3" fill-rule="evenodd"/>
      <path id="Path_6313" data-name="Path 6313" d="M170.637-732.123a.887.887,0,0,1,.887.887.887.887,0,0,1-.887.887.887.887,0,0,1-.887-.887.887.887,0,0,1,.887-.887Z" transform="translate(-15.007 795.799)" fill="#8dd1d3" fill-rule="evenodd"/>
      <path id="Path_6314" data-name="Path 6314" d="M177.3-704.583a.887.887,0,0,1,.887.887.887.887,0,0,1-.887.887.887.887,0,0,1-.887-.887.887.887,0,0,1,.887-.887Z" transform="translate(-20.975 771.12)" fill="#8dd1d3" fill-rule="evenodd"/>
      <path id="Path_6315" data-name="Path 6315" d="M920.41,343.384l-11.839-6.836v8.2l11.839,6.836v-8.2Z" transform="translate(-677.055 -161.826)" fill="#dbdee5" fill-rule="evenodd"/>
      <path id="Path_6316" data-name="Path 6316" d="M1033.214,343.4l-10.607,6.124v8.2l10.607-6.124v-8.2Z" transform="translate(-779.243 -167.97)" fill="#8a9dab" fill-rule="evenodd"/>
      <path id="Path_6317" data-name="Path 6317" d="M1087.3,377.543c0-.134-.082-.2-.182-.138l-.364.21a.436.436,0,0,0-.182.348v2.526c0,.134.082.2.182.137l.364-.21a.437.437,0,0,0,.182-.348v-2.526Z" transform="translate(-836.571 -198.424)" fill="#34464f" fill-rule="evenodd"/>
      <path id="Path_6318" data-name="Path 6318" d="M1073.9,385.284c0-.134-.081-.2-.182-.138l-.364.21a.436.436,0,0,0-.182.348v2.525c0,.134.082.2.182.138l.364-.21a.436.436,0,0,0,.182-.348v-2.525Z" transform="translate(-824.557 -205.36)" fill="#34464f" fill-rule="evenodd"/>
      <path id="Path_6319" data-name="Path 6319" d="M1060.489,393.024c0-.134-.081-.2-.182-.138l-.364.21a.436.436,0,0,0-.182.348v2.525c0,.134.082.2.182.138l.364-.21a.435.435,0,0,0,.182-.348v-2.525Z" transform="translate(-812.543 -212.297)" fill="#34464f" fill-rule="evenodd"/>
      <path id="Path_6320" data-name="Path 6320" d="M919.177,277.566l-10.607,6.124,11.839,6.836,10.607-6.124-11.84-6.836Z" transform="translate(-677.05 -108.973)" fill="#eff0f0" fill-rule="evenodd"/>
      <path id="Path_6321" data-name="Path 6321" d="M465.656-125.862l-4.3,2.482a1.609,1.609,0,0,1-1.609,0L423.53-144.29a1.609,1.609,0,0,1-.8-1.394V-184.6l-10.333-5.966c-1.538-.889.146-3.634,1.609-2.787l11.138,6.431a1.609,1.609,0,0,1,.8,1.393v38.912l34.608,19.981,3.378-1.95,2.805-2.826c.308-.433.88-.513,1.535-.135a3.925,3.925,0,0,1,1.775,3.074,1.307,1.307,0,0,1-.438,1.095l.009.013-.063.024a.872.872,0,0,1-.318.121l-3.579,1.354Z" transform="translate(-231.866 313.175)" fill="#1ebcf0" fill-rule="evenodd"/>
      <g id="Group_3290" data-name="Group 3290" transform="translate(179.917 119.666)">
        <g id="Group_3289" data-name="Group 3289" transform="translate(0 0)" clip-path="url(#clip-path-15)">
          <path id="Path_6322" data-name="Path 6322" d="M778.392,392.441a3.607,3.607,0,1,1-3.607,3.607,3.608,3.608,0,0,1,3.607-3.607Z" transform="translate(-737.097 -331.606)" fill="#ace1fa" fill-rule="evenodd"/>
          <path id="Path_6323" data-name="Path 6323" d="M683.711,337.776a3.607,3.607,0,1,1-3.607,3.607,3.608,3.608,0,0,1,3.607-3.607Z" transform="translate(-652.246 -282.617)" fill="#ace1fa" fill-rule="evenodd"/>
          <path id="Path_6324" data-name="Path 6324" d="M539.172,254.327a3.607,3.607,0,1,1-3.607,3.607,3.608,3.608,0,0,1,3.607-3.607Z" transform="translate(-522.714 -207.832)" fill="#ace1fa" fill-rule="evenodd"/>
          <path id="Path_6325" data-name="Path 6325" d="M499.752,133.187a3.607,3.607,0,1,1-3.607,3.607,3.608,3.608,0,0,1,3.607-3.607Z" transform="translate(-487.386 -99.269)" fill="#ace1fa" fill-rule="evenodd"/>
          <path id="Path_6326" data-name="Path 6326" d="M458.352-178.393a3.608,3.608,0,0,1,3.607,3.607,3.609,3.609,0,0,1-3.607,3.607,3.608,3.608,0,0,1-3.607-3.607,3.608,3.608,0,0,1,3.607-3.607Z" transform="translate(-450.284 179.962)" fill="#ace1fa" fill-rule="evenodd"/>
          <path id="Path_6327" data-name="Path 6327" d="M503.532-31.514a3.608,3.608,0,0,1,3.607,3.607,3.608,3.608,0,0,1-3.607,3.607,3.608,3.608,0,0,1-3.607-3.607,3.608,3.608,0,0,1,3.607-3.607Z" transform="translate(-490.774 48.333)" fill="#ace1fa" fill-rule="evenodd"/>
        </g>
      </g>
      <path id="Path_6328" data-name="Path 6328" d="M465.656-125.862l-4.3,2.482a1.609,1.609,0,0,1-1.609,0L423.53-144.29a1.609,1.609,0,0,1-.8-1.394V-184.6l-10.333-5.966c-1.538-.889.146-3.634,1.609-2.787l11.138,6.431a1.609,1.609,0,0,1,.8,1.393v38.912l34.608,19.981,3.378-1.95,2.805-2.826c.308-.433.88-.513,1.535-.135a3.925,3.925,0,0,1,1.775,3.074,1.307,1.307,0,0,1-.438,1.095l.009.013-.063.024a.872.872,0,0,1-.318.121l-3.579,1.354Z" transform="translate(-231.866 313.175)" fill="none" stroke="#dbdee5" stroke-linejoin="round" stroke-width="7"/>
      <path id="Path_6329" data-name="Path 6329" d="M-1244.979-1344.945l3.451,20.361,6.451-13.753.3,15.188,11.434-17.2-5.129,20,11.487-9.939-5.9,14,17.44-11.06-12.823,16.189,14.537-4.408-11.086,10.385,20.431-3.01-18.3,9.574,15.073,1.886-14.352,4.979,19.889,5.56-20.611,1.3,13,7.854-15.136-1.289,15.908,13.169-19.359-7.192,8.685,12.464-13.3-7.334,9.176,18.5-14.76-14.445,2.865,14.919-9.17-12.111.858,20.634-7.609-19.2-3.451,14.794-3.451-14.794-7.609,19.2.858-20.634-9.17,12.111,2.864-14.919-14.76,14.445,9.177-18.5-13.3,7.334,8.684-12.464-19.359,7.192,15.908-13.169-15.136,1.289,13-7.854-20.611-1.3,19.889-5.56-14.352-4.979,15.073-1.886-18.3-9.574,20.431,3.01-11.086-10.385,14.537,4.408-12.822-16.189,17.441,11.06-5.9-14,11.488,9.939-5.129-20,11.434,17.2.3-15.188,6.451,13.753,3.451-20.361Z" transform="translate(1300.129 1344.945)" fill="#ffea7c" fill-rule="evenodd"/>
      <path id="Path_6330" data-name="Path 6330" d="M-1032.242-1104.756a28.272,28.272,0,0,1,28.258,28.258,28.272,28.272,0,0,1-28.258,28.259A28.272,28.272,0,0,1-1060.5-1076.5a28.272,28.272,0,0,1,28.259-28.258Z" transform="translate(1087.392 1129.693)" fill="#ffe400" fill-rule="evenodd"/>
      <path id="Path_6331" data-name="Path 6331" d="M757.655,827.172c.3-.2,1.08.181,1.5.195,2.368.076,5.366.594,7.721-.031.628-.167.408-1.009,1.13-1.069.968-.081,1.922.27,2.919.2a13.022,13.022,0,0,0,4.614-1.34c.834-.51.765-1.756,1.683-2.295.265-.155,3.675-.409,1.918-.945a4.591,4.591,0,0,0-1.024-.146c-1.243-.083-2.3-.614-3.531-.768a46.305,46.305,0,0,0-5.673-.083c-3.068,0-5.746,2.129-8.851,2.129" transform="translate(-541.816 -595.8)" fill="#d3ba9a" fill-rule="evenodd"/>
      <path id="Path_6332" data-name="Path 6332" d="M799.961,779.249c2.049-.089,4.161.34,6.03-.768.7-.415.988-1.139,1.7-1.531.3-.166,1.308-.391,1.247-.819-.119-.842-1.633-1.163-1.94-2.086-.559-1.68-.177-1.874-1.462-3.1-.286-.272-.492-.753-.839-.946a2.255,2.255,0,0,0-1.736.146c-.451.253-3.9,3.547-4.016,4.211-.127.715.009,1.452-.127,2.174-.028.149-.139.706.029.37" transform="translate(-578.651 -550.134)" fill="#c18e63" fill-rule="evenodd"/>
      <path id="Path_6333" data-name="Path 6333" d="M730.032,778.889c-7.711-7.455,3.548-11.073,4.291-10.517.535.4,2.657,2.622,3.264,3.3.808.9.361,2.633.032,3.624-.922,2.783-1.951,4.553-5.125,4.553-.456,0-1.2.255-1.632.082-.383-.153-.755-1-.881-1" transform="translate(-514.661 -548.732)" fill="#c18e63" fill-rule="evenodd"/>
      <g id="Group_3292" data-name="Group 3292" transform="translate(212.684 219.585)">
        <g id="Group_3291" data-name="Group 3291" clip-path="url(#clip-path-16)">
          <path id="Path_6334" data-name="Path 6334" d="M736.269,755.2c-.345.132-.4.669-.483.968a9.731,9.731,0,0,0-.526,1.726c-.163,1.593-.345,1.822-1.958,1.822a1.738,1.738,0,0,0-.921.136c-.445.318-.727,1.878-1.283,2.409-.084.08-.4-.059-.457-.1a1.99,1.99,0,0,1-1.044-2.122c0-.566-.3-1.078-.273-1.665.087-1.628,2.863-2.692,4.047-3.248a8.446,8.446,0,0,1,2.45-1.078" transform="translate(-729.117 -755.536)" fill="#cda380" fill-rule="evenodd"/>
        </g>
      </g>
      <path id="Path_6335" data-name="Path 6335" d="M-318.163,1107.589a5.785,5.785,0,0,1,5.233,0c1.444.833,1.444,2.187,0,3.021a5.785,5.785,0,0,1-5.233,0c-1.444-.834-1.444-2.187,0-3.021Z" transform="translate(423.181 -852.195)" fill="#cfae8f" fill-rule="evenodd"/>
      <path id="Path_6336" data-name="Path 6336" d="M-340.441,1156.9a3.7,3.7,0,0,1,3.345,0,1.02,1.02,0,0,1,0,1.931,3.7,3.7,0,0,1-3.345,0,1.02,1.02,0,0,1,0-1.931Z" transform="translate(442.793 -896.539)" fill="#cfae8f" fill-rule="evenodd"/>
      <path id="Path_6337" data-name="Path 6337" d="M-268.784,1156.2a2.13,2.13,0,0,1,1.925,0,.587.587,0,0,1,0,1.112,2.131,2.131,0,0,1-1.925,0,.587.587,0,0,1,0-1.112Z" transform="translate(378.317 -896.059)" fill="#cfae8f" fill-rule="evenodd"/>
      <path id="Path_6338" data-name="Path 6338" d="M-316.133,197.211a3.683,3.683,0,0,1,3.555,0,1.2,1.2,0,0,1,0,2.21,3.683,3.683,0,0,1-3.555,0,1.2,1.2,0,0,1,0-2.21Z" transform="translate(421.049 -36.562)" fill="#cfae8f" fill-rule="evenodd"/>
      <path id="Path_6339" data-name="Path 6339" d="M-331.269,233.283a2.355,2.355,0,0,1,2.273,0,.765.765,0,0,1,0,1.413,2.354,2.354,0,0,1-2.273,0,.765.765,0,0,1,0-1.413Z" transform="translate(434.375 -69.035)" fill="#cfae8f" fill-rule="evenodd"/>
      <path id="Path_6340" data-name="Path 6340" d="M-282.582,232.765a1.355,1.355,0,0,1,1.308,0,.441.441,0,0,1,0,.813,1.356,1.356,0,0,1-1.308,0,.441.441,0,0,1,0-.813Z" transform="translate(390.568 -68.682)" fill="#cfae8f" fill-rule="evenodd"/>
      <path id="Path_6341" data-name="Path 6341" d="M-426.175,380.6a3.789,3.789,0,0,1,3.787-3.788h45A3.789,3.789,0,0,1-373.6,380.6v7.575a3.789,3.789,0,0,1-3.788,3.787h-45a3.789,3.789,0,0,1-3.787-3.787V380.6Z" transform="translate(519.01 -197.906)" fill="#ffdc18" fill-rule="evenodd"/>
      <line id="Line_3" data-name="Line 3" x1="18.296" y1="10.563" transform="translate(143.718 192.472)" fill="none" stroke="#ffdc18" stroke-linecap="round" stroke-linejoin="round" stroke-width="9.5" stroke-dasharray="9.5 19 0 0"/>
      <path id="Path_6342" data-name="Path 6342" d="M681.983-472.24a3.789,3.789,0,0,0-3.787-3.788H638.277a3.789,3.789,0,0,0-3.787,3.788v7.575a3.789,3.789,0,0,0,3.787,3.788H678.2a3.789,3.789,0,0,0,3.787-3.788v-7.575Z" transform="translate(-431.435 566.316)" fill="#ffdc18" fill-rule="evenodd"/>
      <line id="Line_4" data-name="Line 4" y1="10.563" x2="18.296" transform="translate(186.457 103.855)" fill="none" stroke="#ffdc18" stroke-linecap="round" stroke-linejoin="round" stroke-width="9.5" stroke-dasharray="9.5 19 0 0"/>
      <path id="Path_6343" data-name="Path 6343" d="M-1319.515,6.74a3.789,3.789,0,0,1,3.787-3.787h50.254a3.789,3.789,0,0,1,3.787,3.787v7.575a3.789,3.789,0,0,1-3.787,3.788h-50.254a3.789,3.789,0,0,1-3.787-3.788V6.74Z" transform="translate(1319.515 137.106)" fill="#ffdc18" fill-rule="evenodd"/>
      <line id="Line_5" data-name="Line 5" x1="18.296" y1="10.563" transform="translate(56.101 153.625)" fill="none" stroke="#ffdc18" stroke-linecap="round" stroke-linejoin="round" stroke-width="9.5" stroke-dasharray="9.5 19 0 0"/>
      <path id="Path_6344" data-name="Path 6344" d="M-886.255,681.74a3.789,3.789,0,0,1,3.788-3.787h60.812a3.789,3.789,0,0,1,3.787,3.787v7.575a3.789,3.789,0,0,1-3.787,3.788h-60.812a3.789,3.789,0,0,1-3.788-3.788V681.74Z" transform="translate(931.237 -467.755)" fill="#ffdc18" fill-rule="evenodd"/>
      <line id="Line_6" data-name="Line 6" x1="18.296" y1="10.563" transform="translate(111.735 223.763)" fill="none" stroke="#ffdc18" stroke-linecap="round" stroke-linejoin="round" stroke-width="9.5" stroke-dasharray="9.5 19 0 0"/>
      <path id="Path_6345" data-name="Path 6345" d="M-78.929,165.99a9.031,9.031,0,0,1,9.026,9.026,9.031,9.031,0,0,1-9.026,9.026,9.031,9.031,0,0,1-9.026-9.026,9.031,9.031,0,0,1,9.026-9.026Z" transform="translate(215.925 -8.989)" fill="#22b1b0" stroke="#dbdee5" stroke-linecap="round" stroke-linejoin="round" stroke-width="9.5" fill-rule="evenodd"/>
      <path id="Path_6346" data-name="Path 6346" d="M-54.421,221.276V218h.689v2.718h1.712v.556Z" transform="translate(185.871 -55.603)" fill="#fff"/>
      <path id="Path_6347" data-name="Path 6347" d="M-27.91,218.926a2.038,2.038,0,0,1,.156-.846,1.549,1.549,0,0,1,.318-.453,1.328,1.328,0,0,1,.441-.3,1.926,1.926,0,0,1,.735-.131,1.63,1.63,0,0,1,1.206.452,1.7,1.7,0,0,1,.453,1.259,1.7,1.7,0,0,1-.449,1.251,1.618,1.618,0,0,1-1.2.451,1.635,1.635,0,0,1-1.21-.449,1.673,1.673,0,0,1-.449-1.237Zm.71-.023a1.21,1.21,0,0,0,.268.85.885.885,0,0,0,.679.289.878.878,0,0,0,.676-.287,1.234,1.234,0,0,0,.264-.861,1.214,1.214,0,0,0-.257-.847.884.884,0,0,0-.683-.279.89.89,0,0,0-.686.283,1.22,1.22,0,0,0-.261.852Z" transform="translate(162.115 -54.883)" fill="#fff"/>
      <path id="Path_6348" data-name="Path 6348" d="M6.766,221.042l-.814-3.3h.7l.514,2.267.623-2.267h.819l.6,2.306.524-2.306h.693l-.828,3.3H8.869l-.679-2.468-.677,2.468Z" transform="translate(131.772 -55.369)" fill="#fff"/>
      <path id="Path_6349" data-name="Path 6349" d="M-58.781,259.881v-2.617h.8a2.756,2.756,0,0,1,.593.039.649.649,0,0,1,.356.256.846.846,0,0,1,.143.51.9.9,0,0,1-.083.405.705.705,0,0,1-.21.258.706.706,0,0,1-.259.124,2.7,2.7,0,0,1-.518.037h-.325v.987Zm.5-2.174v.743h.273a1.219,1.219,0,0,0,.394-.041.331.331,0,0,0,.156-.128.366.366,0,0,0,.056-.2.351.351,0,0,0-.079-.236.34.34,0,0,0-.2-.116,2.271,2.271,0,0,0-.359-.018Z" transform="translate(189.778 -90.785)" fill="#fff"/>
      <path id="Path_6350" data-name="Path 6350" d="M-36.584,259.881v-2.617h1.05a1.708,1.708,0,0,1,.576.07.578.578,0,0,1,.287.251.787.787,0,0,1,.108.413.723.723,0,0,1-.164.486.768.768,0,0,1-.489.242,1.169,1.169,0,0,1,.267.22,2.96,2.96,0,0,1,.284.425l.3.51h-.6l-.361-.569a3.688,3.688,0,0,0-.263-.385.382.382,0,0,0-.15-.109.778.778,0,0,0-.251-.029h-.1v1.093Zm.5-1.51h.369a1.8,1.8,0,0,0,.448-.032.271.271,0,0,0,.14-.111.357.357,0,0,0,.051-.2.326.326,0,0,0-.067-.213.3.3,0,0,0-.188-.1q-.061-.009-.364-.009h-.389v.664Z" transform="translate(169.888 -90.785)" fill="#fff"/>
      <path id="Path_6351" data-name="Path 6351" d="M-12.586,259.881v-2.617h1.832v.443h-1.333v.58h1.241v.441h-1.241v.712h1.381v.441Z" transform="translate(148.383 -90.785)" fill="#fff"/>
      <path id="Path_6352" data-name="Path 6352" d="M8.377,258.644l.485-.05a.642.642,0,0,0,.178.38.518.518,0,0,0,.362.121.534.534,0,0,0,.363-.108.328.328,0,0,0,.122-.253.248.248,0,0,0-.051-.158.41.41,0,0,0-.18-.113q-.088-.032-.4-.114a1.32,1.32,0,0,1-.563-.259.717.717,0,0,1-.121-.9.68.68,0,0,1,.309-.265,1.173,1.173,0,0,1,.486-.091,1,1,0,0,1,.7.216.782.782,0,0,1,.247.577l-.5.023a.458.458,0,0,0-.137-.29.483.483,0,0,0-.316-.088.547.547,0,0,0-.341.095.194.194,0,0,0-.079.163.2.2,0,0,0,.074.159,1.264,1.264,0,0,0,.459.175,2.328,2.328,0,0,1,.539.188.709.709,0,0,1,.273.266.814.814,0,0,1,.1.417.8.8,0,0,1-.118.421.718.718,0,0,1-.334.292,1.33,1.33,0,0,1-.538.1.912.912,0,0,1-1.02-.9Z" transform="translate(129.598 -90.4)" fill="#fff"/>
      <path id="Path_6353" data-name="Path 6353" d="M30.557,258.644l.485-.05a.642.642,0,0,0,.178.38.518.518,0,0,0,.362.121.534.534,0,0,0,.363-.108.328.328,0,0,0,.122-.253.248.248,0,0,0-.051-.158.411.411,0,0,0-.18-.113q-.088-.032-.4-.114a1.32,1.32,0,0,1-.563-.259.717.717,0,0,1-.121-.9.68.68,0,0,1,.308-.265,1.173,1.173,0,0,1,.486-.091,1,1,0,0,1,.7.216.782.782,0,0,1,.247.577l-.5.023a.458.458,0,0,0-.137-.29.483.483,0,0,0-.316-.088.547.547,0,0,0-.341.095.194.194,0,0,0-.079.163.2.2,0,0,0,.074.159,1.264,1.264,0,0,0,.459.175,2.331,2.331,0,0,1,.539.188.709.709,0,0,1,.273.266.814.814,0,0,1,.1.417.8.8,0,0,1-.118.421.718.718,0,0,1-.334.292,1.329,1.329,0,0,1-.538.1.912.912,0,0,1-1.02-.9Z" transform="translate(109.723 -90.4)" fill="#fff"/>
      <path id="Path_6354" data-name="Path 6354" d="M53.923,278.143v-.5H54.4v.5Z" transform="translate(88.784 -109.046)" fill="#fff"/>
      <path id="Path_6355" data-name="Path 6355" d="M455.311-7.35a9.026,9.026,0,1,1-9.026,9.026,9.031,9.031,0,0,1,9.026-9.026Z" transform="translate(-262.802 146.339)" fill="#1dbcf1" stroke="#dbdee5" stroke-linecap="round" stroke-linejoin="round" stroke-width="9.5" fill-rule="evenodd"/>
      <path id="Path_6356" data-name="Path 6356" d="M475.342,54.9V51.6h.689v1.3h1.35V51.6h.689v3.3h-.689V53.459h-1.35V54.9Z" transform="translate(-288.846 93.508)" fill="#fff"/>
      <path id="Path_6357" data-name="Path 6357" d="M508.261,54.9V51.6h.689v3.3Z" transform="translate(-318.346 93.508)" fill="#fff"/>
      <path id="Path_6358" data-name="Path 6358" d="M521.778,53.2v-.556h1.484v1.315a1.885,1.885,0,0,1-.627.357,2.349,2.349,0,0,1-.832.154,1.917,1.917,0,0,1-.933-.217,1.4,1.4,0,0,1-.6-.621,1.952,1.952,0,0,1-.2-.879,1.851,1.851,0,0,1,.223-.916,1.482,1.482,0,0,1,.654-.615,1.816,1.816,0,0,1,.817-.164,1.67,1.67,0,0,1,.992.258,1.16,1.16,0,0,1,.459.713l-.684.124a.7.7,0,0,0-.271-.384.84.84,0,0,0-.5-.141.95.95,0,0,0-.718.277,1.143,1.143,0,0,0-.266.822,1.263,1.263,0,0,0,.27.881.915.915,0,0,0,.707.294,1.218,1.218,0,0,0,.434-.082,1.5,1.5,0,0,0,.373-.2V53.2Z" transform="translate(-328.929 93.994)" fill="#fff"/>
      <path id="Path_6359" data-name="Path 6359" d="M556.937,54.9V51.6h.689v1.3h1.349V51.6h.689v3.3h-.689V53.459h-1.349V54.9Z" transform="translate(-361.963 93.508)" fill="#fff"/>
      <path id="Path_6360" data-name="Path 6360" d="M476,93.021V90.4h.8a2.747,2.747,0,0,1,.593.039.648.648,0,0,1,.356.256.845.845,0,0,1,.143.51.9.9,0,0,1-.083.405.709.709,0,0,1-.469.382,2.692,2.692,0,0,1-.518.037H476.5v.987Zm.5-2.175v.743h.273a1.227,1.227,0,0,0,.394-.041.332.332,0,0,0,.156-.129.367.367,0,0,0,.056-.2.35.35,0,0,0-.079-.236.34.34,0,0,0-.2-.116,2.261,2.261,0,0,0-.359-.018Z" transform="translate(-289.435 58.737)" fill="#fff"/>
      <path id="Path_6361" data-name="Path 6361" d="M498.2,93.021V90.4h1.05a1.7,1.7,0,0,1,.576.07.577.577,0,0,1,.287.251.788.788,0,0,1,.108.412.724.724,0,0,1-.163.487.77.77,0,0,1-.489.242,1.178,1.178,0,0,1,.267.22,2.968,2.968,0,0,1,.284.425l.3.511h-.6l-.361-.57a3.719,3.719,0,0,0-.263-.385.383.383,0,0,0-.15-.109.776.776,0,0,0-.251-.029h-.1v1.093Zm.5-1.51h.369a1.8,1.8,0,0,0,.448-.032.271.271,0,0,0,.14-.111.356.356,0,0,0,.051-.2.326.326,0,0,0-.067-.213.3.3,0,0,0-.188-.1q-.061-.009-.364-.009h-.389v.664Z" transform="translate(-309.326 58.737)" fill="#fff"/>
      <path id="Path_6362" data-name="Path 6362" d="M522.194,93.021V90.4h1.832v.443h-1.333v.58h1.241v.441h-1.241v.712h1.381v.441Z" transform="translate(-330.83 58.737)" fill="#fff"/>
      <path id="Path_6363" data-name="Path 6363" d="M543.157,91.783l.486-.05a.641.641,0,0,0,.178.38.518.518,0,0,0,.362.121.533.533,0,0,0,.363-.108.328.328,0,0,0,.122-.253.247.247,0,0,0-.052-.158.408.408,0,0,0-.18-.113q-.088-.032-.4-.114a1.319,1.319,0,0,1-.563-.259.716.716,0,0,1-.121-.9.682.682,0,0,1,.309-.265,1.175,1.175,0,0,1,.486-.091,1,1,0,0,1,.7.216.781.781,0,0,1,.247.577l-.5.023a.458.458,0,0,0-.138-.29.482.482,0,0,0-.316-.088.547.547,0,0,0-.341.095.2.2,0,0,0-.079.162.206.206,0,0,0,.074.159,1.271,1.271,0,0,0,.459.175,2.327,2.327,0,0,1,.539.188.711.711,0,0,1,.273.266.814.814,0,0,1,.1.417.8.8,0,0,1-.118.421.718.718,0,0,1-.334.292,1.33,1.33,0,0,1-.538.1.912.912,0,0,1-1.02-.9Z" transform="translate(-349.615 59.123)" fill="#fff"/>
      <path id="Path_6364" data-name="Path 6364" d="M565.337,91.783l.485-.05a.643.643,0,0,0,.178.38.519.519,0,0,0,.362.121.533.533,0,0,0,.363-.108.327.327,0,0,0,.122-.253.247.247,0,0,0-.051-.158.412.412,0,0,0-.18-.113q-.088-.032-.4-.114a1.32,1.32,0,0,1-.563-.259.717.717,0,0,1-.121-.9.681.681,0,0,1,.309-.265,1.175,1.175,0,0,1,.486-.091,1,1,0,0,1,.7.216.782.782,0,0,1,.247.577l-.5.023a.458.458,0,0,0-.138-.29.483.483,0,0,0-.316-.088.547.547,0,0,0-.34.095.194.194,0,0,0-.079.162.206.206,0,0,0,.074.159,1.27,1.27,0,0,0,.459.175,2.331,2.331,0,0,1,.539.188.71.71,0,0,1,.273.266.815.815,0,0,1,.1.417.8.8,0,0,1-.118.421.718.718,0,0,1-.334.292,1.328,1.328,0,0,1-.538.1.912.912,0,0,1-1.02-.9Z" transform="translate(-369.491 59.123)" fill="#fff"/>
      <path id="Path_6365" data-name="Path 6365" d="M588.7,111.283v-.5h.474v.5Z" transform="translate(-390.429 40.476)" fill="#fff"/>
      <path id="Path_6366" data-name="Path 6366" d="M-394.662,424.888l-1.362-5.706h1.179l.86,3.92,1.043-3.92h1.37l1,3.986.876-3.986h1.16l-1.386,5.706h-1.222l-1.137-4.266-1.133,4.266Z" transform="translate(491.981 -235.878)" fill="#13334b"/>
      <path id="Path_6367" data-name="Path 6367" d="M-322.826,434.783l-.993-.179a1.546,1.546,0,0,1,.576-.887,2.109,2.109,0,0,1,1.214-.288,2.616,2.616,0,0,1,1.09.173,1.087,1.087,0,0,1,.5.44,2.256,2.256,0,0,1,.146.979l-.012,1.277a4.432,4.432,0,0,0,.053.8,2.339,2.339,0,0,0,.2.555h-1.082q-.043-.109-.105-.323-.027-.1-.039-.129a1.975,1.975,0,0,1-.6.409,1.718,1.718,0,0,1-.681.136,1.409,1.409,0,0,1-1.006-.347,1.152,1.152,0,0,1-.368-.876,1.175,1.175,0,0,1,.167-.625,1.092,1.092,0,0,1,.469-.42,3.658,3.658,0,0,1,.87-.255,5.959,5.959,0,0,0,1.063-.269v-.109a.566.566,0,0,0-.156-.45.933.933,0,0,0-.588-.134.783.783,0,0,0-.455.115.8.8,0,0,0-.265.4Zm1.463.887a6.813,6.813,0,0,1-.666.168,2.009,2.009,0,0,0-.6.191.456.456,0,0,0-.214.385.536.536,0,0,0,.171.4.6.6,0,0,0,.436.167.947.947,0,0,0,.564-.195.685.685,0,0,0,.261-.362,2.16,2.16,0,0,0,.043-.533v-.218Z" transform="translate(427.378 -248.644)" fill="#13334b"/>
      <path id="Path_6368" data-name="Path 6368" d="M-280.458,421.729v.872h-.747v1.666a4.137,4.137,0,0,0,.021.59.24.24,0,0,0,.1.138.309.309,0,0,0,.185.054,1.419,1.419,0,0,0,.44-.1l.093.848a2.175,2.175,0,0,1-.864.164,1.373,1.373,0,0,1-.533-.1.779.779,0,0,1-.348-.257,1.014,1.014,0,0,1-.154-.426,5.3,5.3,0,0,1-.035-.771v-1.8h-.5v-.872h.5v-.821l1.1-.638v1.46Z" transform="translate(390.525 -236.853)" fill="#13334b"/>
      <path id="Path_6369" data-name="Path 6369" d="M-253.249,436.339l1.09.183a1.787,1.787,0,0,1-.664.913,1.95,1.95,0,0,1-1.135.313,1.849,1.849,0,0,1-1.6-.7,2.367,2.367,0,0,1-.409-1.425,2.282,2.282,0,0,1,.537-1.61,1.769,1.769,0,0,1,1.358-.582,1.835,1.835,0,0,1,1.456.609,2.7,2.7,0,0,1,.51,1.866h-2.74a1.107,1.107,0,0,0,.265.757.828.828,0,0,0,.631.27.669.669,0,0,0,.432-.14.864.864,0,0,0,.265-.451Zm.062-1.106a1.053,1.053,0,0,0-.245-.722.752.752,0,0,0-.568-.247.76.76,0,0,0-.592.261,1.009,1.009,0,0,0-.23.708Z" transform="translate(366.471 -248.644)" fill="#13334b"/>
      <path id="Path_6370" data-name="Path 6370" d="M-209.543,437.655h-1.094v-4.133h1.016v.588a1.769,1.769,0,0,1,.469-.549.864.864,0,0,1,.473-.132,1.387,1.387,0,0,1,.72.206l-.339.954a.96.96,0,0,0-.514-.179.607.607,0,0,0-.389.126.865.865,0,0,0-.251.457,6.494,6.494,0,0,0-.091,1.386v1.277Z" transform="translate(325.856 -248.644)" fill="#13334b"/>
      <path id="Path_6371" data-name="Path 6371" d="M-158.9,424.888v-5.706h1.849a6.706,6.706,0,0,1,1.37.086,1.5,1.5,0,0,1,.821.559,1.771,1.771,0,0,1,.331,1.111,1.861,1.861,0,0,1-.191.884,1.562,1.562,0,0,1-.485.562,1.669,1.669,0,0,1-.6.271,6.575,6.575,0,0,1-1.195.082h-.751v2.152Zm1.152-4.741v1.619h.631a2.977,2.977,0,0,0,.911-.09.756.756,0,0,0,.36-.28.768.768,0,0,0,.13-.444.737.737,0,0,0-.183-.514.8.8,0,0,0-.463-.253,5.552,5.552,0,0,0-.829-.039Z" transform="translate(279.496 -235.878)" fill="#13334b"/>
      <path id="Path_6372" data-name="Path 6372" d="M-105.246,438.462v-.619a1.6,1.6,0,0,1-.594.522,1.665,1.665,0,0,1-.777.191,1.518,1.518,0,0,1-.747-.183,1.08,1.08,0,0,1-.479-.514,2.293,2.293,0,0,1-.148-.915v-2.616h1.094v1.9a5.271,5.271,0,0,0,.06,1.068.582.582,0,0,0,.22.311.675.675,0,0,0,.4.115.86.86,0,0,0,.5-.154.781.781,0,0,0,.3-.381,4.426,4.426,0,0,0,.082-1.115v-1.744h1.094v4.134Z" transform="translate(233.874 -249.451)" fill="#13334b"/>
      <path id="Path_6373" data-name="Path 6373" d="M-61.652,433.521h1.008v.564a1.622,1.622,0,0,1,1.288-.658,1.387,1.387,0,0,1,.689.164,1.255,1.255,0,0,1,.479.494,1.907,1.907,0,0,1,.588-.494,1.441,1.441,0,0,1,.673-.164,1.5,1.5,0,0,1,.771.185,1.133,1.133,0,0,1,.471.543,2.356,2.356,0,0,1,.113.856v2.643h-1.094v-2.363a1.757,1.757,0,0,0-.113-.794.518.518,0,0,0-.467-.234.746.746,0,0,0-.432.14.779.779,0,0,0-.292.411,2.958,2.958,0,0,0-.09.854v1.985h-1.094V435.39a3.141,3.141,0,0,0-.058-.778.5.5,0,0,0-.181-.261.572.572,0,0,0-.333-.086.8.8,0,0,0-.455.136.747.747,0,0,0-.29.393,2.923,2.923,0,0,0-.088.852v2.008h-1.094v-4.133Z" transform="translate(192.352 -248.644)" fill="#13334b"/>
      <path id="Path_6374" data-name="Path 6374" d="M7.1,433.521h1.02v.607a1.524,1.524,0,0,1,.537-.506,1.481,1.481,0,0,1,.751-.195,1.576,1.576,0,0,1,1.222.564,2.284,2.284,0,0,1,.5,1.573,2.353,2.353,0,0,1-.506,1.609,1.576,1.576,0,0,1-1.226.574,1.4,1.4,0,0,1-.621-.136,2.1,2.1,0,0,1-.586-.467v2.082H7.1v-5.706Zm1.082,2a1.593,1.593,0,0,0,.276,1.03.845.845,0,0,0,.673.333.79.79,0,0,0,.634-.306,1.574,1.574,0,0,0,.253-1,1.494,1.494,0,0,0-.261-.965.807.807,0,0,0-.646-.315.839.839,0,0,0-.666.31,1.377,1.377,0,0,0-.265.917Z" transform="translate(130.74 -248.643)" fill="#13334b"/>
      <path id="Path_6375" data-name="Path 6375" d="M-854.289,727.108V721.4h1.849a6.7,6.7,0,0,1,1.37.086,1.5,1.5,0,0,1,.821.559,1.77,1.77,0,0,1,.331,1.111,1.861,1.861,0,0,1-.191.884,1.564,1.564,0,0,1-.485.562,1.667,1.667,0,0,1-.6.271,6.59,6.59,0,0,1-1.2.082h-.751v2.152Zm1.152-4.741v1.619h.63a2.973,2.973,0,0,0,.911-.09.756.756,0,0,0,.36-.28.766.766,0,0,0,.131-.444.736.736,0,0,0-.183-.514.8.8,0,0,0-.463-.253,5.525,5.525,0,0,0-.829-.039Z" transform="translate(902.59 -506.695)" fill="#13334b"/>
      <path id="Path_6376" data-name="Path 6376" d="M-800.634,740.682v-.619a1.594,1.594,0,0,1-.594.522,1.665,1.665,0,0,1-.777.191,1.517,1.517,0,0,1-.747-.183,1.079,1.079,0,0,1-.479-.514,2.293,2.293,0,0,1-.148-.915v-2.616h1.094v1.9a5.276,5.276,0,0,0,.06,1.068.583.583,0,0,0,.22.311.676.676,0,0,0,.4.115.862.862,0,0,0,.5-.154.781.781,0,0,0,.3-.381,4.426,4.426,0,0,0,.082-1.115v-1.744h1.094v4.134Z" transform="translate(856.965 -520.268)" fill="#13334b"/>
      <path id="Path_6377" data-name="Path 6377" d="M-757.04,735.742h1.008v.564a1.623,1.623,0,0,1,1.289-.658,1.387,1.387,0,0,1,.689.163,1.255,1.255,0,0,1,.479.494,1.9,1.9,0,0,1,.588-.494,1.44,1.44,0,0,1,.673-.163,1.5,1.5,0,0,1,.771.185,1.13,1.13,0,0,1,.471.543,2.353,2.353,0,0,1,.113.856v2.643h-1.094v-2.363a1.76,1.76,0,0,0-.113-.794.518.518,0,0,0-.467-.234.747.747,0,0,0-.432.14.778.778,0,0,0-.292.411,2.953,2.953,0,0,0-.089.854v1.985h-1.094v-2.265a3.139,3.139,0,0,0-.058-.778.5.5,0,0,0-.181-.261.573.573,0,0,0-.333-.086.8.8,0,0,0-.455.136.749.749,0,0,0-.29.393,2.927,2.927,0,0,0-.088.852v2.009h-1.094v-4.134Z" transform="translate(815.438 -519.463)" fill="#13334b"/>
      <path id="Path_6378" data-name="Path 6378" d="M-688.284,735.742h1.02v.607a1.522,1.522,0,0,1,.537-.506,1.48,1.48,0,0,1,.751-.195,1.576,1.576,0,0,1,1.222.564,2.285,2.285,0,0,1,.5,1.573,2.354,2.354,0,0,1-.506,1.609,1.576,1.576,0,0,1-1.226.574,1.394,1.394,0,0,1-.621-.136,2.1,2.1,0,0,1-.586-.467v2.082h-1.094v-5.706Zm1.082,2a1.593,1.593,0,0,0,.276,1.029.845.845,0,0,0,.673.333.79.79,0,0,0,.634-.305,1.574,1.574,0,0,0,.253-1,1.5,1.5,0,0,0-.261-.965.807.807,0,0,0-.646-.315.839.839,0,0,0-.665.309,1.377,1.377,0,0,0-.265.917Z" transform="translate(753.82 -519.462)" fill="#13334b"/>
      <path id="Path_6379" data-name="Path 6379" d="M-617.774,724.171l1.117.354a2.506,2.506,0,0,1-.854,1.388,2.437,2.437,0,0,1-1.516.454,2.454,2.454,0,0,1-1.868-.776,2.973,2.973,0,0,1-.732-2.123,3.12,3.12,0,0,1,.736-2.213,2.523,2.523,0,0,1,1.935-.788,2.373,2.373,0,0,1,1.7.619,2.251,2.251,0,0,1,.584,1.051l-1.14.272a1.209,1.209,0,0,0-.422-.7,1.21,1.21,0,0,0-.781-.257,1.3,1.3,0,0,0-1.029.455,2.232,2.232,0,0,0-.4,1.475,2.392,2.392,0,0,0,.389,1.541,1.264,1.264,0,0,0,1.012.459,1.155,1.155,0,0,0,.79-.292,1.7,1.7,0,0,0,.475-.919Z" transform="translate(694.142 -505.855)" fill="#13334b"/>
      <path id="Path_6380" data-name="Path 6380" d="M-566.742,737.751a2.238,2.238,0,0,1,.269-1.055,1.845,1.845,0,0,1,.761-.779,2.257,2.257,0,0,1,1.1-.269,2.064,2.064,0,0,1,1.537.609,2.105,2.105,0,0,1,.6,1.54,2.13,2.13,0,0,1-.605,1.555,2.046,2.046,0,0,1-1.524.617,2.4,2.4,0,0,1-1.084-.257,1.763,1.763,0,0,1-.784-.753,2.511,2.511,0,0,1-.269-1.208Zm1.121.058a1.369,1.369,0,0,0,.292.942.927.927,0,0,0,.72.327.922.922,0,0,0,.718-.327,1.389,1.389,0,0,0,.29-.95,1.363,1.363,0,0,0-.29-.934.922.922,0,0,0-.718-.327.928.928,0,0,0-.72.327,1.37,1.37,0,0,0-.292.942Z" transform="translate(644.96 -519.463)" fill="#13334b"/>
      <path id="Path_6381" data-name="Path 6381" d="M-513.712,739.876h-1.094v-2.11a3.268,3.268,0,0,0-.07-.866.608.608,0,0,0-.228-.305.65.65,0,0,0-.38-.109.878.878,0,0,0-.51.156.784.784,0,0,0-.309.413,3.572,3.572,0,0,0-.084.95v1.872h-1.094v-4.134h1.016v.607a1.655,1.655,0,0,1,1.362-.7,1.641,1.641,0,0,1,.662.13,1.109,1.109,0,0,1,.453.333,1.207,1.207,0,0,1,.214.459,3.414,3.414,0,0,1,.06.736v2.569Z" transform="translate(600.816 -519.463)" fill="#13334b"/>
      <path id="Path_6382" data-name="Path 6382" d="M-472.507,723.948v.872h-.747v1.666a4.148,4.148,0,0,0,.021.59.241.241,0,0,0,.1.138.309.309,0,0,0,.185.054,1.414,1.414,0,0,0,.44-.105l.093.849a2.172,2.172,0,0,1-.864.163,1.374,1.374,0,0,1-.533-.1.779.779,0,0,1-.348-.257,1.015,1.015,0,0,1-.154-.426,5.3,5.3,0,0,1-.035-.771v-1.8h-.5v-.872h.5v-.821l1.1-.638v1.46Z" transform="translate(562.619 -507.669)" fill="#13334b"/>
      <path id="Path_6383" data-name="Path 6383" d="M-444.293,739.876h-1.094v-4.134h1.016v.588a1.774,1.774,0,0,1,.469-.549.863.863,0,0,1,.473-.132,1.389,1.389,0,0,1,.72.206l-.339.954a.96.96,0,0,0-.514-.179.607.607,0,0,0-.389.126.864.864,0,0,0-.251.457,6.5,6.5,0,0,0-.091,1.386v1.277Z" transform="translate(536.214 -519.463)" fill="#13334b"/>
      <path id="Path_6384" data-name="Path 6384" d="M-417.494,737.751a2.234,2.234,0,0,1,.269-1.055,1.842,1.842,0,0,1,.761-.779,2.258,2.258,0,0,1,1.1-.269,2.064,2.064,0,0,1,1.537.609,2.1,2.1,0,0,1,.6,1.54,2.13,2.13,0,0,1-.605,1.555,2.046,2.046,0,0,1-1.524.617,2.4,2.4,0,0,1-1.084-.257,1.761,1.761,0,0,1-.784-.753,2.507,2.507,0,0,1-.269-1.208Zm1.121.058a1.369,1.369,0,0,0,.292.942.927.927,0,0,0,.72.327.921.921,0,0,0,.718-.327,1.388,1.388,0,0,0,.29-.95,1.363,1.363,0,0,0-.29-.934.922.922,0,0,0-.718-.327.928.928,0,0,0-.72.327,1.37,1.37,0,0,0-.292.942Z" transform="translate(511.219 -519.463)" fill="#13334b"/>
      <path id="Path_6385" data-name="Path 6385" d="M-368.158,727.109V721.4h1.094v5.706Z" transform="translate(467.009 -506.696)" fill="#13334b"/>
      <path id="Path_6386" data-name="Path 6386" d="M-346.826,727.109V721.4h1.094v5.706Z" transform="translate(447.894 -506.696)" fill="#13334b"/>
      <path id="Path_6387" data-name="Path 6387" d="M-325.855,738.56l1.09.183a1.787,1.787,0,0,1-.664.913,1.949,1.949,0,0,1-1.135.313,1.849,1.849,0,0,1-1.6-.7,2.366,2.366,0,0,1-.409-1.425,2.282,2.282,0,0,1,.537-1.609,1.769,1.769,0,0,1,1.358-.582,1.835,1.835,0,0,1,1.456.609,2.7,2.7,0,0,1,.51,1.867h-2.74a1.106,1.106,0,0,0,.265.757.828.828,0,0,0,.631.271.67.67,0,0,0,.432-.14.865.865,0,0,0,.265-.451Zm.062-1.106a1.053,1.053,0,0,0-.245-.722.753.753,0,0,0-.568-.247.76.76,0,0,0-.592.261,1.01,1.01,0,0,0-.23.708Z" transform="translate(431.533 -519.463)" fill="#13334b"/>
      <path id="Path_6388" data-name="Path 6388" d="M-282.149,739.876h-1.094v-4.134h1.016v.588a1.769,1.769,0,0,1,.469-.549.863.863,0,0,1,.473-.132,1.389,1.389,0,0,1,.72.206l-.339.954a.96.96,0,0,0-.514-.179.607.607,0,0,0-.389.126.864.864,0,0,0-.251.457,6.5,6.5,0,0,0-.091,1.386v1.277Z" transform="translate(390.917 -519.463)" fill="#13334b"/>
      <path id="Path_6389" data-name="Path 6389" d="M-1262.013,50.853l1.121-.109a1.368,1.368,0,0,0,.411.829,1.242,1.242,0,0,0,.835.265,1.283,1.283,0,0,0,.839-.236.7.7,0,0,0,.282-.551.519.519,0,0,0-.119-.344.947.947,0,0,0-.415-.247q-.2-.07-.922-.249a3.128,3.128,0,0,1-1.3-.564,1.485,1.485,0,0,1-.526-1.148,1.466,1.466,0,0,1,.247-.815,1.545,1.545,0,0,1,.712-.578,2.856,2.856,0,0,1,1.123-.2,2.409,2.409,0,0,1,1.617.471,1.662,1.662,0,0,1,.57,1.257l-1.152.051a.978.978,0,0,0-.317-.632,1.161,1.161,0,0,0-.73-.193,1.316,1.316,0,0,0-.786.206.415.415,0,0,0-.183.354.438.438,0,0,0,.171.346,3.032,3.032,0,0,0,1.058.381,5.589,5.589,0,0,1,1.244.411,1.6,1.6,0,0,1,.631.58,1.7,1.7,0,0,1,.228.909,1.681,1.681,0,0,1-.272.919,1.634,1.634,0,0,1-.771.636,3.229,3.229,0,0,1-1.241.208,2.472,2.472,0,0,1-1.662-.5,2.175,2.175,0,0,1-.693-1.458Z" transform="translate(1267.983 97.716)" fill="#13334b"/>
      <path id="Path_6390" data-name="Path 6390" d="M-1210.5,64.19a2.236,2.236,0,0,1,.268-1.055,1.844,1.844,0,0,1,.761-.778,2.257,2.257,0,0,1,1.1-.269,2.064,2.064,0,0,1,1.538.609,2.1,2.1,0,0,1,.6,1.539,2.13,2.13,0,0,1-.605,1.555,2.045,2.045,0,0,1-1.524.617,2.4,2.4,0,0,1-1.084-.257,1.764,1.764,0,0,1-.785-.753,2.509,2.509,0,0,1-.268-1.208Zm1.121.058a1.37,1.37,0,0,0,.292.942.928.928,0,0,0,.72.327.922.922,0,0,0,.718-.327,1.388,1.388,0,0,0,.29-.95,1.363,1.363,0,0,0-.29-.934.922.922,0,0,0-.718-.327.928.928,0,0,0-.72.327,1.37,1.37,0,0,0-.292.942Z" transform="translate(1221.819 84.111)" fill="#13334b"/>
      <path id="Path_6391" data-name="Path 6391" d="M-1161.165,53.549V47.843h1.094v5.706Z" transform="translate(1177.606 96.877)" fill="#13334b"/>
      <path id="Path_6392" data-name="Path 6392" d="M-1141.5,63.443l-.992-.179a1.547,1.547,0,0,1,.576-.887,2.11,2.11,0,0,1,1.215-.288,2.619,2.619,0,0,1,1.09.173,1.088,1.088,0,0,1,.5.44,2.251,2.251,0,0,1,.146.979l-.012,1.277a4.433,4.433,0,0,0,.052.8,2.339,2.339,0,0,0,.2.555h-1.082q-.043-.109-.105-.323c-.018-.065-.031-.108-.039-.129a1.967,1.967,0,0,1-.6.409,1.716,1.716,0,0,1-.681.136,1.408,1.408,0,0,1-1.006-.347,1.152,1.152,0,0,1-.368-.876,1.177,1.177,0,0,1,.167-.625,1.1,1.1,0,0,1,.469-.42,3.67,3.67,0,0,1,.87-.255,5.955,5.955,0,0,0,1.063-.269v-.109a.566.566,0,0,0-.156-.449.933.933,0,0,0-.588-.134.782.782,0,0,0-.455.115.8.8,0,0,0-.265.4Zm1.464.887a6.808,6.808,0,0,1-.666.167,2.015,2.015,0,0,0-.6.191.457.457,0,0,0-.214.385.537.537,0,0,0,.171.4.6.6,0,0,0,.436.167.947.947,0,0,0,.564-.195.686.686,0,0,0,.261-.362,2.165,2.165,0,0,0,.043-.533V64.33Z" transform="translate(1160.974 84.111)" fill="#13334b"/>
      <path id="Path_6393" data-name="Path 6393" d="M-1096.488,66.315h-1.094V62.182h1.016v.588a1.766,1.766,0,0,1,.469-.549.863.863,0,0,1,.473-.132,1.386,1.386,0,0,1,.72.206l-.339.953a.961.961,0,0,0-.514-.179.606.606,0,0,0-.389.126.863.863,0,0,0-.251.457,6.513,6.513,0,0,0-.091,1.386v1.277Z" transform="translate(1120.624 84.111)" fill="#13334b"/>
      <path id="Path_6394" data-name="Path 6394" d="M-1046.221,62.182h1.02v.607a1.521,1.521,0,0,1,.537-.506,1.48,1.48,0,0,1,.751-.195,1.577,1.577,0,0,1,1.222.564,2.285,2.285,0,0,1,.5,1.573,2.354,2.354,0,0,1-.506,1.609,1.577,1.577,0,0,1-1.226.574,1.393,1.393,0,0,1-.621-.136,2.1,2.1,0,0,1-.586-.467v2.082h-1.094V62.182Zm1.082,2a1.591,1.591,0,0,0,.276,1.03.845.845,0,0,0,.673.333.79.79,0,0,0,.634-.306,1.575,1.575,0,0,0,.253-1,1.493,1.493,0,0,0-.261-.965.806.806,0,0,0-.646-.315.839.839,0,0,0-.666.309,1.377,1.377,0,0,0-.265.917Z" transform="translate(1074.595 84.112)" fill="#13334b"/>
      <path id="Path_6395" data-name="Path 6395" d="M-1000.689,63.443l-.993-.179a1.547,1.547,0,0,1,.576-.887,2.108,2.108,0,0,1,1.214-.288,2.621,2.621,0,0,1,1.09.173,1.086,1.086,0,0,1,.5.44,2.251,2.251,0,0,1,.146.979l-.012,1.277a4.435,4.435,0,0,0,.052.8,2.35,2.35,0,0,0,.2.555H-999q-.043-.109-.105-.323c-.018-.065-.031-.108-.039-.129a1.972,1.972,0,0,1-.6.409,1.717,1.717,0,0,1-.681.136,1.408,1.408,0,0,1-1.006-.347,1.152,1.152,0,0,1-.368-.876,1.175,1.175,0,0,1,.168-.625,1.094,1.094,0,0,1,.469-.42,3.67,3.67,0,0,1,.87-.255,5.957,5.957,0,0,0,1.063-.269v-.109a.567.567,0,0,0-.156-.449.934.934,0,0,0-.588-.134.783.783,0,0,0-.455.115.8.8,0,0,0-.265.4Zm1.463.887a6.8,6.8,0,0,1-.665.167,2.011,2.011,0,0,0-.6.191.456.456,0,0,0-.214.385.536.536,0,0,0,.171.4.6.6,0,0,0,.436.167.947.947,0,0,0,.564-.195.687.687,0,0,0,.261-.362,2.165,2.165,0,0,0,.043-.533V64.33Z" transform="translate(1034.781 84.111)" fill="#13334b"/>
      <path id="Path_6396" data-name="Path 6396" d="M-952.627,66.315h-1.094V64.206a3.251,3.251,0,0,0-.07-.866.608.608,0,0,0-.228-.306.652.652,0,0,0-.38-.109.877.877,0,0,0-.51.156.785.785,0,0,0-.31.413,3.569,3.569,0,0,0-.084.95v1.872h-1.094V62.182h1.016v.607a1.655,1.655,0,0,1,1.362-.7,1.643,1.643,0,0,1,.662.13,1.108,1.108,0,0,1,.453.333,1.205,1.205,0,0,1,.214.459,3.415,3.415,0,0,1,.06.736v2.569Z" transform="translate(994.095 84.111)" fill="#13334b"/>
      <path id="Path_6397" data-name="Path 6397" d="M-909.781,65l1.09.183a1.785,1.785,0,0,1-.664.913,1.948,1.948,0,0,1-1.134.313,1.849,1.849,0,0,1-1.6-.7,2.366,2.366,0,0,1-.409-1.425,2.283,2.283,0,0,1,.537-1.61,1.769,1.769,0,0,1,1.358-.582,1.835,1.835,0,0,1,1.456.609,2.7,2.7,0,0,1,.51,1.866h-2.74a1.106,1.106,0,0,0,.264.757.828.828,0,0,0,.631.271.669.669,0,0,0,.432-.14.865.865,0,0,0,.265-.451Zm.062-1.105a1.053,1.053,0,0,0-.245-.722.753.753,0,0,0-.568-.247.76.76,0,0,0-.592.261,1.009,1.009,0,0,0-.23.708Z" transform="translate(954.752 84.111)" fill="#13334b"/>
      <path id="Path_6398" data-name="Path 6398" d="M-866.719,53.549V47.843h1.094v5.706Z" transform="translate(913.73 96.877)" fill="#13334b"/>
      <path id="Path_6399" data-name="Path 6399" d="M-849.1,65.136l1.1-.167a.8.8,0,0,0,.284.485.961.961,0,0,0,.6.165,1.082,1.082,0,0,0,.638-.156.348.348,0,0,0,.144-.292.287.287,0,0,0-.078-.206.872.872,0,0,0-.366-.144,5.892,5.892,0,0,1-1.678-.533,1.065,1.065,0,0,1-.49-.93,1.146,1.146,0,0,1,.424-.9,1.981,1.981,0,0,1,1.315-.366,2.294,2.294,0,0,1,1.261.276,1.414,1.414,0,0,1,.569.818l-1.032.191a.637.637,0,0,0-.251-.37.917.917,0,0,0-.527-.128,1.189,1.189,0,0,0-.619.121.259.259,0,0,0-.125.222.242.242,0,0,0,.109.2,4.109,4.109,0,0,0,1.022.307,3.046,3.046,0,0,1,1.22.487,1.012,1.012,0,0,1,.342.814,1.248,1.248,0,0,1-.475.977,2.1,2.1,0,0,1-1.4.409,2.307,2.307,0,0,1-1.337-.343,1.579,1.579,0,0,1-.644-.93Z" transform="translate(897.939 84.111)" fill="#13334b"/>
      <path id="Path_6400" data-name="Path 6400" d="M668.6-430.92l-1.362-5.706h1.179l.86,3.919,1.043-3.919h1.37l1,3.986.876-3.986h1.16l-1.386,5.706h-1.222l-1.136-4.266-1.133,4.266Z" transform="translate(-460.799 531.007)" fill="#13334b"/>
      <path id="Path_6401" data-name="Path 6401" d="M740.435-421.026l-.993-.179a1.546,1.546,0,0,1,.576-.888,2.108,2.108,0,0,1,1.214-.288,2.617,2.617,0,0,1,1.09.173,1.086,1.086,0,0,1,.5.44,2.249,2.249,0,0,1,.146.979l-.012,1.277a4.432,4.432,0,0,0,.053.8,2.355,2.355,0,0,0,.2.555h-1.082q-.043-.109-.105-.323-.027-.1-.039-.129a1.97,1.97,0,0,1-.6.409,1.717,1.717,0,0,1-.681.136,1.409,1.409,0,0,1-1.006-.346,1.152,1.152,0,0,1-.368-.876,1.174,1.174,0,0,1,.167-.625,1.091,1.091,0,0,1,.469-.42,3.672,3.672,0,0,1,.87-.255,5.949,5.949,0,0,0,1.063-.269v-.109a.567.567,0,0,0-.156-.45.933.933,0,0,0-.588-.134.781.781,0,0,0-.455.115.8.8,0,0,0-.265.4Zm1.463.887a6.8,6.8,0,0,1-.666.168,2,2,0,0,0-.6.191.456.456,0,0,0-.214.385.537.537,0,0,0,.171.4.6.6,0,0,0,.436.167.947.947,0,0,0,.564-.195.685.685,0,0,0,.261-.362,2.158,2.158,0,0,0,.043-.533v-.218Z" transform="translate(-525.403 518.241)" fill="#13334b"/>
      <path id="Path_6402" data-name="Path 6402" d="M782.8-434.079v.872h-.747v1.666a4.1,4.1,0,0,0,.022.59.239.239,0,0,0,.1.138.308.308,0,0,0,.185.055,1.414,1.414,0,0,0,.44-.105l.093.849a2.174,2.174,0,0,1-.864.164,1.37,1.37,0,0,1-.533-.1.778.778,0,0,1-.348-.257,1.015,1.015,0,0,1-.154-.426,5.3,5.3,0,0,1-.035-.771v-1.8h-.5v-.872h.5v-.821l1.1-.638v1.46Z" transform="translate(-562.257 530.032)" fill="#13334b"/>
      <path id="Path_6403" data-name="Path 6403" d="M810.011-419.469l1.09.183a1.786,1.786,0,0,1-.664.913,1.95,1.95,0,0,1-1.135.313,1.849,1.849,0,0,1-1.6-.7,2.366,2.366,0,0,1-.409-1.425,2.283,2.283,0,0,1,.537-1.609,1.77,1.77,0,0,1,1.359-.582,1.836,1.836,0,0,1,1.456.609,2.7,2.7,0,0,1,.51,1.866h-2.74a1.106,1.106,0,0,0,.265.757.827.827,0,0,0,.631.27.67.67,0,0,0,.432-.14.866.866,0,0,0,.264-.452Zm.063-1.105a1.054,1.054,0,0,0-.245-.722.752.752,0,0,0-.568-.247.759.759,0,0,0-.592.261,1.01,1.01,0,0,0-.23.708Z" transform="translate(-586.31 518.241)" fill="#13334b"/>
      <path id="Path_6404" data-name="Path 6404" d="M853.716-418.154h-1.094v-4.134h1.016v.588a1.766,1.766,0,0,1,.469-.549.863.863,0,0,1,.473-.132,1.389,1.389,0,0,1,.72.206l-.338.954a.961.961,0,0,0-.514-.179.607.607,0,0,0-.389.127.864.864,0,0,0-.251.457,6.479,6.479,0,0,0-.092,1.386v1.277Z" transform="translate(-626.926 518.241)" fill="#13334b"/>
      <path id="Path_6405" data-name="Path 6405" d="M902.282-434.079v.872h-.747v1.666a4.112,4.112,0,0,0,.021.59.24.24,0,0,0,.1.138.308.308,0,0,0,.185.055,1.412,1.412,0,0,0,.44-.105l.094.849a2.175,2.175,0,0,1-.864.164,1.372,1.372,0,0,1-.533-.1.779.779,0,0,1-.348-.257,1.015,1.015,0,0,1-.154-.426,5.324,5.324,0,0,1-.035-.771v-1.8h-.5v-.872h.5v-.821l1.1-.638v1.46Z" transform="translate(-669.322 530.032)" fill="#13334b"/>
      <path id="Path_6406" data-name="Path 6406" d="M928.183-421.026l-.993-.179a1.545,1.545,0,0,1,.576-.888,2.107,2.107,0,0,1,1.214-.288,2.619,2.619,0,0,1,1.09.173,1.088,1.088,0,0,1,.5.44,2.253,2.253,0,0,1,.146.979l-.012,1.277a4.444,4.444,0,0,0,.052.8,2.341,2.341,0,0,0,.2.555h-1.082q-.043-.109-.1-.323-.027-.1-.039-.129a1.969,1.969,0,0,1-.6.409,1.717,1.717,0,0,1-.681.136,1.409,1.409,0,0,1-1.006-.346,1.152,1.152,0,0,1-.368-.876,1.176,1.176,0,0,1,.167-.625,1.1,1.1,0,0,1,.469-.42,3.673,3.673,0,0,1,.87-.255,5.956,5.956,0,0,0,1.063-.269v-.109a.566.566,0,0,0-.156-.45.933.933,0,0,0-.588-.134.782.782,0,0,0-.455.115.8.8,0,0,0-.265.4Zm1.464.887a6.8,6.8,0,0,1-.666.168,2,2,0,0,0-.6.191.456.456,0,0,0-.214.385.537.537,0,0,0,.171.4.6.6,0,0,0,.436.167.947.947,0,0,0,.564-.195.684.684,0,0,0,.261-.362,2.162,2.162,0,0,0,.043-.533v-.218Z" transform="translate(-693.644 518.241)" fill="#13334b"/>
      <path id="Path_6407" data-name="Path 6407" d="M976.246-418.154h-1.094v-2.11a3.268,3.268,0,0,0-.07-.866.609.609,0,0,0-.228-.306.651.651,0,0,0-.379-.109.877.877,0,0,0-.51.156.785.785,0,0,0-.31.413,3.573,3.573,0,0,0-.084.95v1.872h-1.094v-4.134h1.016v.607a1.655,1.655,0,0,1,1.362-.7,1.639,1.639,0,0,1,.661.13,1.11,1.11,0,0,1,.454.333,1.2,1.2,0,0,1,.214.459,3.4,3.4,0,0,1,.06.736v2.569Z" transform="translate(-734.326 518.241)" fill="#13334b"/>
      <path id="Path_6408" data-name="Path 6408" d="M1019.078-430.92v-5.706h1.094v3.028l1.281-1.456h1.347l-1.413,1.51,1.514,2.623h-1.179l-1.039-1.857-.51.533v1.323Z" transform="translate(-776.085 531.007)" fill="#13334b"/>
      <path id="Path_6409" data-name="Path 6409" d="M854.336,81.638a4.706,4.706,0,1,1-4.562,4.7,4.637,4.637,0,0,1,4.562-4.7Zm-8.605-2.447a11.072,11.072,0,0,1,17.566.122l-2.248,1.338a8.551,8.551,0,0,0-13.063-.118l-2.254-1.342Zm-4.174-2.485a15.776,15.776,0,0,1,25.907.125L865.2,78.18a13.217,13.217,0,0,0-21.376-.124l-2.267-1.349Zm-5.912-3.519a22.47,22.47,0,0,1,37.727.128l-3.212,1.912a18.829,18.829,0,0,0-31.3-.127l-3.214-1.913Z" transform="translate(-611.693 83.312)" fill="#fff" fill-rule="evenodd"/>
      <path id="Path_6410" data-name="Path 6410" d="M-1148.7,854.131l-167.759-96.856v8.8l167.759,96.856v-8.8Z" transform="translate(1316.772 -538.759)" fill="#9c6a41" fill-rule="evenodd"/>
      <line id="Line_7" data-name="Line 7" y1="10.563" x2="18.296" transform="translate(246.982 165.371)" fill="none" stroke="#ffdc18" stroke-linecap="round" stroke-linejoin="round" stroke-width="9.5" stroke-dasharray="9.5 19 0 0"/>
      <path id="Path_6411" data-name="Path 6411" d="M1030.133,677.592a4.47,4.47,0,0,1-1.021-3.686c.433-2.543.859-5.487,1.84-7.447,1.785-3.572,11.953-16.945,16.848-15.764,3.567.861,6.1,4.47,8.424,7.075,3.244,3.636,11.994,7.311,9.051,14.15-1.3,3.02-5.112,3.657-7.635,5.232-1.634,1.02-2.494,3.046-4.08,4.277-5.625,4.367-12.5,2.686-18.592.823-.929-.284-3.3-2.886-4.833-4.661Z" transform="translate(-784.998 -443.253)" fill="#c18e63" fill-rule="evenodd"/>
    </g>
  </g>
</svg>
