<svg xmlns="http://www.w3.org/2000/svg" xmlns:xlink="http://www.w3.org/1999/xlink" width="309" height="309" viewBox="0 0 309 309">
  <defs>
    <filter id="Rectangle_762" x="0" y="0" width="309" height="309" filterUnits="userSpaceOnUse">
      <feOffset dx="5" dy="5" input="SourceAlpha"/>
      <feGaussianBlur stdDeviation="15" result="blur"/>
      <feFlood flood-opacity="0.2"/>
      <feComposite operator="in" in2="blur"/>
      <feComposite in="SourceGraphic"/>
    </filter>
  </defs>
  <g id="Group_5879" data-name="Group 5879" transform="translate(39.914 40)">
    <g transform="matrix(1, 0, 0, 1, -39.91, -40)" filter="url(#Rectangle_762)">
      <rect id="Rectangle_762-2" data-name="Rectangle 762" width="219" height="219" rx="10" transform="translate(40 40)" fill="#fefbeb"/>
    </g>
    <g id="Group_5878" data-name="Group 5878" transform="translate(19.801 37.076)">
      <g id="Group_5877" data-name="Group 5877" transform="translate(55.475 0)">
        <path id="Path_10429" data-name="Path 10429" d="M897.827-10.955c.034-8.108-2.933-14.336-7.469-19.885-3.522-4.309-7.6-8.13-11.3-12.279-2.05-2.293-4.252-4.484-5.4-7.443a19.065,19.065,0,0,1-1.188-7.633c.01-.292-.041-.662.333-.753.331-.081.539.207.746.423q4.644,4.845,9.289,9.689c3.99,4.144,7.933,8.335,12,12.4,5.3,5.3,8.875,11.522,9.981,18.933,1.906,12.781-1.962,23.564-11.96,31.893a32.247,32.247,0,0,1-23.807,7.567C855.242,20.9,841.225,11.589,837.7-4.584c-2.573-11.819.435-22.31,9-30.973,7.272-7.355,14.4-14.845,21.558-22.307.4-.417.728-1.329,1.44-.975.615.306.359,1.17.3,1.78a32.759,32.759,0,0,1-.634,5.252c-.765,2.925-2.658,5.109-4.638,7.234-3.588,3.851-7.219,7.662-10.82,11.5-3.581,3.818-6.645,7.947-8.237,13.043A26.489,26.489,0,0,0,865.7,13.812c8.831,1.746,16.822-.078,23.617-6.154A25.658,25.658,0,0,0,897.3-6.433,19.531,19.531,0,0,0,897.827-10.955Z" transform="translate(-836.814 58.962)" fill="#2e3092"/>
        <path id="Path_10430" data-name="Path 10430" d="M922.47,64.558a19.38,19.38,0,0,1,19.484,17.926A19.178,19.178,0,0,1,926.205,102.7c-1.494.259-1.843-.031-1.729-1.579a9.489,9.489,0,0,1,3.539-6.692c1.566-1.342,3.278-2.535,4.387-4.344,2.515-4.1,2.68-8.3.091-12.344a11.146,11.146,0,0,0-11.615-5.313,11.414,11.414,0,0,0-5.964,20.036c1.145,1.029,2.418,1.92,3.524,2.987a8.343,8.343,0,0,1,2.514,5.981c.037,1.252-.24,1.522-1.433,1.316a18.883,18.883,0,0,1-13.961-9.686c-6.95-12.466,1.531-26.71,14.615-28.347A16.309,16.309,0,0,1,922.47,64.558Z" transform="translate(-888.114 -36.674)" fill="#2e3092"/>
      </g>
      <g id="surface1" transform="translate(0 98.22)">
        <path id="Path_10431" data-name="Path 10431" d="M602.378,356.359s5.273,3.9,8.253,4.247c2.375.275,4.361-.764,2.111-3.81-2.54-3.441-6.411-6.694-9.436-9.731-2.68-2.691-5.4-5.307-7.39-7.68-1.791-2.134-3.5-4.694-3.929-7.5-.417-2.723.619-5.12,3.628-6.985,4.814-2.985,11.348-2.3,15.589-1.263s4.7,1.721,6.533,1.147,2.568-.777,2.921.84a77.454,77.454,0,0,0,2.821,7.885c.907,2.274,2.066,3.488,1.511,4.549s-.7,1.567-2.065.556-8.211-7.228-10.428-8.592-8.06-2.022-5.642,1.516,10.378,9.452,15.667,15.972,6.4,7.734,5.844,13.041-3.426,7.885-8.514,8.138-9.42-1.263-13.248-2.881-5.894-1.314-7.053.152-1.713,2.274-3.425-1.416-4.485-10.311-4.635-10.766-1.461-4.094,1.36-3.083S602.378,356.359,602.378,356.359ZM750.5,336.381c1.227.259,1.733,1.164,3,4.14,2.028,4.765,8.737,24.3,9.985,24.608a34.037,34.037,0,0,0,5.694.234c1.4,0,1.326.859,1.248,1.563s.39,1.64-.545,1.64H758.261c-5.15,0-5.148.391-5.85-.468s-.936-2.188-2.809-1.016-8.112,4.14-12.715,1.8-7.176-5-7.41-10.077,3.744-9.219,8.659-10.937,5.383-2.109,5.3-3.516-1.717-3.2-7.021-3.906-4.369-1.25-4.369-2.344a1.758,1.758,0,0,1,1.386-1.719Zm-6.673,16.561c-1.014.7-1.95,1.875-.468,5.391s1.951,3.828,4.213,3.75,1.482-4.218.078-6.64S744.844,352.239,743.83,352.942Zm-48.258-24.285c3.98-1.9,4.975-2.628,7.87-3.9s5.7-2.446,5.789.905,0,12.863,0,16.037.452,2.716,2.8,1.356,5.789-3.351,8.955-4.077,5.427-.544,7.237,3.9,2.895,7.247,2.895,7.247-5.608,3.805-3.89,10.056,4.794,7.61,3.437,8.062-10.038,0-11.849,0-2.986-2.355-1.176-2.809,4.342.091,3.528-1.54-2.623-9.512-3.709-11.958-1.719-3.714-4.975-2.808-3.618,1.993-3.527,4.983,0,9.785,0,9.785a14.374,14.374,0,0,0,3.618.633c1.628,0,2.081,3.17-.9,3.442s-29.664.488-31.484,0-.358-1.993-1.986-.724-7.6,4.529-14.835-1.359-4.251-13.86-3.437-16.035,4.161-8.426,11.126-8.335,8.593,3.8,8.593,1.268v-8.064s-4.975-1.266-2.623-3.531,9.227-5.254,11.4-5.979,2.985,1.359,2.8,3.533S691.591,330.559,695.572,328.657Zm-18.887,19.2a4.117,4.117,0,0,1,2.915,1.3v10.5a4.117,4.117,0,0,1-2.915,1.3c-2.69,0-4.884-2.941-4.884-6.548S673.995,347.859,676.685,347.859Zm14.491-10.874v27.191h5.582v-30.24ZM660.4,344.557s-4.695,5.442-4.209,11.29,2.672,9.828,4.129,11.128.728,1.055-1.377,1.3-9.553.327-10.119,0-.405-2.192-2.672-.65-6.881,3.087-10.686,1.381-5.343-2.924-5.667-8.041.243-12.264,0-14.376-2.428-2.924-3.643-3.33-2.591-.974.567-2.518a70.562,70.562,0,0,1,10.119-3.9c2.591-.731,4.128-.487,4.209,3.492s-.405,15.352,0,18.194,2.509,2.924,3.8,3,3.076-.568,3.076-1.786v-11.94c0-2.942,0-2.762-2.024-3.574s-2.428-1.707.486-3.087,6.962-3.167,10.039-4.223,3.8-.975,4.047,1.868V343.6c-.042.594-.081.956-.081.956" transform="translate(-591.057 -322.759)" fill="#2e3092" fill-rule="evenodd"/>
      </g>
    </g>
  </g>
</svg>
