<svg xmlns="http://www.w3.org/2000/svg" width="135.26" height="135.26" viewBox="0 0 135.26 135.26">
  <g id="museum" transform="translate(0 0.001)">
    <path id="Path_10548" data-name="Path 10548" d="M248.642,123.284a2.643,2.643,0,1,0-1.868-.774A2.663,2.663,0,0,0,248.642,123.284Zm0,0" transform="translate(-181.012 -86.828)" fill="#41823e"/>
    <path id="Path_10549" data-name="Path 10549" d="M132.618,119.408h-3.17v-7.925a2.642,2.642,0,0,0-2.642-2.642h-1.585v-4.182a6.923,6.923,0,0,0-4.227-6.37V89.379a2.642,2.642,0,1,0-5.284,0v8.366h-5.284V60.232h5.284V68.78a2.642,2.642,0,1,0,5.284,0v-9.09a6.924,6.924,0,0,0,4.227-6.37V49.137h1.585a2.642,2.642,0,0,0,2.642-2.642V36.456h.264a2.642,2.642,0,0,0,1.186-5L68.815.28a2.643,2.643,0,0,0-2.371,0L4.362,31.453a2.642,2.642,0,0,0,1.186,5h.264V46.495a2.642,2.642,0,0,0,2.642,2.642h1.585v4.182a6.922,6.922,0,0,0,4.227,6.369v38.6a6.923,6.923,0,0,0-4.227,6.369v4.184H8.454a2.642,2.642,0,0,0-2.642,2.642v7.925H2.642A2.642,2.642,0,0,0,0,122.05v10.567a2.642,2.642,0,0,0,2.642,2.642H132.618a2.642,2.642,0,0,0,2.642-2.642V122.05a2.642,2.642,0,0,0-2.642-2.642Zm-14.31-16.379a1.631,1.631,0,0,1,1.629,1.629v4.182H106.2v-4.182a1.631,1.631,0,0,1,1.629-1.629Zm-23.38,5.812v-4.182a6.924,6.924,0,0,0-4.227-6.37v-38.6a6.924,6.924,0,0,0,4.227-6.37V49.137h5.988v4.182a6.922,6.922,0,0,0,4.227,6.369v38.6a6.923,6.923,0,0,0-4.227,6.369v4.184Zm-30.292,0v-4.182a6.925,6.925,0,0,0-4.227-6.37v-38.6a6.926,6.926,0,0,0,4.227-6.37V49.137h5.988v4.182a6.922,6.922,0,0,0,4.227,6.369v38.6a6.923,6.923,0,0,0-4.227,6.369v4.184Zm-30.293,0v-4.182a6.923,6.923,0,0,0-4.227-6.37v-38.6a6.924,6.924,0,0,0,4.227-6.37V49.137h5.988v4.182a6.922,6.922,0,0,0,4.227,6.369v38.6a6.923,6.923,0,0,0-4.227,6.369v4.184ZM19.549,60.232h5.284V97.745H19.549Zm30.293,0h5.284V97.745H49.842Zm9.51-6.913a1.631,1.631,0,0,1-1.629,1.629H47.244a1.632,1.632,0,0,1-1.629-1.629V49.137H59.351v4.182ZM45.615,104.658a1.631,1.631,0,0,1,1.629-1.629H57.723a1.632,1.632,0,0,1,1.629,1.629v4.182H45.615ZM80.134,60.232h5.284V97.745H80.134Zm9.51-6.913a1.631,1.631,0,0,1-1.629,1.629H77.536a1.632,1.632,0,0,1-1.629-1.629V49.137H89.644ZM75.907,104.658a1.631,1.631,0,0,1,1.629-1.629H88.016a1.632,1.632,0,0,1,1.629,1.629v4.182H75.908v-4.182Zm44.03-51.339a1.631,1.631,0,0,1-1.629,1.629H107.828a1.631,1.631,0,0,1-1.628-1.629V49.137h13.737ZM54.509,36.456a2.642,2.642,0,1,0,0-5.284H16.7L67.63,5.6l50.934,25.575H81.631a2.642,2.642,0,0,0,0,5.284h42.533v7.4H11.1v-7.4ZM29.06,49.137v4.182a1.631,1.631,0,0,1-1.629,1.629H16.952a1.631,1.631,0,0,1-1.629-1.629V49.137ZM15.322,104.658a1.631,1.631,0,0,1,1.629-1.629H27.431a1.631,1.631,0,0,1,1.628,1.629v4.182H15.322ZM11.1,114.125H124.164v5.284H11.1Zm118.88,15.851H5.284v-5.284H129.976Zm0,0" fill="#41823e"/>
    <path id="Path_10550" data-name="Path 10550" d="M440.642,289a2.642,2.642,0,1,0,1.868.774A2.663,2.663,0,0,0,440.642,289Zm0,0" transform="translate(-322.29 -212.653)" fill="#41823e"/>
  </g>
</svg>
