<svg xmlns="http://www.w3.org/2000/svg" width="146.472" height="146.256" viewBox="0 0 146.472 146.256">
  <g id="Outline" transform="translate(0)">
    <path id="Path_10531" data-name="Path 10531" d="M143.433,404.322h-7.261a13.742,13.742,0,0,0-11.021-11.194v-7.833a12.26,12.26,0,0,0,9.773-.786c6.37-3.415,10.438-12.767,10.609-13.163a2.285,2.285,0,0,0-1.689-3.149c-.425-.078-10.466-1.862-16.834,1.553a11.883,11.883,0,0,0-4.145,3.644,11.883,11.883,0,0,0-4.145-3.644c-6.368-3.415-16.41-1.63-16.834-1.553a2.285,2.285,0,0,0-1.689,3.149c.171.4,4.24,9.748,10.609,13.163a12.258,12.258,0,0,0,9.773.785v7.758a13.743,13.743,0,0,0-11.444,11.269H85.9A13.742,13.742,0,0,0,74.734,393.1v-7.856a12.283,12.283,0,0,0,9.915-.739c6.37-3.415,10.438-12.767,10.609-13.163a2.285,2.285,0,0,0-1.689-3.149c-.425-.078-10.466-1.862-16.834,1.553a11.887,11.887,0,0,0-4.251,3.793,11.889,11.889,0,0,0-4.25-3.793c-6.368-3.415-16.41-1.63-16.834-1.553a2.285,2.285,0,0,0-1.689,3.149c.171.4,4.24,9.748,10.609,13.163a12.272,12.272,0,0,0,9.843.762v7.806a13.742,13.742,0,0,0-11.3,11.246H35.832A13.742,13.742,0,0,0,24.6,393.089v-7.865a12.3,12.3,0,0,0,9.985-.714c6.37-3.415,10.438-12.767,10.609-13.163a2.285,2.285,0,0,0-1.689-3.149c-.424-.078-10.465-1.862-16.834,1.553a11.883,11.883,0,0,0-4.358,3.953,11.883,11.883,0,0,0-4.358-3.953c-6.368-3.415-16.41-1.63-16.834-1.553a2.285,2.285,0,0,0-1.689,3.148c.171.4,4.24,9.748,10.608,13.163a12.3,12.3,0,0,0,9.989.714v7.866A13.742,13.742,0,0,0,8.8,404.322H1.748a2.285,2.285,0,0,0,0,4.571H143.433a2.285,2.285,0,1,0,0-4.571ZM139.92,372.33c-3.5,6.231-8.081,11.155-14.594,8.147-.026-.339-.069-.739-.138-1.181C126.659,372.7,133.153,371.825,139.92,372.33Zm-19.51,8.148c-6.528,3.012-11.1-1.935-14.594-8.148,6.755-.505,13.258.365,14.732,6.966C120.477,379.738,120.434,380.138,120.409,380.477ZM89.644,372.33c-3.615,6.435-8.284,11.246-14.815,8.042-.011-.135-.025-.277-.042-.428C75.9,372.884,82.516,371.8,89.644,372.33Zm-50.058,0c-3.628,6.411-8.313,11.316-14.917,7.995.886-7.334,7.576-8.543,14.916-7.994Zm-34.538,0c7.379-.552,14.026.686,14.911,8-6.6,3.313-11.3-1.567-14.913-8Zm8.415,31.992c2.35-9.1,15.348-9.119,17.7,0Zm56.678-23.95c-6.544,3.209-11.2-1.609-14.815-8.042,7.131-.533,13.74.558,14.857,7.614-.017.151-.031.293-.042.428Zm-6.614,23.95c2.35-9.1,15.348-9.119,17.7,0Zm50.276,0c2.35-9.1,15.348-9.119,17.7,0Z" transform="translate(0.753 -262.636)" fill="#41823e"/>
    <path id="Path_10532" data-name="Path 10532" d="M.855,36.019,18.291,50.155v.086h.1L41.144,68.685v20.4a2.285,2.285,0,0,0,4.571,0v-16.7L50.285,76.1v44.987a2.285,2.285,0,1,0,4.571,0V79.8c31.815,25.562,30.461,25.284,31.994,25.284h29.708a2.287,2.287,0,0,0,1.439-4.06L100.56,86.89V86.8h-.1C29.4,29.433,33.542,31.959,32,31.959H2.294a2.287,2.287,0,0,0-1.439,4.06Zm109.255,64.5H87.659L76.385,91.375H98.836ZM93.2,86.8H70.852v.084L59.474,77.664H81.927ZM76.288,73.093H53.837L42.563,63.952H65.016ZM48,50.156l11.378,9.225H36.926L25.652,50.241H48ZM31.193,36.529,42.467,45.67H20.015L8.741,36.529Z" transform="translate(0.206 -22.818)" fill="#41823e"/>
    <path id="Path_10533" data-name="Path 10533" d="M384,63.994a16,16,0,1,0-16-16,16,16,0,0,0,16,16Zm0-27.423A11.426,11.426,0,1,1,372.57,48,11.426,11.426,0,0,1,384,36.571Z" transform="translate(-262.663 -22.859)" fill="#41823e"/>
    <ellipse id="Ellipse_126" data-name="Ellipse 126" cx="2.285" cy="2.285" rx="2.285" ry="2.285" transform="translate(119.048)" fill="#41823e"/>
    <ellipse id="Ellipse_127" data-name="Ellipse 127" cx="2.285" cy="2.285" rx="2.285" ry="2.285" transform="translate(119.048 45.705)" fill="#41823e"/>
    <ellipse id="Ellipse_128" data-name="Ellipse 128" cx="2.285" cy="2.285" rx="2.285" ry="2.285" transform="translate(141.901 22.853)" fill="#41823e"/>
    <ellipse id="Ellipse_129" data-name="Ellipse 129" cx="2.285" cy="2.285" rx="2.285" ry="2.285" transform="translate(96.196 22.853)" fill="#41823e"/>
    <ellipse id="Ellipse_130" data-name="Ellipse 130" cx="2.285" cy="2.285" rx="2.285" ry="2.285" transform="translate(102.889 6.693)" fill="#41823e"/>
    <ellipse id="Ellipse_131" data-name="Ellipse 131" cx="2.285" cy="2.285" rx="2.285" ry="2.285" transform="translate(41.35 73.128)" fill="#41823e"/>
    <ellipse id="Ellipse_132" data-name="Ellipse 132" cx="2.285" cy="2.285" rx="2.285" ry="2.285" transform="translate(135.207 39.012)" fill="#41823e"/>
    <ellipse id="Ellipse_133" data-name="Ellipse 133" cx="2.285" cy="2.285" rx="2.285" ry="2.285" transform="translate(135.207 6.693)" fill="#41823e"/>
    <ellipse id="Ellipse_134" data-name="Ellipse 134" cx="2.285" cy="2.285" rx="2.285" ry="2.285" transform="translate(102.889 39.012)" fill="#41823e"/>
    <path id="Path_10534" data-name="Path 10534" d="M146.285,280A2.285,2.285,0,0,0,144,282.285v16a2.285,2.285,0,0,0,4.571,0v-16A2.285,2.285,0,0,0,146.285,280Z" transform="translate(-102.65 -200.016)" fill="#41823e"/>
  </g>
</svg>
