<svg id="solar-energy_1_" data-name="solar-energy (1)" xmlns="http://www.w3.org/2000/svg" width="146.256" height="146.256" viewBox="0 0 146.256 146.256">
  <g id="Group_6003" data-name="Group 6003" transform="translate(0 0)">
    <path id="Path_10515" data-name="Path 10515" d="M397.569,60.137A13.569,13.569,0,1,0,384,46.569,13.584,13.584,0,0,0,397.569,60.137Zm0-22.853a9.284,9.284,0,1,1-9.284,9.284A9.295,9.295,0,0,1,397.569,37.285Z" transform="translate(-274.308 -23.573)" fill="#41823e"/>
    <path id="Path_10516" data-name="Path 10516" d="M426.142,6.413a2.142,2.142,0,0,0,2.142-2.142V2.142a2.142,2.142,0,1,0-4.285,0V4.27A2.142,2.142,0,0,0,426.142,6.413Z" transform="translate(-302.881 0)" fill="#41823e"/>
    <path id="Path_10517" data-name="Path 10517" d="M424,140.693v2.128a2.142,2.142,0,0,0,4.285,0v-2.128a2.142,2.142,0,0,0-4.285,0Z" transform="translate(-302.881 -98.973)" fill="#41823e"/>
    <path id="Path_10518" data-name="Path 10518" d="M388.849,14.836a2.142,2.142,0,1,0,3.711-2.142L391.5,10.851a2.142,2.142,0,1,0-3.711,2.142Z" transform="translate(-276.806 -6.986)" fill="#41823e"/>
    <path id="Path_10519" data-name="Path 10519" d="M457.845,130.056a2.142,2.142,0,0,0-.784,2.927l1.064,1.843a2.142,2.142,0,1,0,3.711-2.142l-1.064-1.843A2.142,2.142,0,0,0,457.845,130.056Z" transform="translate(-326.293 -92.699)" fill="#41823e"/>
    <path id="Path_10520" data-name="Path 10520" d="M361.85,40.5l1.843,1.064a2.142,2.142,0,0,0,2.142-3.711l-1.843-1.064A2.142,2.142,0,0,0,361.85,40.5Z" transform="translate(-257.72 -26.072)" fill="#41823e"/>
    <path id="Path_10521" data-name="Path 10521" d="M481.839,109.772l1.843,1.064a2.142,2.142,0,1,0,2.142-3.711l-1.843-1.064a2.142,2.142,0,0,0-2.142,3.711Z" transform="translate(-343.433 -75.559)" fill="#41823e"/>
    <path id="Path_10522" data-name="Path 10522" d="M353.142,77.285h2.128a2.142,2.142,0,1,0,0-4.285h-2.128a2.142,2.142,0,0,0,0,4.285Z" transform="translate(-250.734 -52.147)" fill="#41823e"/>
    <path id="Path_10523" data-name="Path 10523" d="M489.551,75.142a2.142,2.142,0,0,0,2.142,2.142h2.128a2.142,2.142,0,0,0,0-4.285h-2.128A2.142,2.142,0,0,0,489.551,75.142Z" transform="translate(-349.707 -52.147)" fill="#41823e"/>
    <path id="Path_10524" data-name="Path 10524" d="M363.693,106.062l-1.843,1.064a2.142,2.142,0,1,0,2.142,3.711l1.843-1.064a2.142,2.142,0,0,0-2.142-3.711Z" transform="translate(-257.72 -75.559)" fill="#41823e"/>
    <path id="Path_10525" data-name="Path 10525" d="M482.913,41.849a2.135,2.135,0,0,0,1.069-.287l1.843-1.064a2.142,2.142,0,1,0-2.142-3.711l-1.843,1.064a2.143,2.143,0,0,0,1.073,4Z" transform="translate(-343.433 -26.073)" fill="#41823e"/>
    <path id="Path_10526" data-name="Path 10526" d="M388.849,130.839l-1.064,1.843a2.142,2.142,0,1,0,3.711,2.142l1.064-1.843a2.142,2.142,0,1,0-3.711-2.142Z" transform="translate(-276.806 -92.698)" fill="#41823e"/>
    <path id="Path_10527" data-name="Path 10527" d="M457.845,15.619a2.141,2.141,0,0,0,2.927-.784l1.064-1.843a2.142,2.142,0,1,0-3.711-2.142l-1.064,1.843A2.142,2.142,0,0,0,457.845,15.619Z" transform="translate(-326.293 -6.985)" fill="#41823e"/>
    <path id="Path_10528" data-name="Path 10528" d="M141.257,167.686v-5.115a2.142,2.142,0,1,0-4.285,0v4.893H114.406V137.47h22.567v15.96a2.142,2.142,0,1,0,4.285,0V136.47a3.289,3.289,0,0,0-3.285-3.285H127.7V88.125a2.142,2.142,0,0,0-2.142-2.142H54.006V73.894L84.773,83.08h0A4.426,4.426,0,0,0,90.282,80.1l1.2-4.01,6.432,1.921a2.143,2.143,0,0,0,1.226-4.106L14.286,48.573a2.143,2.143,0,0,0-1.226,4.106L19.492,54.6l-1.2,4.01A4.428,4.428,0,0,0,21.27,64.12l28.45,8.495v21.15h-31.5a2.142,2.142,0,1,0,0,4.285h83.478v39.706H4.285V98.049H9.163a2.142,2.142,0,1,0,0-4.285H2.142A2.142,2.142,0,0,0,0,95.907V139.9a2.142,2.142,0,0,0,2.142,2.142H8.284v25.423H6.713a6.713,6.713,0,1,0,0,13.426h132.83a6.713,6.713,0,0,0,1.714-13.2ZM22.412,59.945a.136.136,0,0,1-.011-.109l1.185-3.969L87.361,74.91l-1.185,3.969a.143.143,0,0,1-.178.1l-33.48-10-.083-.025L22.5,60.014a.136.136,0,0,1-.085-.069Zm31.594,33.82v-3.5h69.413v42.918H113.406a3.289,3.289,0,0,0-3.285,3.285v30.994h-4.142V95.907a2.142,2.142,0,0,0-2.142-2.142Zm47.688,48.276v25.423H97.409V150.753a2.142,2.142,0,0,0-2.142-2.142H66.7a2.142,2.142,0,0,0-2.142,2.142v16.711H34.564v-4.746a2.142,2.142,0,0,0-4.285,0v4.746H21.139V142.041H30.28v11.478a2.142,2.142,0,1,0,4.285,0V142.041Zm-8.57,25.423H68.843V152.9H93.124ZM12.569,142.041h4.285v25.423H12.569Zm126.975,34.564H6.713a2.428,2.428,0,0,1,0-4.856h132.83a2.428,2.428,0,1,1,0,4.856Z" transform="translate(0 -34.634)" fill="#41823e"/>
    <path id="Path_10529" data-name="Path 10529" d="M30,239.142v26.852a2.142,2.142,0,0,0,2.142,2.142H116.7a2.142,2.142,0,0,0,2.142-2.142V239.142A2.142,2.142,0,0,0,116.7,237H32.142A2.142,2.142,0,0,0,30,239.142Zm29.423,24.709V241.285H89.417v22.567Zm55.132,0H93.7V241.285h20.853Zm-80.27-22.567H55.138v22.567H34.285Z" transform="translate(-21.43 -169.299)" fill="#41823e"/>
    <path id="Path_10530" data-name="Path 10530" d="M431.845,374.435a2.142,2.142,0,0,0-3.03,0l-4.844,4.844a2.142,2.142,0,0,0,0,3.03L427,385.337l-3.336,3.336a2.142,2.142,0,1,0,3.03,3.03l4.85-4.85a2.142,2.142,0,0,0,0-3.03l-3.029-3.029,3.329-3.329A2.142,2.142,0,0,0,431.845,374.435Z" transform="translate(-302.194 -267.027)" fill="#41823e"/>
  </g>
</svg>
